<svg width="13" height="12" viewBox="0 0 13 12" fill="none" xmlns="http://www.w3.org/2000/svg">
<g id="Arrow-Right">
<g id="Vector">
<path fill-rule="evenodd" clip-rule="evenodd" d="M11.6202 5.03674C11.5374 5.03674 11.4546 5.04154 11.3722 5.04714C11.3374 5.04914 11.303 5.06074 11.2686 5.06474C11.231 5.06954 11.089 5.11194 11.0546 5.10474C11.0202 5.09634 10.9854 5.09594 10.9514 5.16314C10.9278 5.20994 10.905 5.31634 10.8822 5.13154C10.8254 5.18594 10.7682 5.07354 10.7118 5.24594H10.6634C10.6478 5.21554 10.6326 5.19194 10.617 5.20594C10.6038 5.21714 10.5514 5.22114 10.5382 5.19994C10.5174 5.16874 10.4966 5.16794 10.4762 5.17074C10.4554 5.17394 10.435 5.15154 10.415 5.06554C10.391 5.23514 10.3682 5.04754 10.3446 5.04154C10.3246 5.03634 10.3046 5.15834 10.2842 5.20154C10.2742 5.22274 10.263 5.22114 10.2534 5.18074C10.1958 4.94234 9.99416 5.29274 9.98136 5.20434C9.96536 5.09514 9.94896 5.04234 9.93136 5.07674C9.91456 5.10834 9.89976 5.23874 9.88136 5.15234C9.86936 5.09594 9.80816 5.24714 9.79176 5.22154C9.77816 5.20074 9.76336 5.26754 9.75176 5.21154C9.70736 5.00154 9.66256 5.10354 9.61816 5.10954C9.58736 5.11354 9.55616 5.14114 9.52536 5.14354C9.42856 5.15034 9.33216 5.14794 9.23576 5.15514C9.22216 5.15634 9.20816 5.16994 9.19496 5.21834C9.19176 5.23034 9.18856 5.23674 9.18496 5.24594H9.11416C9.07776 5.15474 9.04056 5.12194 9.00416 5.24594H8.93096C8.92496 5.23794 8.91896 5.23834 8.91256 5.24594H7.21696C7.21176 5.22634 7.20616 5.20354 7.20096 5.17354C7.18936 5.10794 7.10176 5.18394 7.08856 5.13034C7.07856 5.08954 6.99056 5.30034 6.97336 5.17914C6.95536 5.05274 6.93856 5.19274 6.92176 5.19634C6.91816 5.16994 6.91456 5.15154 6.90936 5.14954C6.88176 5.13794 6.85416 5.11834 6.82656 5.11114C6.80256 5.10474 6.77936 5.15194 6.75576 5.24594H6.53296C6.52376 5.21874 6.51416 5.20994 6.50456 5.21434C6.47736 5.22834 6.44936 5.18514 6.42256 5.24594H6.27416C6.26776 5.24474 6.26096 5.24474 6.25416 5.24594H5.21536C5.19496 5.18434 5.17456 5.22314 5.15376 5.24594H5.12016C5.11536 5.23794 5.11056 5.22714 5.10576 5.20874C5.09296 5.15914 4.99136 5.20394 4.94456 5.24594H4.04016C3.97936 5.23834 3.91896 5.23914 3.85816 5.24154C3.84256 5.21874 3.82656 5.23754 3.81096 5.19874C3.80016 5.17234 3.78936 5.20194 3.77896 5.24314C3.72576 5.24314 3.67216 5.23994 3.61896 5.22674C3.61496 5.23474 3.61136 5.23914 3.60776 5.24594H3.56456C3.54616 5.21434 3.52776 5.19114 3.50936 5.24594H3.39096C3.35576 5.23914 3.32336 5.24314 3.31896 5.24314L3.31776 5.24354C3.20016 5.19394 3.08056 5.19234 2.96176 5.19954C2.83136 5.20714 2.28856 5.16474 2.14536 5.15994C2.01376 5.15554 1.88256 5.14434 1.75096 5.14234C1.43536 5.13674 1.11976 5.13194 0.804157 5.13194C0.537357 5.13194 0.486957 5.39554 0.502557 5.69514C0.525757 6.14674 0.696157 6.22194 0.796557 6.25034C0.814157 6.25514 0.938557 6.31234 0.994557 6.28954L2.82096 6.37274C2.86576 6.41914 2.91136 6.42234 2.95776 6.37914L3.25576 6.37554C3.25576 6.37554 3.25696 6.37594 3.25776 6.37634C3.34896 6.43154 3.91136 6.37554 3.98816 6.44154C4.06816 6.50994 4.14536 6.41074 4.22456 6.36354L4.34136 6.36234C4.35216 6.36994 4.36296 6.37554 4.37376 6.38874C4.49976 6.54554 4.63456 6.49794 4.76576 6.46434C4.80216 6.45474 4.83776 6.40634 4.87336 6.35954C4.87776 6.36034 4.88176 6.36114 4.88336 6.36074C4.96936 6.35154 5.05536 6.32874 5.14176 6.31674C5.15576 6.31434 5.24736 6.32274 5.27176 6.30594C5.30576 6.28274 5.44136 6.34634 5.47576 6.27834C5.53056 6.17034 5.58536 6.20794 5.63976 6.38154C5.65096 6.41754 5.72456 6.38034 5.74136 6.36834C5.76176 6.35394 5.82216 6.46714 5.83256 6.45274C5.84936 6.42834 5.86656 6.37754 5.88336 6.34714C5.88976 6.33594 6.00616 6.40914 6.05736 6.35794C6.06736 6.34834 6.13456 6.39634 6.15856 6.40554C6.17936 6.41314 6.20016 6.40514 6.22056 6.39954C6.24136 6.39434 6.41176 6.37154 6.42176 6.37074C6.50816 6.36274 6.59416 6.35274 6.68016 6.33234C6.69376 6.32914 6.70776 6.29554 6.72056 6.23514C6.73456 6.17034 6.83576 6.34514 6.87336 6.30794C6.90416 6.37954 6.93536 6.41274 6.96616 6.45234C7.00016 6.49554 7.03496 6.49434 7.06936 6.48434C7.10336 6.47474 7.13776 6.43034 7.17176 6.40074C7.18856 6.24274 7.20496 6.39314 7.22136 6.42354C7.23136 6.44194 7.27616 6.42794 7.29576 6.41914C7.31296 6.41154 7.33016 6.41194 7.34736 6.39954C7.35656 6.39234 7.63496 6.39434 7.65536 6.38314C7.69656 6.36154 7.73856 6.39874 7.77896 6.31674C7.80296 6.26834 7.82496 6.24754 7.84816 6.34394C7.86216 6.40074 7.93976 6.59154 7.95976 6.59154C7.97496 6.59194 8.03936 6.58714 8.06256 6.40914C8.06936 6.35514 8.08056 6.40954 8.09016 6.42994C8.10736 6.51034 8.12496 6.53314 8.14376 6.43074C8.16176 6.52914 8.17776 6.29634 8.19376 6.35994C8.21416 6.44034 8.23496 6.35034 8.25416 6.42874C8.27856 6.52834 8.30136 6.53274 8.32456 6.37314C8.34056 6.26274 8.35736 6.26114 8.37456 6.35194C8.38776 6.41994 8.40096 6.49114 8.41456 6.50154C8.44896 6.52714 8.48336 6.52514 8.51776 6.52234C8.52776 6.52154 8.53936 6.51754 8.54816 6.45074C8.57136 6.27354 8.59256 6.26354 8.61656 6.43434C8.62856 6.51714 8.64336 6.50994 8.65696 6.50714C8.67416 6.50354 8.69136 6.45834 8.70856 6.43914C8.72576 6.41994 8.74216 6.35714 8.75896 6.30874C8.77456 6.26394 8.79216 6.36914 8.80896 6.40234C8.81216 6.40874 8.81656 6.40394 8.81896 6.37874C8.84136 6.17034 8.86616 6.41954 8.88896 6.28594C8.93656 6.51274 8.98376 6.41754 9.03136 6.25874C9.04376 6.21754 9.05856 6.26514 9.07176 6.20034C9.08696 6.39034 9.10536 6.19754 9.12016 6.27394C9.14376 6.39354 9.16696 6.39194 9.19136 6.38354C9.30496 6.34474 9.41856 6.32394 9.53216 6.30234C9.54656 6.29954 9.74656 6.27594 9.82296 6.22674L10.2406 6.24634C10.243 6.25234 10.2458 6.25794 10.2474 6.26474C10.2606 6.31794 10.2798 6.27314 10.2938 6.24874L10.311 6.24954C10.3162 6.27794 10.321 6.27074 10.3258 6.25034L10.4886 6.25794C10.5038 6.31714 10.519 6.35154 10.5346 6.25994L10.5526 6.26074C10.5622 6.30874 10.5718 6.35954 10.5818 6.36914C10.6162 6.40314 10.6514 6.45074 10.6846 6.29394C10.6874 6.28034 10.6902 6.27474 10.693 6.26714L10.7234 6.26874C10.7442 6.31554 10.7646 6.41514 10.7854 6.34634C10.8058 6.28074 10.953 6.33634 10.977 6.28114L10.9774 6.28034L11.0558 6.28434C11.0678 6.32754 11.0798 6.32394 11.0914 6.27794L11.5702 6.19474C11.585 6.21714 11.6178 6.16034 11.6222 6.15514C11.6486 6.12714 11.6934 6.05194 11.6994 5.59994C11.7034 5.30034 11.6902 5.03674 11.6202 5.03674Z" fill="#FF1261"/>
<path fill-rule="evenodd" clip-rule="evenodd" d="M5.59012 0.803944C5.63132 0.845544 5.67612 0.883544 5.72172 0.920744C5.74012 0.936344 5.76572 0.945544 5.78572 0.959944C5.80772 0.975144 5.90932 1.01634 5.92092 1.03874C5.93252 1.06194 5.94972 1.07914 6.01372 1.04914C6.05892 1.02794 6.14532 0.963544 6.02612 1.10594C6.09292 1.09554 6.04212 1.20394 6.19212 1.11034L6.21652 1.13434C6.20252 1.16354 6.19372 1.18794 6.21132 1.18594C6.22572 1.18434 6.25492 1.20794 6.24652 1.22954C6.23452 1.26234 6.24452 1.27314 6.25692 1.28114C6.26932 1.28954 6.26372 1.31554 6.21292 1.38634C6.34492 1.27834 6.22412 1.42234 6.23132 1.43834C6.23772 1.45234 6.33372 1.37594 6.37452 1.35554C6.39452 1.34554 6.39892 1.35234 6.37532 1.38554C6.23532 1.58314 6.58412 1.43594 6.52812 1.50474C6.45892 1.58994 6.42972 1.63554 6.46292 1.62034C6.49372 1.60594 6.59332 1.52114 6.54132 1.59194C6.50732 1.63754 6.64492 1.56114 6.63492 1.58714C6.62692 1.60914 6.68172 1.56954 6.64812 1.61434C6.52132 1.78554 6.61612 1.73554 6.64252 1.75354C6.66092 1.76634 6.69612 1.76194 6.71292 1.77594C6.76612 1.81954 6.81252 1.86954 6.86612 1.91234C6.87372 1.91834 6.89052 1.91594 6.93092 1.88794C6.94132 1.88114 6.94732 1.87874 6.95572 1.87354L6.99092 1.90914C6.94492 1.99154 6.94012 2.03314 7.04612 1.96394L7.08252 2.00074C7.08012 2.00914 7.08332 2.01234 7.09172 2.00994L7.93972 2.85754C7.92852 2.87394 7.91492 2.89314 7.89652 2.91674C7.85572 2.96914 7.95372 2.95914 7.92212 3.00354C7.89852 3.03714 8.09132 2.93234 8.01412 3.02674C7.93372 3.12514 8.04132 3.03474 8.05212 3.04034C8.03532 3.06074 8.02412 3.07554 8.02532 3.07954C8.03092 3.10154 8.03052 3.12914 8.03932 3.14834C8.04692 3.16434 8.09212 3.14314 8.17012 3.08794L8.28172 3.19954C8.26692 3.22354 8.26532 3.23474 8.27372 3.23634C8.29692 3.23994 8.28052 3.28434 8.33692 3.25474L8.41092 3.32874C8.41332 3.33314 8.41652 3.33674 8.42092 3.33914L8.94052 3.85834C8.90692 3.91234 8.94492 3.89514 8.97132 3.88914L8.98812 3.90594C8.98492 3.91394 8.97932 3.92394 8.96892 3.93914C8.94012 3.98114 9.02292 4.00034 9.07572 3.99394L9.52812 4.44594C9.55292 4.48194 9.58412 4.51154 9.61572 4.54034C9.60732 4.56394 9.62892 4.55874 9.60932 4.59394C9.59612 4.61834 9.62212 4.60234 9.65652 4.57874C9.68332 4.60514 9.70772 4.63434 9.72492 4.67034C9.73252 4.66674 9.73772 4.66514 9.74412 4.66234L9.76572 4.68394C9.75292 4.71514 9.74572 4.74114 9.79372 4.71154L9.85252 4.77074C9.86572 4.79314 9.88452 4.80634 9.88692 4.80874L9.88732 4.80914C9.91132 4.90274 9.97012 4.96394 10.0345 5.01794C10.1049 5.07794 10.3465 5.37914 10.4145 5.45394C10.4773 5.52314 10.5349 5.59674 10.5993 5.66394C10.7529 5.82594 10.9073 5.98714 11.0653 6.14474C11.1989 6.27834 11.4105 6.11674 11.6145 5.89714C11.9225 5.56634 11.8905 5.42794 11.8601 5.35754C11.8549 5.34554 11.8329 5.24274 11.7889 5.23074L10.9345 4.25874C10.9445 4.20394 10.9241 4.17874 10.8705 4.18594L10.7189 4.03954L10.7185 4.03794C10.7117 3.95354 10.3913 3.71154 10.3993 3.62674C10.4077 3.53834 10.2989 3.56994 10.2261 3.56354L10.1669 3.50594C10.1665 3.49554 10.1653 3.48594 10.1693 3.47114C10.2173 3.29714 10.1161 3.26314 10.0269 3.22194C10.0017 3.21034 9.94972 3.22674 9.89892 3.24234C9.89732 3.23914 9.89572 3.23714 9.89492 3.23634C9.84532 3.19954 9.78612 3.17274 9.73452 3.13794C9.72572 3.13274 9.68572 3.08114 9.66172 3.08074C9.62852 3.07994 9.60572 2.96754 9.54052 2.99794C9.43652 3.04674 9.43572 2.99314 9.53132 2.84314C9.55092 2.81234 9.48812 2.80154 9.47132 2.80194C9.45052 2.80154 9.50052 2.69154 9.48532 2.69634C9.45932 2.70514 9.41492 2.73274 9.38532 2.74554C9.37372 2.75034 9.36772 2.64034 9.30572 2.65114C9.29412 2.65314 9.29412 2.58514 9.28852 2.56674C9.28372 2.55114 9.26772 2.54634 9.25372 2.53994C9.23932 2.53354 9.13812 2.46434 9.13252 2.45994C9.08372 2.42234 9.03372 2.38674 8.97612 2.35794C8.96732 2.35354 8.93652 2.36994 8.88732 2.40634C8.83452 2.44554 8.90772 2.27074 8.86212 2.27874C8.89772 2.21234 8.90572 2.17314 8.91772 2.12994C8.93172 2.08234 8.91332 2.06594 8.88932 2.05594C8.86532 2.04554 8.81652 2.05994 8.77892 2.06354C8.65852 2.16674 8.75692 2.05274 8.77012 2.02274C8.77812 2.00474 8.74572 1.99234 8.72972 1.98874C8.71572 1.98554 8.70772 1.97674 8.69012 1.97674C8.68052 1.97714 8.54252 1.83674 8.52452 1.83434C8.48852 1.82914 8.49412 1.78154 8.41572 1.81954C8.36932 1.84194 8.34372 1.84554 8.40052 1.76554C8.43372 1.71834 8.52972 1.54514 8.51972 1.53474C8.51252 1.52674 8.47692 1.49794 8.33932 1.61234C8.29772 1.64674 8.33052 1.60314 8.34052 1.58394C8.38852 1.51874 8.39572 1.49354 8.31412 1.55634C8.37492 1.47794 8.20172 1.63434 8.23892 1.58154C8.28572 1.51434 8.21132 1.56794 8.25772 1.50274C8.31532 1.42034 8.30732 1.40554 8.18292 1.50674C8.09692 1.57674 8.08692 1.56954 8.14252 1.49674C8.18452 1.44234 8.22812 1.38514 8.22892 1.37074C8.22972 1.33594 8.21092 1.31994 8.19212 1.30434C8.18612 1.30034 8.17772 1.29714 8.12612 1.33994C7.98892 1.45394 7.97132 1.45034 8.08012 1.31754C8.13292 1.25314 8.12012 1.25034 8.11132 1.24554C8.10012 1.23954 8.05972 1.26314 8.03772 1.26794C8.01532 1.27314 7.96252 1.30914 7.92012 1.33514C7.88052 1.35914 7.94612 1.27594 7.96092 1.24394C7.96412 1.23754 7.95892 1.23914 7.93972 1.25514C7.78092 1.39194 7.94492 1.20314 7.83892 1.28634C7.97572 1.10194 7.88452 1.14594 7.74852 1.23434C7.71332 1.25714 7.73932 1.21634 7.68692 1.25554C7.81412 1.11314 7.66852 1.24074 7.71492 1.17874C7.78772 1.08274 7.77492 1.07194 7.75692 1.06594C7.67252 1.03714 7.60092 0.994744 7.52892 0.953144C7.52012 0.947944 7.40332 0.864344 7.33012 0.861144L7.13532 0.638344C7.13812 0.633144 7.14092 0.627944 7.14492 0.621944C7.17572 0.577944 7.13452 0.599944 7.11012 0.610344L7.10212 0.601144C7.11972 0.578344 7.11252 0.581144 7.09532 0.593144L7.01932 0.506344C7.05372 0.456744 7.07012 0.425144 6.99772 0.481544L6.98932 0.471944C7.01852 0.433544 7.04972 0.392744 7.05172 0.381144C7.05812 0.339944 7.07452 0.288744 6.94692 0.383144C6.93612 0.391144 6.93052 0.393944 6.92372 0.397544L6.90972 0.381144C6.93252 0.337544 6.99252 0.257144 6.93332 0.295544C6.87692 0.331544 6.84252 0.218744 6.79172 0.245544H6.79092L6.75452 0.203944C6.77892 0.167544 6.77052 0.163944 6.73212 0.190744L6.43372 0.0103437C6.44252 -0.0132563 6.38612 0.0107437 6.38012 0.0119437C6.34692 0.0187437 6.27132 0.0495437 5.94892 0.365944C5.73492 0.575944 5.55532 0.769144 5.59012 0.803944Z" fill="#FF1261"/>
<path fill-rule="evenodd" clip-rule="evenodd" d="M6.6896 11.9241C6.7308 11.8829 6.7688 11.8381 6.8064 11.7929C6.822 11.7741 6.8312 11.7489 6.8456 11.7285C6.8608 11.7065 6.902 11.6053 6.9244 11.5933C6.9472 11.5821 6.9652 11.5649 6.9348 11.5005C6.9136 11.4557 6.8492 11.3689 6.9916 11.4881C6.9812 11.4213 7.0896 11.4721 6.996 11.3221L7.02 11.2977C7.0492 11.3117 7.074 11.3205 7.0716 11.3029C7.07 11.2885 7.0936 11.2597 7.1152 11.2677C7.1476 11.2797 7.1588 11.2697 7.1668 11.2573C7.1752 11.2449 7.2012 11.2505 7.272 11.3013C7.164 11.1693 7.308 11.2905 7.324 11.2829C7.338 11.2769 7.2616 11.1805 7.2412 11.1397C7.2312 11.1197 7.2376 11.1153 7.2708 11.1389C7.4688 11.2789 7.3216 10.9301 7.3904 10.9861C7.4756 11.0553 7.5212 11.0845 7.506 11.0517C7.4916 11.0209 7.4068 10.9209 7.4772 10.9733C7.5232 11.0073 7.4468 10.8697 7.4728 10.8793C7.4948 10.8873 7.4548 10.8325 7.5 10.8661C7.6708 10.9929 7.6208 10.8981 7.6392 10.8717C7.652 10.8537 7.6476 10.8181 7.6616 10.8013C7.7048 10.7481 7.7548 10.7017 7.798 10.6481C7.804 10.6409 7.8016 10.6241 7.774 10.5833C7.7668 10.5729 7.764 10.5669 7.7592 10.5585L7.7948 10.5233C7.8772 10.5693 7.9188 10.5741 7.8496 10.4685L7.886 10.4317C7.8948 10.4341 7.8976 10.4309 7.8956 10.4225L8.7432 9.57446C8.7596 9.58566 8.7788 9.59926 8.8024 9.61806C8.8548 9.65846 8.8448 9.56086 8.8892 9.59206C8.9228 9.61566 8.818 9.42326 8.9124 9.50006C9.0108 9.58046 8.92 9.47326 8.926 9.46206C8.946 9.47886 8.9612 9.49006 8.9652 9.48926C8.9872 9.48326 9.0148 9.48366 9.034 9.47486C9.05 9.46726 9.0288 9.42246 8.974 9.34406L9.0852 9.23246C9.1092 9.24726 9.1204 9.24886 9.1216 9.24086C9.126 9.21726 9.17 9.23366 9.1404 9.17726L9.2144 9.10326C9.2188 9.10086 9.2224 9.09766 9.2248 9.09326L9.744 8.57406C9.798 8.60726 9.7808 8.56966 9.7748 8.54286L9.7916 8.52606C9.7996 8.52926 9.8096 8.53486 9.8252 8.54526C9.8668 8.57406 9.886 8.49126 9.8796 8.43846L10.3316 7.98606C10.3676 7.96126 10.3972 7.93046 10.426 7.89846C10.4496 7.90686 10.4444 7.88526 10.4796 7.90486C10.504 7.91806 10.488 7.89206 10.4644 7.85766C10.4908 7.83086 10.52 7.80646 10.556 7.78926C10.5524 7.78206 10.5508 7.77686 10.548 7.77006L10.5692 7.74846C10.6008 7.76126 10.6268 7.76846 10.5972 7.72086L10.6564 7.66166C10.6788 7.64886 10.692 7.63006 10.6944 7.62766L10.6948 7.62686C10.7884 7.60286 10.8496 7.54406 10.9036 7.47966C10.9636 7.40926 11.2648 7.16806 11.3396 7.09966C11.4088 7.03686 11.4824 6.97926 11.5496 6.91526C11.7116 6.76126 11.8724 6.60686 12.0304 6.44886C12.164 6.31566 12.0024 6.10406 11.7828 5.89966C11.452 5.59166 11.3136 5.62406 11.2432 5.65406C11.2308 5.65966 11.1284 5.68166 11.1164 5.72526L10.1444 6.57966C10.0892 6.56966 10.0644 6.59006 10.0716 6.64366L9.9252 6.79526L9.9236 6.79566C9.8392 6.80246 9.5972 7.12286 9.5124 7.11486C9.424 7.10646 9.4556 7.21566 9.4492 7.28806L9.3916 7.34766C9.3808 7.34766 9.3716 7.34886 9.3568 7.34486C9.1828 7.29726 9.1492 7.39806 9.1076 7.48766C9.096 7.51246 9.1124 7.56446 9.1276 7.61566C9.1248 7.61686 9.1224 7.61846 9.122 7.61926C9.0856 7.66926 9.0584 7.72806 9.024 7.78006C9.0184 7.78846 8.9668 7.82846 8.9664 7.85246C8.9656 7.88606 8.8532 7.90846 8.8836 7.97406C8.9328 8.07766 8.8788 8.07846 8.7288 7.98286C8.698 7.96326 8.6872 8.02606 8.6876 8.04326C8.6872 8.06366 8.5772 8.01366 8.582 8.02886C8.5908 8.05486 8.6184 8.09926 8.6312 8.12926C8.636 8.14046 8.526 8.14646 8.5368 8.20846C8.5388 8.22046 8.4708 8.22006 8.4524 8.22566C8.4368 8.23046 8.432 8.24646 8.4256 8.26086C8.4192 8.27486 8.35 8.37606 8.3456 8.38166C8.308 8.43046 8.272 8.48086 8.2436 8.53806C8.2388 8.54726 8.2556 8.57766 8.292 8.62726C8.3308 8.67966 8.1564 8.60686 8.164 8.65206C8.098 8.61646 8.0592 8.60846 8.0156 8.59646C7.968 8.58246 7.9516 8.60086 7.9416 8.62486C7.9312 8.64886 7.9456 8.69766 7.9492 8.73566C8.0524 8.85566 7.9384 8.75726 7.9084 8.74406C7.8904 8.73606 7.878 8.76846 7.8744 8.78446C7.8712 8.79846 7.862 8.80686 7.8624 8.82406C7.8628 8.83366 7.7224 8.97166 7.72 8.98966C7.7148 9.02566 7.6672 9.02006 7.7052 9.09846C7.7276 9.14486 7.7312 9.17046 7.6512 9.11406C7.604 9.08046 7.4308 8.98446 7.4204 8.99446C7.4124 9.00166 7.3836 9.03726 7.498 9.17486C7.5328 9.21646 7.4888 9.18366 7.4692 9.17406C7.404 9.12566 7.3792 9.11846 7.442 9.20006C7.3636 9.13966 7.52 9.31246 7.4672 9.27526C7.4 9.22886 7.4536 9.30286 7.388 9.25686C7.306 9.19886 7.2912 9.20686 7.3924 9.33126C7.4624 9.41726 7.4552 9.42726 7.3824 9.37166C7.328 9.33006 7.2708 9.28646 7.2568 9.28566C7.2212 9.28446 7.2056 9.30326 7.1904 9.32246C7.1856 9.32806 7.1828 9.33686 7.2256 9.38806C7.3396 9.52526 7.336 9.54286 7.2032 9.43406C7.1388 9.38166 7.136 9.39406 7.1312 9.40286C7.1256 9.41406 7.1488 9.45446 7.1536 9.47646C7.1588 9.49886 7.1948 9.55166 7.2208 9.59406C7.2448 9.63366 7.1616 9.56806 7.1296 9.55326C7.1236 9.55006 7.1248 9.55566 7.1412 9.57446C7.2776 9.73326 7.0888 9.56926 7.172 9.67526C6.9876 9.53886 7.0316 9.62966 7.12 9.76566C7.1428 9.80126 7.102 9.77486 7.1412 9.82726C6.9988 9.70006 7.1264 9.84606 7.0648 9.79926C6.9684 9.72646 6.958 9.73926 6.9516 9.75726C6.9224 9.84166 6.8804 9.91326 6.8388 9.98526C6.8336 9.99406 6.75 10.1113 6.7468 10.1841L6.5244 10.3793C6.5188 10.3761 6.5136 10.3737 6.5076 10.3693C6.4636 10.3385 6.4856 10.3797 6.496 10.4041L6.4864 10.4121C6.464 10.3945 6.4668 10.4021 6.4788 10.4189L6.392 10.4949C6.3424 10.4605 6.3108 10.4441 6.3672 10.5165L6.358 10.5249C6.3192 10.4961 6.2784 10.4649 6.2668 10.4629C6.2256 10.4561 6.1744 10.4401 6.2688 10.5673C6.2768 10.5785 6.2792 10.5837 6.2832 10.5905L6.2668 10.6049C6.2232 10.5821 6.1428 10.5217 6.1808 10.5809C6.2172 10.6373 6.104 10.6717 6.1312 10.7225L6.1316 10.7233L6.09 10.7597C6.0532 10.7353 6.0496 10.7437 6.0764 10.7825L5.8956 11.0805C5.8724 11.0717 5.8964 11.1285 5.8976 11.1341C5.9044 11.1673 5.9352 11.2429 6.2516 11.5657C6.4616 11.7793 6.6544 11.9593 6.6896 11.9241Z" fill="#FF1261"/>
</g>
</g>
</svg>
