<svg width="10" height="16" viewBox="0 0 10 16" fill="none" xmlns="http://www.w3.org/2000/svg">
<path fill-rule="evenodd" clip-rule="evenodd" d="M0.847881 1.70082C0.894681 1.74222 0.951081 1.77463 0.999681 1.81483C1.05308 1.85803 1.28108 1.99542 1.31708 2.04762C1.35248 2.10042 1.39688 2.14542 1.51208 2.11782C1.59188 2.09922 1.73408 2.01522 1.56728 2.24082C1.69808 2.25582 1.65248 2.44902 1.90748 2.33862L1.96988 2.40102C1.95728 2.45262 1.95248 2.49763 1.98668 2.50243C2.01608 2.50723 2.08748 2.57082 2.08268 2.61042C2.07548 2.67042 2.10128 2.69802 2.13068 2.72143C2.16068 2.74482 2.16308 2.79462 2.09828 2.91162C2.30828 2.76222 2.13968 2.99083 2.16308 3.02743C2.18288 3.05863 2.33828 2.95542 2.41028 2.93562C2.44568 2.92602 2.45828 2.94162 2.42768 2.99682C2.24888 3.32382 2.88008 3.21163 2.80268 3.32142C2.70788 3.45823 2.67248 3.53502 2.73128 3.52182C2.78648 3.50922 2.94428 3.39043 2.87588 3.50563C2.83148 3.58063 3.07028 3.49902 3.06428 3.54702C3.06008 3.58662 3.14948 3.53502 3.10568 3.60942C2.93948 3.88902 3.10568 3.83803 3.16928 3.88902C3.21308 3.92502 3.28208 3.93522 3.32468 3.97302L3.70928 4.33242C3.72788 4.34862 3.76028 4.35223 3.82868 4.31803C3.84608 4.31083 3.85628 4.30662 3.87068 4.30122L3.96188 4.39243C3.91208 4.53582 3.92468 4.61802 4.10288 4.53342L4.19708 4.62762C4.19648 4.64383 4.20488 4.65163 4.22108 4.65163L6.40088 6.83143C6.38708 6.85903 6.36968 6.89083 6.34448 6.92923C6.28988 7.01383 6.48368 7.04563 6.44348 7.11943C6.41348 7.17523 6.74948 7.06542 6.64328 7.21602C6.53228 7.37322 6.70208 7.24602 6.72788 7.26402C6.70448 7.29582 6.69008 7.32102 6.69428 7.33003C6.71708 7.37743 6.73148 7.43383 6.75968 7.47703C6.78428 7.51423 7.23458 7.6518 7.23359 7.66611C7.23293 7.67565 7.05496 7.85362 6.69968 8.20003C6.60848 8.16043 6.62288 8.22823 6.62048 8.27923L6.57728 8.32242C6.56288 8.32002 6.54548 8.31462 6.51968 8.30142C6.45008 8.26482 6.36728 8.44303 6.35168 8.54803L5.18888 9.71082C5.10248 9.78043 5.02568 9.85962 4.95008 9.94003C4.90628 9.93583 4.90508 9.97662 4.84388 9.95562C4.80188 9.94123 4.81988 9.98623 4.84988 10.0432C4.78148 10.1122 4.70948 10.1776 4.62668 10.2316C4.62908 10.2454 4.63088 10.2544 4.63268 10.267L4.57748 10.3222C4.52048 10.3126 4.47188 10.312 4.50608 10.3936L4.35428 10.5454C4.30208 10.5838 4.26428 10.6294 4.25828 10.6354C4.05368 10.7356 3.89828 10.888 3.75308 11.0482C3.59348 11.224 2.85068 11.8768 2.66168 12.0556L2.13548 12.5434L0.907281 13.75C0.564081 14.0932 0.778881 14.4376 1.11668 14.7358C1.62608 15.1852 1.92488 15.0454 2.08388 14.9464C2.11208 14.929 2.33228 14.8294 2.38028 14.7334L4.81688 12.4732C4.92308 12.4648 4.98548 12.4096 4.99928 12.304L5.37848 11.9176L5.38148 11.9158C5.55728 11.8564 6.22148 11.0746 6.39008 11.0458C6.56528 11.0158 6.55988 10.8106 6.61148 10.6594L6.76028 10.507C6.78248 10.5016 6.80168 10.4938 6.82988 10.4938C7.15868 10.498 7.28108 10.2748 7.41368 10.0702C7.45088 10.0132 7.44488 9.91603 7.44068 9.82063C7.44788 9.81523 7.45508 9.80923 7.45508 9.80923C7.55588 9.68863 7.64288 9.55422 7.74068 9.43003C7.75628 9.40963 7.88288 9.30043 7.89668 9.25183C7.91588 9.18283 8.15768 9.07663 8.13008 8.96023C8.08568 8.77543 8.19608 8.74423 8.45048 8.85883C8.50268 8.88223 8.55788 8.74842 8.56628 8.71422C8.57768 8.67222 8.77508 8.71482 8.77328 8.68662C8.76908 8.63863 8.73668 8.56303 8.72708 8.50903C8.72288 8.48863 8.95028 8.41722 8.96168 8.29663C8.96288 8.28703 8.98808 8.27503 9.02828 8.25403C9.16928 8.18023 9.23768 8.02303 9.20528 7.87543L9.02828 7.07683C9.02108 7.04203 9.00368 6.98563 8.99168 6.96223C8.97308 6.92803 8.93828 6.90942 8.90528 6.88902C8.87528 6.86562 8.63108 6.67243 8.61608 6.66103C8.49668 6.55903 8.37548 6.45883 8.24348 6.36943C8.22248 6.35563 8.16908 6.37302 8.08808 6.42042C8.00168 6.47202 8.05748 6.15582 7.96928 6.14682C8.00588 6.03162 8.00108 5.95603 8.00288 5.87503C8.00528 5.78503 7.95908 5.74183 7.90448 5.70823C7.85048 5.67463 7.75928 5.67763 7.68368 5.66503C7.49468 5.81083 7.63328 5.63083 7.64468 5.57743C7.65128 5.54503 7.57868 5.50243 7.54388 5.48623C7.51388 5.47242 7.49228 5.44963 7.45748 5.44062C7.43768 5.43642 7.08188 5.07643 7.04348 5.06203C6.96728 5.03202 6.95348 4.93843 6.81428 4.97323C6.73148 4.99363 6.68168 4.98763 6.75368 4.85502C6.79628 4.77763 6.89888 4.47583 6.87308 4.44943C6.85448 4.42963 6.76688 4.35162 6.54788 4.51062C6.48128 4.55922 6.52508 4.48782 6.53468 4.45363C6.59708 4.34623 6.59888 4.29882 6.46628 4.38342C6.54788 4.25622 6.27968 4.48182 6.32648 4.39423C6.38588 4.28263 6.26348 4.35223 6.32228 4.24303C6.39608 4.10683 6.37148 4.07263 6.17288 4.21183C6.03488 4.30842 6.01148 4.28863 6.08528 4.17042C6.14108 4.08162 6.19928 3.98862 6.19328 3.96042C6.17588 3.88902 6.12968 3.84702 6.08228 3.80502C6.06848 3.79302 6.04928 3.78282 5.96768 3.84223C5.74928 4.00063 5.71148 3.98382 5.86148 3.77143C5.93468 3.66882 5.90768 3.65682 5.88728 3.64242C5.86088 3.62442 5.79128 3.65023 5.74928 3.64843C5.70608 3.64663 5.61848 3.69222 5.54588 3.72162C5.47808 3.74922 5.56688 3.61542 5.58008 3.55842C5.58308 3.54702 5.57288 3.54702 5.54288 3.56982C5.29268 3.76302 5.52548 3.46662 5.35448 3.57882C5.53388 3.27702 5.37188 3.31782 5.14268 3.42462C5.08268 3.45283 5.11448 3.38322 5.02868 3.43483C5.21048 3.21343 4.98248 3.39462 5.04428 3.29443C5.14088 3.13722 5.10968 3.10903 5.06948 3.08683C4.88168 2.98183 4.71368 2.85763 4.54448 2.73463C4.52348 2.71903 4.24088 2.48682 4.09088 2.44062L3.57428 1.88322C3.57788 1.87362 3.58028 1.86462 3.58508 1.85502C3.62468 1.78122 3.55268 1.80462 3.50888 1.81242L3.48728 1.78902C3.51068 1.75302 3.49748 1.75422 3.46928 1.76982L3.26768 1.55262C3.31148 1.46982 3.32768 1.41403 3.21068 1.49083L3.18848 1.46682C3.22688 1.40382 3.26888 1.33722 3.26648 1.31442C3.25808 1.23462 3.26348 1.13862 3.05408 1.26222C3.03668 1.27302 3.02708 1.27542 3.01508 1.27962L2.97728 1.23883C3.00068 1.16203 3.07988 1.03062 2.98028 1.07682C2.88428 1.12002 2.75408 0.871625 2.66468 0.899225L2.56688 0.795425C2.59688 0.733625 2.57828 0.722225 2.51408 0.755825L1.81028 0.228425C1.81508 0.185825 1.71308 0.204425 1.70168 0.203225C1.63808 0.199625 1.50068 0.221825 1.01348 0.692825C0.690681 1.00542 0.427881 1.30242 0.517881 1.39242C0.624081 1.49862 0.735681 1.60002 0.847881 1.70082Z" fill="white"/>
</svg>
