<svg xmlns="http://www.w3.org/2000/svg" width="17" height="10" viewBox="0 0 17 10" fill="none">
  <path fill-rule="evenodd" clip-rule="evenodd" d="M0.983622 2.36489C1.03042 2.40689 1.08682 2.43869 1.13542 2.47889C1.18882 2.52209 1.41682 2.65949 1.45342 2.71169C1.48882 2.76449 1.53262 2.80949 1.64782 2.78249C1.72762 2.76329 1.86982 2.67929 1.70302 2.90489C1.83382 2.91989 1.78882 3.11309 2.04322 3.00269L2.10562 3.06509C2.09302 3.11669 2.08822 3.16229 2.12302 3.16649C2.15182 3.17189 2.22322 3.23489 2.21842 3.27449C2.21122 3.33449 2.23702 3.36209 2.26642 3.38549C2.29702 3.40889 2.29942 3.45869 2.23402 3.57569C2.44462 3.42629 2.27542 3.65489 2.29882 3.69149C2.31862 3.72269 2.47402 3.61949 2.54602 3.59969C2.58142 3.59009 2.59402 3.60569 2.56402 3.66089C2.38462 3.98789 3.01582 3.87569 2.93902 3.98549C2.84362 4.12229 2.80822 4.19909 2.86762 4.18589C2.92222 4.17329 3.08002 4.05449 3.01222 4.16969C2.96722 4.24469 3.20602 4.16309 3.20062 4.21109C3.19582 4.25069 3.28582 4.19909 3.24142 4.27349C3.07582 4.55309 3.24142 4.50209 3.30502 4.55309C3.34882 4.58909 3.41842 4.59929 3.46042 4.63709L3.84502 4.99649C3.86362 5.01269 3.89602 5.01629 3.96442 4.98209C3.98242 4.97489 3.99202 4.97129 4.00642 4.96529L4.09762 5.05649C4.04782 5.19989 4.06102 5.28269 4.23862 5.19749L4.33282 5.29169C4.33282 5.30789 4.34062 5.31569 4.35682 5.31569L6.53662 7.49549C6.52282 7.52369 6.50542 7.55489 6.48022 7.59329C6.42562 7.67789 6.61942 7.70969 6.57922 7.78349C6.54922 7.83929 6.88522 7.72889 6.77902 7.88009C6.66802 8.03729 6.83842 7.91009 6.86422 7.92809C6.84082 7.96049 6.82582 7.98509 6.83002 7.99409C6.85342 8.04149 6.86722 8.09789 6.89542 8.14109C6.92002 8.17829 6.99982 8.15849 7.12942 8.08889L7.41622 8.37509C7.39942 8.41649 7.40182 8.43749 7.41922 8.44529C7.46902 8.46569 7.45942 8.54729 7.55842 8.51729L7.74862 8.70809C7.75582 8.71769 7.76482 8.72669 7.77502 8.73389L7.97302 8.93189C8.30602 9.26489 8.84542 9.26489 9.17842 8.93189L10.316 7.79489C10.4072 7.83449 10.3928 7.76609 10.3952 7.71569L10.4384 7.67249C10.4528 7.67429 10.4702 7.68029 10.496 7.69349C10.5656 7.72949 10.649 7.55129 10.664 7.44629L11.8274 6.28349C11.9132 6.21389 11.99 6.13469 12.0662 6.05429C12.1094 6.05849 12.1106 6.01769 12.1718 6.03869C12.2138 6.05309 12.1958 6.00809 12.1658 5.95109C12.2342 5.88209 12.3062 5.81669 12.389 5.76269C12.3866 5.74889 12.3848 5.73989 12.383 5.72789L12.4382 5.67269C12.4952 5.68169 12.5438 5.68289 12.5096 5.60129L12.6614 5.44889C12.7142 5.41049 12.7514 5.36549 12.7568 5.35949C12.962 5.25869 13.1174 5.10689 13.2626 4.94609C13.4222 4.77089 14.165 4.11809 14.354 3.93869L14.8802 3.45089L16.1084 2.24429C16.4516 1.90109 16.2368 1.55669 15.899 1.25909C15.3902 0.80969 15.0908 0.948891 14.9318 1.04789C14.9036 1.06529 14.6834 1.16549 14.6354 1.26089L12.1988 3.52109C12.0926 3.52949 12.0302 3.58469 12.0164 3.69029L11.6372 4.07669L11.6342 4.07849C11.4584 4.13789 10.7942 4.91969 10.6256 4.94849C10.4504 4.97909 10.4558 5.18369 10.4042 5.33549L10.2554 5.48729C10.2332 5.49329 10.214 5.50049 10.1858 5.50049C9.85702 5.49629 9.73462 5.72009 9.60202 5.92469C9.56542 5.98109 9.57082 6.07829 9.57502 6.17369C9.56782 6.17909 9.56062 6.18509 9.56062 6.18509C9.45982 6.30569 9.37282 6.44069 9.27502 6.56429C9.25942 6.58469 9.13282 6.69389 9.11902 6.74249C9.09982 6.81149 8.85802 6.91829 8.88622 7.03469C8.93002 7.21949 8.81962 7.25009 8.56582 7.13609C8.51302 7.11269 8.51182 7.12289 8.37922 7.03409C8.35822 7.01969 8.30482 7.03709 8.22382 7.08449C8.13802 7.13609 8.19322 6.81989 8.10502 6.81149C8.14162 6.69569 8.13682 6.62069 8.13862 6.53909C8.14102 6.44909 8.09542 6.40589 8.04082 6.37229C7.98622 6.33869 7.89502 6.34169 7.81942 6.32909C7.63042 6.47489 7.76902 6.29489 7.78042 6.24149C7.78702 6.20909 7.71442 6.16649 7.67962 6.15029C7.64962 6.13649 7.62862 6.11369 7.59322 6.10469C7.57342 6.10049 7.21762 5.74049 7.17922 5.72609C7.10362 5.69609 7.08922 5.60249 6.95002 5.63789C6.86722 5.65829 6.81742 5.65169 6.89002 5.51969C6.93202 5.44169 7.03462 5.13989 7.00882 5.11349C6.99022 5.09369 6.90262 5.01569 6.68362 5.17529C6.61702 5.22329 6.66082 5.15189 6.67042 5.11709C6.73282 5.01029 6.73462 4.96289 6.60202 5.04749C6.68362 4.92029 6.41542 5.14649 6.46222 5.05829C6.52162 4.94669 6.39922 5.01569 6.45802 4.90769C6.53182 4.77089 6.50782 4.73669 6.30862 4.87589C6.17062 4.97249 6.14722 4.95269 6.22102 4.83449C6.27682 4.74569 6.33502 4.65269 6.32902 4.62449C6.31222 4.55309 6.26542 4.51109 6.21862 4.46969C6.20422 4.45709 6.18562 4.44689 6.10342 4.50629C5.88562 4.66469 5.84722 4.64789 5.99782 4.43549C6.07042 4.33289 6.04342 4.32089 6.02302 4.30649C5.99722 4.28849 5.92762 4.31429 5.88502 4.31249C5.84182 4.31069 5.75422 4.35629 5.68162 4.38569C5.61382 4.41329 5.70262 4.27949 5.71642 4.22249C5.71882 4.21169 5.70862 4.21109 5.67862 4.23449C5.42842 4.42709 5.66122 4.13069 5.49022 4.24289C5.66962 3.94109 5.50762 3.98189 5.27842 4.08869C5.21842 4.11689 5.25022 4.04729 5.16442 4.09889C5.34682 3.87749 5.11822 4.05869 5.18062 3.95849C5.27662 3.80129 5.24542 3.77309 5.20522 3.75089C5.01742 3.64649 4.85002 3.52229 4.68082 3.39929C4.65982 3.38309 4.37722 3.15089 4.22662 3.10469L3.71062 2.54729C3.71362 2.53769 3.71602 2.52869 3.72142 2.51909C3.76042 2.44589 3.68842 2.46869 3.64462 2.47649L3.62302 2.45309C3.64702 2.41649 3.63322 2.41829 3.60502 2.43389L3.40342 2.21669C3.44722 2.13389 3.46402 2.07809 3.34642 2.15489L3.32482 2.13089C3.36322 2.06789 3.40462 2.00129 3.40222 1.97849C3.39382 1.89869 3.39922 1.80269 3.19042 1.92629C3.17242 1.93709 3.16282 1.93949 3.15142 1.94369L3.11362 1.90289C3.13642 1.82609 3.21562 1.69469 3.11602 1.74089C3.02062 1.78469 2.88982 1.53569 2.80102 1.56329L2.70262 1.45949C2.73262 1.39769 2.71402 1.38629 2.64982 1.41989L1.94602 0.89249C1.95142 0.84989 1.84882 0.86789 1.83742 0.86729C1.77382 0.86369 1.63642 0.88589 1.14982 1.35749C0.826422 1.67009 0.563622 1.96649 0.653622 2.05649C0.760422 2.16269 0.871422 2.26409 0.983622 2.36489Z" fill="black"/>
</svg>