<svg width="9" height="16" viewBox="0 0 9 16" fill="none" xmlns="http://www.w3.org/2000/svg">
<path fill-rule="evenodd" clip-rule="evenodd" d="M0.347881 1.70058C0.394681 1.74198 0.451081 1.77438 0.499681 1.81458C0.553081 1.85778 0.781081 1.99518 0.817081 2.04738C0.852481 2.10018 0.896881 2.14518 1.01208 2.11758C1.09188 2.09898 1.23408 2.01498 1.06728 2.24058C1.19808 2.25558 1.15248 2.44878 1.40748 2.33838L1.46988 2.40078C1.45728 2.45238 1.45248 2.49738 1.48668 2.50218C1.51608 2.50698 1.58748 2.57058 1.58268 2.61018C1.57548 2.67018 1.60128 2.69778 1.63068 2.72118C1.66068 2.74458 1.66308 2.79438 1.59828 2.91138C1.80828 2.76198 1.63968 2.99058 1.66308 3.02718C1.68288 3.05838 1.83828 2.95518 1.91028 2.93538C1.94568 2.92578 1.95828 2.94138 1.92768 2.99658C1.74888 3.32358 2.38008 3.21138 2.30268 3.32118C2.20788 3.45798 2.17248 3.53478 2.23128 3.52158C2.28648 3.50898 2.44428 3.39018 2.37588 3.50538C2.33148 3.58038 2.57028 3.49878 2.56428 3.54678C2.56008 3.58638 2.64948 3.53478 2.60568 3.60918C2.43948 3.88878 2.60568 3.83778 2.66928 3.88878C2.71308 3.92478 2.78208 3.93498 2.82468 3.97278L3.20928 4.33218C3.22788 4.34838 3.26028 4.35198 3.32868 4.31778C3.34608 4.31058 3.35628 4.30638 3.37068 4.30098L3.46188 4.39218C3.41208 4.53558 3.42468 4.61778 3.60288 4.53318L3.69708 4.62738C3.69648 4.64358 3.70488 4.65138 3.72108 4.65138L5.90088 6.83118C5.88708 6.85878 5.86968 6.89058 5.84448 6.92898C5.78988 7.01358 5.98368 7.04538 5.94348 7.11918C5.91348 7.17498 6.24948 7.06518 6.14328 7.21578C6.03228 7.37298 6.20208 7.24578 6.22788 7.26378C6.20448 7.29558 6.19008 7.32078 6.19428 7.32978C6.21708 7.37718 6.23148 7.43358 6.25968 7.47678C6.28428 7.51398 6.73458 7.65156 6.73359 7.66587C6.73293 7.67541 6.55496 7.85338 6.19968 8.19978C6.10848 8.16018 6.12288 8.22798 6.12048 8.27898L6.07728 8.32218C6.06288 8.31978 6.04548 8.31438 6.01968 8.30118C5.95008 8.26458 5.86728 8.44278 5.85168 8.54778L4.68888 9.71058C4.60248 9.78018 4.52568 9.85938 4.45008 9.93978C4.40628 9.93558 4.40508 9.97638 4.34388 9.95538C4.30188 9.94098 4.31988 9.98598 4.34988 10.043C4.28148 10.112 4.20948 10.1774 4.12668 10.2314C4.12908 10.2452 4.13088 10.2542 4.13268 10.2668L4.07748 10.322C4.02048 10.3124 3.97188 10.3118 4.00608 10.3934L3.85428 10.5452C3.80208 10.5836 3.76428 10.6292 3.75828 10.6352C3.55368 10.7354 3.39828 10.8878 3.25308 11.048C3.09348 11.2238 2.35068 11.8766 2.16168 12.0554L1.63548 12.5432L0.407281 13.7498C0.0640812 14.093 0.278881 14.4374 0.616681 14.7356C1.12608 15.185 1.42488 15.0452 1.58388 14.9462C1.61208 14.9288 1.83228 14.8292 1.88028 14.7332L4.31688 12.473C4.42308 12.4646 4.48548 12.4094 4.49928 12.3038L4.87848 11.9174L4.88148 11.9156C5.05728 11.8562 5.72148 11.0744 5.89008 11.0456C6.06528 11.0156 6.05988 10.8104 6.11148 10.6592L6.26028 10.5068C6.28248 10.5014 6.30168 10.4936 6.32988 10.4936C6.65868 10.4978 6.78108 10.2746 6.91368 10.07C6.95088 10.013 6.94488 9.91578 6.94068 9.82038C6.94788 9.81498 6.95508 9.80898 6.95508 9.80898C7.05588 9.68838 7.14288 9.55398 7.24068 9.42978C7.25628 9.40938 7.38288 9.30018 7.39668 9.25158C7.41588 9.18258 7.65768 9.07638 7.63008 8.95998C7.58568 8.77518 7.69608 8.74398 7.95048 8.85858C8.00268 8.88198 8.05788 8.74818 8.06628 8.71398C8.07768 8.67198 8.27508 8.71458 8.27328 8.68638C8.26908 8.63838 8.23668 8.56278 8.22708 8.50878C8.22288 8.48838 8.45028 8.41698 8.46168 8.29638C8.46288 8.28678 8.48808 8.27478 8.52828 8.25378C8.66928 8.17998 8.73768 8.02278 8.70528 7.87518L8.52828 7.07658C8.52108 7.04178 8.50368 6.98538 8.49168 6.96198C8.47308 6.92778 8.43828 6.90918 8.40528 6.88878C8.37528 6.86538 8.13108 6.67218 8.11608 6.66078C7.99668 6.55878 7.87548 6.45858 7.74348 6.36918C7.72248 6.35538 7.66908 6.37278 7.58808 6.42018C7.50168 6.47178 7.55748 6.15558 7.46928 6.14658C7.50588 6.03138 7.50108 5.95578 7.50288 5.87478C7.50528 5.78478 7.45908 5.74158 7.40448 5.70798C7.35048 5.67438 7.25928 5.67738 7.18368 5.66478C6.99468 5.81058 7.13328 5.63058 7.14468 5.57718C7.15128 5.54478 7.07868 5.50218 7.04388 5.48598C7.01388 5.47218 6.99228 5.44938 6.95748 5.44038C6.93768 5.43618 6.58188 5.07618 6.54348 5.06178C6.46728 5.03178 6.45348 4.93818 6.31428 4.97298C6.23148 4.99338 6.18168 4.98738 6.25368 4.85478C6.29628 4.77738 6.39888 4.47558 6.37308 4.44918C6.35448 4.42938 6.26688 4.35138 6.04788 4.51038C5.98128 4.55898 6.02508 4.48758 6.03468 4.45338C6.09708 4.34598 6.09888 4.29858 5.96628 4.38318C6.04788 4.25598 5.77968 4.48158 5.82648 4.39398C5.88588 4.28238 5.76348 4.35198 5.82228 4.24278C5.89608 4.10658 5.87148 4.07238 5.67288 4.21158C5.53488 4.30818 5.51148 4.28838 5.58528 4.17018C5.64108 4.08138 5.69928 3.98838 5.69328 3.96018C5.67588 3.88878 5.62968 3.84678 5.58228 3.80478C5.56848 3.79278 5.54928 3.78258 5.46768 3.84198C5.24928 4.00038 5.21148 3.98358 5.36148 3.77118C5.43468 3.66858 5.40768 3.65658 5.38728 3.64218C5.36088 3.62418 5.29128 3.64998 5.24928 3.64818C5.20608 3.64638 5.11848 3.69198 5.04588 3.72138C4.97808 3.74898 5.06688 3.61518 5.08008 3.55818C5.08308 3.54678 5.07288 3.54678 5.04288 3.56958C4.79268 3.76278 5.02548 3.46638 4.85448 3.57858C5.03388 3.27678 4.87188 3.31758 4.64268 3.42438C4.58268 3.45258 4.61448 3.38298 4.52868 3.43458C4.71048 3.21318 4.48248 3.39438 4.54428 3.29418C4.64088 3.13698 4.60968 3.10878 4.56948 3.08658C4.38168 2.98158 4.21368 2.85738 4.04448 2.73438C4.02348 2.71878 3.74088 2.48658 3.59088 2.44038L3.07428 1.88298C3.07788 1.87338 3.08028 1.86438 3.08508 1.85478C3.12468 1.78098 3.05268 1.80438 3.00888 1.81218L2.98728 1.78878C3.01068 1.75278 2.99748 1.75398 2.96928 1.76958L2.76768 1.55238C2.81148 1.46958 2.82768 1.41378 2.71068 1.49058L2.68848 1.46658C2.72688 1.40358 2.76888 1.33698 2.76648 1.31418C2.75808 1.23438 2.76348 1.13838 2.55408 1.26198C2.53668 1.27278 2.52708 1.27518 2.51508 1.27938L2.47728 1.23858C2.50068 1.16178 2.57988 1.03038 2.48028 1.07658C2.38428 1.11978 2.25408 0.871381 2.16468 0.898981L2.06688 0.795181C2.09688 0.733381 2.07828 0.721981 2.01408 0.755581L1.31028 0.228181C1.31508 0.185581 1.21308 0.204181 1.20168 0.202981C1.13808 0.199381 1.00068 0.221581 0.513481 0.692581C0.190681 1.00518 -0.0721189 1.30218 0.0178811 1.39218C0.124081 1.49838 0.235681 1.59978 0.347881 1.70058Z" fill="black"/>
</svg>
