<svg width="18" height="18" viewBox="0 0 18 18" fill="none" xmlns="http://www.w3.org/2000/svg">
<path fill-rule="evenodd" clip-rule="evenodd" d="M12.5281 9.93412C12.4707 9.90524 12.4109 9.88053 12.3506 9.85667C12.3257 9.84704 12.2966 9.84536 12.2704 9.83741C12.2421 9.82862 12.1236 9.81857 12.1033 9.79973C12.0829 9.78005 12.0592 9.76749 12.0043 9.81815C11.9661 9.85374 11.9008 9.94543 11.9711 9.76456C11.9062 9.79554 11.9183 9.67035 11.7994 9.81187L11.7657 9.7947C11.7691 9.76079 11.7691 9.73357 11.752 9.74153C11.7375 9.74739 11.6997 9.73274 11.6997 9.70803C11.7001 9.67161 11.6859 9.66365 11.6706 9.65905C11.6543 9.65444 11.6506 9.62639 11.6768 9.5393C11.5812 9.68961 11.6523 9.50581 11.639 9.49199C11.6273 9.47985 11.5571 9.58703 11.5226 9.62011C11.506 9.63686 11.4989 9.63141 11.5109 9.59038C11.5816 9.34712 11.2786 9.6042 11.3106 9.51711C11.3501 9.40951 11.3634 9.35424 11.3351 9.37978C11.3089 9.40407 11.2378 9.52088 11.2653 9.43337C11.2832 9.37643 11.1705 9.4966 11.1709 9.46687C11.1713 9.44258 11.1298 9.49995 11.1476 9.44384C11.2146 9.23115 11.136 9.31154 11.1023 9.30149C11.0791 9.29395 11.0446 9.30944 11.0221 9.30023L10.8151 9.21021C10.8051 9.20645 10.7893 9.2144 10.7578 9.2546C10.749 9.26464 10.7445 9.27009 10.7378 9.2772L10.6883 9.2525C10.7058 9.15453 10.695 9.11098 10.6123 9.21398L10.5611 9.18844C10.5607 9.17881 10.5562 9.17672 10.5483 9.18216L9.36942 8.58846C9.37566 8.56837 9.38272 8.54492 9.39228 8.51477C9.41473 8.44946 9.3183 8.48965 9.33409 8.43481C9.34573 8.39336 9.18694 8.55999 9.23142 8.44025C9.27756 8.31548 9.20066 8.44067 9.18736 8.43815C9.1911 8.42727 9.19443 8.41806 9.19734 8.4101L9.56894 9.01511C9.57975 9.01343 9.5864 9.01134 9.58765 9.00924C9.5997 8.98789 9.62007 8.96612 9.62755 8.94477C9.63379 8.92551 9.58515 8.9075 9.48747 8.88908V8.71449C9.51574 8.70737 9.52488 8.69983 9.51989 8.6923C9.50576 8.67094 9.55065 8.64917 9.48747 8.62782V8.51226C9.48872 8.50682 9.48872 8.50138 9.48747 8.49635V7.68284C9.55149 7.66693 9.51117 7.6506 9.48747 7.63469V7.60832C9.49537 7.60455 9.50701 7.60078 9.52613 7.59701C9.57767 7.58738 9.53112 7.50741 9.48747 7.47099V6.76257C9.49537 6.71526 9.49412 6.66753 9.49204 6.62021C9.51574 6.60807 9.4962 6.59551 9.5361 6.58337C9.56395 6.575 9.5332 6.56662 9.49038 6.55825C9.49038 6.51638 9.49371 6.47451 9.50742 6.43306C9.49953 6.42929 9.49454 6.4272 9.48747 6.42427V6.39077C9.51989 6.3757 9.54442 6.36146 9.48747 6.34723V6.25428C9.49412 6.22707 9.49038 6.20153 9.49038 6.19818L9.48997 6.19734C9.54151 6.10481 9.54317 6.01144 9.53569 5.91849C9.52779 5.81633 9.57185 5.39137 9.57684 5.27916L9.59513 4.97059L9.60594 4.22951C9.60594 4.02017 9.33201 3.98081 9.02068 3.99295C8.55097 4.01137 8.47283 4.14452 8.44373 4.22323C8.43833 4.23705 8.3793 4.3346 8.40258 4.37814L8.31612 5.80838C8.26832 5.84313 8.26499 5.87914 8.30989 5.91556L8.31363 6.14835L8.3128 6.15003C8.25543 6.22162 8.31363 6.66208 8.24504 6.72196C8.17396 6.78476 8.27705 6.84547 8.32568 6.90743L8.32734 6.99871C8.31945 7.00708 8.31363 7.01546 8.29991 7.02383C8.13697 7.12264 8.18602 7.22815 8.22135 7.33073C8.23132 7.3592 8.28162 7.38725 8.33025 7.41488C8.32984 7.41865 8.32901 7.42284 8.32901 7.42284C8.33857 7.49025 8.36226 7.55766 8.37473 7.62506C8.37681 7.63637 8.36849 7.70796 8.38595 7.7268C8.41006 7.7536 8.34397 7.85953 8.41463 7.88674C8.52645 7.92987 8.48779 7.97257 8.30698 8.01528C8.26998 8.02407 8.30822 8.08185 8.32111 8.09441C8.33607 8.11074 8.21844 8.15805 8.2334 8.16601C8.25876 8.17941 8.31155 8.19239 8.34272 8.2062C8.35478 8.21123 8.27871 8.30208 8.33192 8.34228C8.34189 8.34981 8.29201 8.40257 8.28245 8.42141C8.27455 8.43774 8.28287 8.45365 8.28869 8.46997C8.29409 8.4863 8.31737 8.61945 8.31861 8.6274C8.32693 8.69523 8.33732 8.76222 8.35852 8.82963C8.36184 8.84051 8.39634 8.8514 8.45953 8.86145C8.52686 8.87233 8.3448 8.95147 8.38387 8.98119C8.34896 8.99208 8.32277 9.0038 8.30074 9.01511L8.63037 9.55228C8.63203 9.58075 8.63328 9.6042 8.63452 9.62932C8.63826 9.68207 8.66279 9.69338 8.69147 9.69589C8.71973 9.69882 8.76421 9.6691 8.80162 9.6536C8.88683 9.51167 8.82822 9.65779 8.82531 9.69212C8.82365 9.71264 8.86148 9.71515 8.87935 9.71389C8.89473 9.71306 8.90637 9.71934 8.92383 9.71389C8.9338 9.71055 9.12626 9.80977 9.14579 9.80642C9.18487 9.80056 9.19609 9.84997 9.2626 9.78717C9.30208 9.75032 9.32702 9.73902 9.29834 9.83741C9.2813 9.89519 9.2468 10.1008 9.26052 10.1083C9.27091 10.1137 9.31788 10.1322 9.41681 9.97348C9.44674 9.92533 9.42928 9.97976 9.42637 10.0028C9.40101 10.0836 9.40268 10.1112 9.46336 10.022C9.42969 10.1204 9.54941 9.90817 9.53112 9.97306C9.50784 10.0555 9.56396 9.97809 9.54068 10.0589C9.51158 10.1606 9.5253 10.1728 9.61591 10.0313C9.67826 9.93371 9.69073 9.93789 9.66039 10.0287C9.63794 10.097 9.61425 10.1686 9.61841 10.1832C9.63046 10.2193 9.6554 10.2293 9.68076 10.2389C9.68824 10.2414 9.6978 10.2419 9.73479 10.1824C9.83372 10.0246 9.85326 10.0225 9.79049 10.1908C9.76015 10.2728 9.77387 10.2712 9.78467 10.2733C9.79839 10.2758 9.83123 10.2393 9.85201 10.2276C9.8728 10.2155 9.91353 10.1623 9.94762 10.1234C9.97962 10.0865 9.94304 10.1912 9.9393 10.228C9.93847 10.2352 9.94346 10.2322 9.95676 10.21C10.0694 10.0225 9.97089 10.2645 10.0486 10.1472C9.9763 10.3767 10.0536 10.3034 10.1604 10.1719C10.1883 10.1372 10.1762 10.187 10.2157 10.1309C10.1376 10.3147 10.2402 10.1401 10.2149 10.2172C10.1758 10.3373 10.1924 10.344 10.2136 10.3444C10.3105 10.3478 10.399 10.3683 10.4884 10.3876C10.4992 10.3905 10.6497 10.4382 10.7253 10.419L11.0067 10.5835L11.003 10.6032C10.9876 10.6576 11.0217 10.6224 11.0429 10.6044L11.0541 10.6111C11.0446 10.6396 11.0512 10.6346 11.0641 10.617L11.1738 10.6811C11.1568 10.7418 11.1514 10.7795 11.205 10.6991L11.2171 10.7062C11.2013 10.7543 11.1846 10.8054 11.1867 10.818C11.195 10.8615 11.1975 10.9185 11.2931 10.7832C11.3023 10.7723 11.3064 10.7677 11.3114 10.7615L11.3322 10.7736C11.3247 10.8247 11.2927 10.9247 11.3393 10.8678C11.3837 10.8138 11.4602 10.9172 11.5026 10.8741L11.503 10.8737L11.5558 10.9042C11.5442 10.949 11.5542 10.9499 11.5837 10.9109L11.9553 11.0005C11.9549 11.0269 12.0039 10.985 12.0097 10.9821C12.0409 10.9649 12.107 10.9101 12.3215 10.4893C12.4632 10.21 12.5767 9.95883 12.5281 9.93412Z" fill="#4F575E"/>
<path fill-rule="evenodd" clip-rule="evenodd" d="M17.9985 8.60507C17.9836 8.3928 17.9856 8.17885 17.952 7.96825L17.8489 7.33771C17.8264 7.16144 17.7624 6.99396 17.7163 6.82272C17.688 6.73061 17.6203 6.51038 17.5529 6.29224C17.4656 6.08039 17.38 5.87188 17.3538 5.78815C17.3006 5.62067 17.2453 5.44943 17.1015 5.32466C17.0051 5.23506 16.8575 5.18356 16.9797 4.9939C16.8151 4.7565 16.7615 4.44667 16.4606 4.29846L16.3338 4.08953C16.3226 4.00496 16.2976 3.92708 16.2386 3.87433C16.1895 3.82743 16.0295 3.61809 16.0058 3.55026C15.9701 3.44726 15.9077 3.36185 15.8429 3.28021C15.7735 3.20108 15.7207 3.1119 15.7203 2.97624C15.507 3.00387 15.5739 2.78616 15.497 2.69153C15.4297 2.61282 15.2763 2.61994 15.167 2.58644C15.1146 2.56844 15.0751 2.52992 15.0681 2.4667C15.0427 2.28164 14.7879 2.06308 14.5194 1.91989C14.2492 1.77628 13.9952 1.67161 13.9957 1.61425C13.9969 1.4698 13.9578 1.37686 13.8601 1.36136C13.7699 1.34504 13.6332 1.42082 13.602 1.29563C13.58 1.21273 13.2371 1.18886 13.1814 1.12397C13.1319 1.0687 13.0313 1.10178 13.0059 1.02348C12.9045 0.729146 12.6485 0.724122 12.4444 0.632848C12.2972 0.576325 12.1376 0.55246 11.9905 0.499287C11.5349 0.322601 11.0569 0.212486 10.5809 0.115769C10.5128 0.106139 10.44 0.10907 10.3669 0.148845C10.3482 0.158894 10.3311 0.163081 10.3132 0.170198L9.96243 0.116606C9.79616 -0.0136053 9.60578 -0.0437507 9.41707 0.0722256L9.05253 0.0542221C9.02177 0.0445923 8.9906 0.0429175 8.95984 0.0496165C7.54948 0.0357998 6.1387 0.381636 4.87881 1.01888C3.61019 1.64775 2.52322 2.61533 1.69147 3.76002C1.65905 3.76965 1.6233 3.77719 1.58256 3.78054C1.48197 3.7818 1.30947 4.20299 1.23216 4.23272C1.17064 4.25742 1.12533 4.7431 0.980262 4.76152C0.824387 4.78246 0.915834 4.92774 0.88258 5.00604C0.85099 5.00855 0.825218 5.01776 0.812333 5.03953C0.741253 5.16053 0.661861 5.27902 0.594938 5.40295C0.534667 5.51097 0.547137 5.64621 0.594938 5.79108L0.404147 6.3182C0.351773 6.4974 0.309375 6.67953 0.261989 6.8604C0.222916 6.8985 0.202132 6.94288 0.19465 6.99145C0.171373 7.12711 0.0982154 7.25564 0.143939 7.40302C0.107776 7.64837 0.0653777 7.89372 0.0366966 8.13991C0.0333713 8.17341 0.0317086 8.20732 0.0312929 8.24123C-0.0464369 9.10959 0.0233953 9.98297 0.178024 10.8392C0.36549 11.6908 0.663939 12.5139 1.06589 13.2864C1.06132 13.4053 1.1511 13.4752 1.22467 13.5519L1.31197 13.6967C1.31737 13.721 1.31986 13.7478 1.31612 13.778C1.31155 13.819 1.38346 13.9458 1.48197 14.0798C1.58922 14.2071 1.7189 14.3444 1.80619 14.4244C2.70279 15.6453 3.93608 16.5953 5.30653 17.2187C5.57713 17.3556 5.86976 17.4431 6.15366 17.5507C6.21809 17.6022 6.30164 17.6043 6.3669 17.6621C6.41138 17.7027 6.47165 17.686 6.53358 17.6579C6.79379 17.7182 7.04693 17.8116 7.31005 17.8543L7.36866 17.843L7.58107 17.8761C7.66794 17.9225 7.75772 17.9606 7.85541 17.9175C8.04952 17.9535 8.24738 17.946 8.44316 17.9615C8.61899 17.9774 8.77985 17.9812 8.80271 17.982H8.8077C9.10116 18.0113 9.3992 17.9975 9.69765 17.9912C9.99526 17.9745 10.29 17.9121 10.5838 17.8673C10.7468 17.8468 11.0278 17.7597 11.3774 17.6768C11.554 17.6403 11.7361 17.5667 11.9298 17.4997C12.1202 17.4256 12.3288 17.3715 12.5196 17.2744C12.7133 17.1836 12.9078 17.0923 13.0953 17.0044C13.2811 16.9135 13.4478 16.8013 13.6078 16.71C13.9316 16.5317 14.1711 16.3378 14.3178 16.2319C14.8565 15.8417 15.3362 15.374 15.7755 14.8732C16.2773 14.2523 16.742 13.5887 17.0649 12.8514C17.2545 12.4959 17.3626 12.1053 17.5076 11.731L17.6598 11.1473C17.7146 10.9539 17.7566 10.7575 17.7807 10.5574C17.9021 9.88542 17.8231 9.47301 17.7321 9.25195C17.6352 9.03004 17.491 8.99068 17.3335 9.02711C16.8521 9.14392 16.764 9.89337 16.6397 10.3263C16.6277 10.3636 16.6011 10.5193 16.5449 10.6893C16.4884 10.8593 16.4306 11.049 16.4115 11.172C16.047 12.4666 15.3075 13.6352 14.3698 14.5768C13.4037 15.4891 12.2332 16.2009 10.948 16.5178C10.7464 16.5158 10.5606 16.5744 10.3706 16.6522L9.73339 16.7519C9.51933 16.7728 9.30359 16.777 9.08911 16.7912L9.08038 16.7908C8.98104 16.79 8.75533 16.7745 8.46685 16.7527C8.17713 16.7494 7.8313 16.6891 7.48671 16.6347C7.14378 16.5719 6.80959 16.4726 6.54273 16.391C6.28169 16.2884 6.08425 16.2063 6.01317 16.162C5.86353 16.0736 5.71638 15.9928 5.55219 15.9442C5.39174 15.8898 5.21675 15.8597 5.0617 15.7839L4.62692 15.5197C4.59034 15.49 4.55542 15.4594 4.52632 15.4175C4.17966 14.9624 3.71037 14.6455 3.30717 14.2448C3.19536 14.1351 3.05403 14.0564 2.91312 13.9706C2.90148 13.9538 2.89233 13.9404 2.88818 13.9345C2.65707 13.639 2.40476 13.3559 2.21147 13.0293C2.19526 13.003 2.1354 12.9037 2.07222 12.7995C2.0107 12.6944 1.96082 12.5772 1.92798 12.534C1.88476 12.4712 1.81326 12.2979 1.73678 12.1279C1.66611 11.955 1.61 11.7766 1.54848 11.7184C1.45412 11.6238 1.39468 11.5141 1.37016 11.3944C1.35436 11.2717 1.37972 11.1373 1.43708 10.9995C1.46161 10.9426 1.34272 10.6424 1.31446 10.5737C1.28661 10.4862 1.36351 10.207 1.34231 10.1664C1.30615 10.0977 1.24255 10.0324 1.20015 9.96246C1.16731 9.93566 1.22384 9.42319 1.15817 9.20128C1.15276 9.17993 1.15651 9.09494 1.16648 9.00283C1.18352 8.91071 1.20181 8.81149 1.21137 8.75999C1.22384 8.67039 1.2201 8.57995 1.21886 8.48993C1.19433 8.3974 1.28703 7.66051 1.29368 7.61572C1.30822 7.42731 1.36476 7.24685 1.40175 7.06221C1.44456 6.87883 1.47158 6.69042 1.53476 6.51206C1.55222 6.45511 1.54058 6.38645 1.50068 6.31067C1.45786 6.22693 1.7771 5.87188 1.82531 5.71529C1.95126 5.62528 2.04022 5.51893 2.13374 5.41761C2.23516 5.30498 2.32121 5.18482 2.38522 5.05126C2.45464 4.92146 2.48415 4.76487 2.54608 4.62671C2.45464 4.47389 2.62548 4.50612 2.69281 4.46928C2.73396 4.44583 2.83788 4.28129 2.88153 4.20676C2.91977 4.14228 2.96175 4.08116 3.00415 4.01961C3.01787 4.00454 3.22445 3.77049 3.4352 3.53142C3.66797 3.31454 3.90656 3.09389 3.93524 3.05872C4.0562 2.92307 4.22995 2.85357 4.31932 2.67479C4.37419 2.57137 4.43903 2.49056 4.5787 2.51736C4.66557 2.53411 5.05339 2.53118 5.12364 2.48805C5.1756 2.45079 5.40546 2.31178 5.41585 2.10914C5.41835 2.0455 5.48652 2.07564 5.53266 2.07732C5.63657 2.11961 5.71264 2.10956 5.74174 1.97642C5.85147 2.0388 5.81656 1.78005 5.908 1.81564C6.02273 1.86337 6.07136 1.7453 6.17943 1.79345C6.31494 1.85416 6.40389 1.82653 6.44588 1.63309C6.47539 1.50162 6.54356 1.4652 6.64457 1.5414C6.71939 1.59583 6.79587 1.65319 6.85406 1.64942C7.00287 1.63895 7.14337 1.60002 7.28428 1.56024C7.32626 1.54852 7.37157 1.53009 7.39485 1.45808C7.45803 1.2613 7.55363 1.23618 7.68415 1.39695C7.74692 1.47525 7.80927 1.45808 7.8658 1.44594C7.93729 1.43128 8.0038 1.37309 8.07488 1.34169C8.14554 1.30945 8.21122 1.24664 8.28063 1.19096C8.34589 1.14072 8.43069 1.24664 8.50426 1.27763C8.51881 1.28349 8.53627 1.27805 8.54666 1.25125C8.63603 1.02767 8.75242 1.28307 8.84844 1.13778C9.05752 1.37644 9.25163 1.29437 9.47526 1.13695C9.53346 1.09633 9.59331 1.14909 9.65816 1.08419C9.70638 1.28265 9.8053 1.10178 9.86225 1.18928C9.94954 1.32912 10.0468 1.34252 10.1528 1.35006C10.4014 1.35676 10.6433 1.40533 10.8856 1.45724C11.0066 1.4832 11.13 1.50246 11.2497 1.53554L11.6047 1.64858C11.6708 1.65068 12.4847 1.98018 12.7964 2.11877C13.0567 2.28415 13.3252 2.43697 13.5617 2.63627C13.6831 2.73131 13.8082 2.82175 13.9262 2.92014L14.2633 3.23625C14.2671 3.24839 14.2721 3.26053 14.2725 3.271C14.2779 3.35097 14.3722 3.37316 14.4358 3.39744C14.4554 3.41377 14.4712 3.43345 14.4882 3.45271C14.4824 3.49039 14.5015 3.50044 14.5306 3.50127C14.6869 3.68424 14.8548 3.85674 15.0024 4.04641C14.9945 4.13977 15.0057 4.21472 15.1221 4.21221L15.1687 4.27627C15.1541 4.34032 15.1367 4.40564 15.1541 4.44583C15.2169 4.58693 15.2659 4.73389 15.4725 4.77283C15.4908 4.77576 15.502 4.7833 15.5149 4.78958L15.5835 4.90681C15.5897 5.01148 15.5457 5.13876 15.655 5.18105C15.7751 5.2158 15.9863 5.83629 16.0898 5.90454L16.0914 5.90621C16.1376 6.01131 16.1696 6.12226 16.2095 6.23028C16.1854 6.29643 16.2066 6.34416 16.2694 6.37682C16.4202 6.69795 16.493 7.04588 16.6031 7.38376C16.6435 7.55668 16.6717 7.73211 16.7075 7.9067C16.7445 8.0813 16.7765 8.25673 16.7852 8.4355C16.7652 8.50208 16.8313 8.64485 16.8376 8.66578C16.8729 8.7826 16.9614 8.98105 17.4324 9.01204C17.7446 9.03255 18.016 8.96766 17.9985 8.60507Z" fill="#4F575E"/>
</svg>
