<svg width="24" height="24" viewBox="0 0 24 24" fill="none" xmlns="http://www.w3.org/2000/svg">
<path fill-rule="evenodd" clip-rule="evenodd" d="M22.1511 19.7625C22.0077 19.6191 21.8596 19.4839 21.7082 19.3486C21.6454 19.2922 21.5697 19.2486 21.5037 19.1955C21.4328 19.1375 21.1268 18.9523 21.0785 18.8831C21.0302 18.8122 20.9705 18.751 20.8175 18.7881C20.7096 18.8139 20.5196 18.9265 20.7435 18.6237C20.5679 18.6028 20.6275 18.3452 20.2861 18.4934L20.2023 18.4096C20.2184 18.3388 20.2264 18.279 20.1797 18.2726C20.1411 18.2662 20.0445 18.1808 20.0509 18.1277C20.0606 18.0472 20.0251 18.0101 19.9865 17.9795C19.9462 17.9472 19.943 17.8797 20.03 17.7235C19.7482 17.9232 19.9752 17.6171 19.943 17.5672C19.9156 17.5253 19.7079 17.6655 19.6112 17.6912C19.5645 17.7041 19.5468 17.6831 19.5871 17.6091C19.827 17.1694 18.9815 17.3208 19.0845 17.1726C19.2118 16.9906 19.2585 16.8859 19.1796 16.9052C19.1055 16.9213 18.8945 17.0809 18.9863 16.9262C19.0459 16.8248 18.7254 16.9358 18.7334 16.8714C18.7382 16.8166 18.6191 16.8859 18.6771 16.7876C18.9009 16.4108 18.6787 16.48 18.5933 16.4107C18.5337 16.364 18.4403 16.3496 18.3839 16.2997C18.2084 16.1418 18.0441 15.9726 17.8685 15.8164C17.8428 15.7939 17.7993 15.7892 17.7075 15.8359C17.685 15.8472 17.6704 15.8502 17.6511 15.8583L17.5287 15.736C17.5964 15.5443 17.5787 15.4331 17.3387 15.5459L17.2131 15.4203C17.2131 15.3977 17.2018 15.388 17.1808 15.388L14.2545 12.4618C14.2738 12.4247 14.2979 12.3827 14.3302 12.3312C14.4042 12.2185 14.1449 12.1749 14.198 12.075C14.2383 12.0009 13.7873 12.1492 13.9291 11.9463C14.0789 11.7353 13.8501 11.9059 13.8163 11.8818C13.8469 11.8383 13.8679 11.8062 13.8614 11.7933C13.8308 11.7305 13.8115 11.6547 13.7745 11.5967C13.7406 11.5468 13.6344 11.5727 13.4588 11.6661L13.0754 11.2811C13.098 11.2264 13.0948 11.1974 13.0706 11.1878C13.0046 11.1604 13.0175 11.0508 12.8838 11.091L12.6278 10.835C12.6181 10.8222 12.6068 10.8093 12.5939 10.8012L10.8013 9.00859C10.8544 8.88458 10.7627 8.90545 10.695 8.90223L10.637 8.84423C10.6403 8.8249 10.6467 8.80079 10.6645 8.76697C10.7144 8.67355 10.4744 8.56083 10.3343 8.53989L8.77362 6.97924C8.6786 6.86489 8.57384 6.76185 8.46593 6.65878C8.47077 6.6008 8.416 6.59916 8.445 6.51702C8.46432 6.46065 8.40312 6.48482 8.32743 6.52509C8.23401 6.43328 8.14711 6.33659 8.07302 6.22546C8.0553 6.23029 8.04243 6.2303 8.02633 6.23352L7.95221 6.1594C7.96509 6.08209 7.96667 6.01773 7.85715 6.06444L7.65258 5.85997C7.60104 5.78911 7.53992 5.73905 7.53187 5.731L7.53019 5.72943C7.39813 5.45563 7.19365 5.24779 6.97783 5.05291C6.74269 4.8387 5.86645 3.84189 5.62647 3.58742C5.40421 3.3555 5.19487 3.11232 4.97099 2.88201C4.43467 2.32958 3.89673 1.77864 3.35235 1.23426C2.89172 0.772026 2.42955 1.06205 2.02851 1.51462C1.42616 2.19751 1.61291 2.5984 1.74658 2.8126C1.76913 2.84965 1.90281 3.14611 2.03166 3.21053L5.06438 6.47987C5.07727 6.62321 5.1514 6.70708 5.29313 6.72641L5.81177 7.23365L5.81335 7.23856C5.89227 7.47532 6.94233 8.36592 6.98098 8.5914C7.02125 8.82815 7.29669 8.8202 7.49962 8.88945L7.70419 9.089C7.71224 9.11799 7.72188 9.14393 7.72188 9.18259C7.71705 9.62389 8.01666 9.78807 8.29046 9.96684C8.36777 10.0152 8.49814 10.0071 8.62538 10.0022C8.63182 10.0119 8.63828 10.0201 8.6415 10.0217C8.80256 10.157 8.98295 10.2728 9.14884 10.4049C9.17622 10.4258 9.32276 10.5965 9.38879 10.6143C9.4806 10.64 9.62401 10.9639 9.78023 10.9269C10.0283 10.8689 10.0701 11.017 9.91707 11.3568C9.88486 11.4277 10.0652 11.5017 10.1103 11.5129C10.1667 11.529 10.1103 11.7932 10.1474 11.79C10.2118 11.7851 10.3133 11.7417 10.3858 11.7288C10.4132 11.724 10.5098 12.0285 10.6709 12.0446C10.7015 12.0478 10.7498 12.233 10.7788 12.2862C10.8029 12.3329 10.8496 12.3569 10.8931 12.3843C10.9366 12.4133 11.2636 12.6743 11.2813 12.692C11.4424 12.8289 11.605 12.9625 11.7822 13.0816C11.8095 13.101 11.882 13.0784 11.9915 13.014C12.1059 12.9448 12.0318 13.37 12.151 13.3813C12.1011 13.5359 12.1075 13.6374 12.1059 13.747C12.1026 13.8678 12.1638 13.924 12.2363 13.9691C12.3104 14.0158 12.4328 14.011 12.5327 14.0287C12.7872 13.8322 12.602 14.0738 12.5859 14.1447C12.5778 14.1882 12.6744 14.2462 12.7211 14.2672C12.7614 14.2865 12.7904 14.317 12.8371 14.3283C12.8629 14.3348 13.3412 14.818 13.3927 14.8373C13.4942 14.8776 13.5135 15.0032 13.7003 14.9565C13.8115 14.9291 13.8792 14.9372 13.7809 15.1143C13.7246 15.219 13.5861 15.6249 13.6215 15.6603C13.6473 15.6861 13.7648 15.7908 14.058 15.5766C14.1465 15.5121 14.0885 15.6087 14.0756 15.6538C13.9919 15.7972 13.9887 15.8615 14.1675 15.7488C14.0579 15.9195 14.4187 15.6151 14.3559 15.7327C14.2754 15.8824 14.4396 15.7908 14.3607 15.9358C14.2625 16.1194 14.2947 16.1661 14.562 15.9776C14.7473 15.8488 14.7778 15.8744 14.6779 16.0339C14.6039 16.153 14.5266 16.2771 14.5346 16.3158C14.5572 16.4108 14.62 16.4688 14.6829 16.5236C14.7022 16.5397 14.7264 16.5542 14.8375 16.4737C15.129 16.2611 15.1805 16.2852 14.9791 16.5686C14.8809 16.7071 14.9179 16.7233 14.9453 16.7426C14.9792 16.7668 15.0725 16.7329 15.1305 16.7346C15.1869 16.7362 15.3061 16.6749 15.4027 16.6363C15.4945 16.5992 15.3754 16.7796 15.356 16.8553C15.3528 16.8698 15.3673 16.8698 15.4075 16.8392C15.7425 16.5815 15.4301 16.9793 15.6588 16.8279C15.4188 17.2322 15.6363 17.1791 15.9439 17.0342C16.0244 16.9971 15.9826 17.0905 16.0969 17.0212C15.8521 17.3176 16.1581 17.0745 16.076 17.2097C15.9472 17.4207 15.989 17.4577 16.0422 17.4883C16.2934 17.6285 16.5189 17.7959 16.746 17.9602C16.775 17.9811 17.1535 18.2936 17.3564 18.3548L18.0489 19.1036C18.0441 19.1165 18.0409 19.1295 18.0345 19.1408C17.9813 19.2407 18.0779 19.2101 18.1375 19.1988L18.1649 19.2293C18.1343 19.2792 18.1521 19.2776 18.1891 19.255L18.4596 19.5482C18.4017 19.6593 18.3792 19.7334 18.537 19.6303L18.5659 19.6626C18.5144 19.7479 18.4597 19.8365 18.4629 19.8671C18.4742 19.975 18.466 20.104 18.7463 19.9365C18.7704 19.9236 18.7834 19.9203 18.7995 19.9138L18.8494 19.9685C18.8188 20.0716 18.7125 20.2472 18.8462 20.1859C18.975 20.128 19.1506 20.4615 19.2697 20.4244H19.2714L19.4019 20.5644C19.36 20.6466 19.3857 20.6628 19.4711 20.6161L20.4165 21.3247C20.4101 21.3827 20.5469 21.3569 20.5614 21.3585C20.6484 21.3633 20.8321 21.3328 21.486 20.7014C21.9192 20.2811 22.2719 19.8833 22.1511 19.7625Z" fill="black"/>
<path fill-rule="evenodd" clip-rule="evenodd" d="M3.10038 21.9758C3.24372 21.8324 3.37904 21.6842 3.51433 21.5328C3.5707 21.47 3.61414 21.3944 3.66729 21.3284C3.72527 21.2575 3.91054 20.9514 3.97979 20.9031C4.05066 20.8548 4.11189 20.7952 4.07485 20.6422C4.04908 20.5343 3.93632 20.3442 4.23911 20.5681C4.25844 20.3925 4.51773 20.4522 4.36956 20.1108L4.45331 20.027C4.52418 20.0431 4.58371 20.0511 4.59015 20.0044C4.59659 19.9658 4.682 19.8692 4.73514 19.8756C4.81567 19.8853 4.85268 19.8498 4.88329 19.8112C4.9155 19.7709 4.98314 19.7676 5.13936 19.8546C4.93965 19.5728 5.24574 19.7999 5.29566 19.7677C5.33754 19.7403 5.19738 19.5325 5.17161 19.4358C5.15872 19.3891 5.1797 19.3714 5.25379 19.4117C5.69348 19.6516 5.54208 18.8063 5.69025 18.9093C5.87224 19.0366 5.97686 19.0832 5.95753 19.0043C5.94143 18.9302 5.78208 18.7192 5.93669 18.811C6.03816 18.8706 5.92702 18.5501 5.99145 18.5582C6.04621 18.5646 5.97695 18.4438 6.0752 18.5018C6.45208 18.7256 6.38274 18.5034 6.45199 18.418C6.4987 18.3584 6.51324 18.265 6.56317 18.2086C6.72101 18.0331 6.8901 17.8689 7.04633 17.6933C7.06888 17.6676 7.07367 17.6239 7.02696 17.5321C7.01569 17.5096 7.0125 17.4952 7.00445 17.4759L7.12684 17.3534C7.3185 17.4211 7.42969 17.4033 7.31695 17.1633L7.44258 17.0377C7.46513 17.0377 7.47473 17.0266 7.47473 17.0056L10.4012 14.0807C10.4382 14.0984 10.4801 14.1226 10.5316 14.1548C10.6444 14.2289 10.6879 13.9696 10.7877 14.0227C10.8618 14.063 10.7137 13.612 10.9166 13.7538C11.1276 13.9036 10.9568 13.6749 10.981 13.6411C11.0245 13.6717 11.0567 13.6926 11.0695 13.6861C11.1324 13.6555 11.2081 13.6363 11.266 13.5992C11.316 13.5654 11.2903 13.4591 11.1968 13.2835L11.5817 12.9001C11.6365 12.9227 11.6655 12.9179 11.6752 12.8954C11.7026 12.8294 11.8121 12.8421 11.7718 12.7084L12.0279 12.4525C12.0408 12.4428 12.052 12.4315 12.0617 12.4186L13.8542 10.626C13.9783 10.6791 13.9574 10.5873 13.9606 10.5196L14.0185 10.4618C14.0378 10.4651 14.0621 10.4714 14.0959 10.4892C14.1893 10.5391 14.302 10.299 14.323 10.1589L15.8836 8.59822C15.9979 8.50319 16.1027 8.39703 16.2042 8.29073C16.2621 8.29556 16.2637 8.2407 16.3458 8.26969C16.4022 8.28902 16.378 8.22782 16.3378 8.15212C16.4296 8.05871 16.5262 7.9718 16.6374 7.89772C16.6325 7.88 16.6325 7.86703 16.6293 7.85092L16.7034 7.7768C16.7807 7.78969 16.8451 7.79136 16.7984 7.68185L17.003 7.47738C17.0738 7.42584 17.1238 7.36452 17.1318 7.35646C17.1318 7.35646 17.1318 7.35489 17.1334 7.35489C17.4072 7.22282 17.6149 7.01825 17.8098 6.80243C18.024 6.56729 19.021 5.69115 19.2755 5.45117C19.5074 5.23052 19.7506 5.01956 19.9809 4.79569C20.5334 4.25937 21.0842 3.72143 21.6301 3.17705C22.0908 2.71642 21.8009 2.25415 21.3483 1.85311C20.6654 1.25076 20.2643 1.4377 20.0501 1.57138C20.0131 1.59393 19.7168 1.72761 19.6524 1.85646L16.3829 4.88908C16.2395 4.90196 16.1558 4.976 16.1364 5.11773L15.6291 5.63637C15.6275 5.63637 15.6259 5.63795 15.6243 5.63795C15.3875 5.71686 14.4969 6.76712 14.2714 6.80578C14.0347 6.84604 14.0427 7.12148 13.9735 7.32442L13.7737 7.52889C13.7447 7.53694 13.719 7.54658 13.6804 7.54658C13.2391 7.54175 13.0748 7.84136 12.896 8.11516C12.8477 8.19247 12.8557 8.32294 12.8605 8.45017C12.8508 8.45662 12.8429 8.46308 12.8412 8.4663C12.706 8.62735 12.5899 8.80765 12.4579 8.97354C12.4369 9.00092 12.2662 9.14756 12.2485 9.21359C12.2227 9.30539 11.899 9.44861 11.9361 9.60483C11.9941 9.85286 11.8458 9.89487 11.506 9.74187C11.4351 9.70965 11.3611 9.89003 11.3498 9.93513C11.3337 9.9915 11.0696 9.93505 11.0728 9.97209C11.0776 10.0365 11.1211 10.1381 11.134 10.2106C11.1389 10.238 10.8344 10.3346 10.8183 10.4956C10.8151 10.5262 10.6299 10.5744 10.5768 10.6034C10.53 10.6275 10.5058 10.6743 10.4785 10.7178C10.4495 10.7613 10.1885 11.0882 10.1724 11.1059C10.0339 11.267 9.90028 11.4297 9.78109 11.6069C9.76177 11.6342 9.78591 11.7067 9.84873 11.8162C9.91798 11.9306 9.49284 11.8565 9.48157 11.9757C9.32695 11.9258 9.2255 11.9323 9.11598 11.9307C8.99519 11.9274 8.93882 11.9885 8.89372 12.061C8.84701 12.1351 8.85177 12.2576 8.83405 12.3575C9.03054 12.612 8.78902 12.4267 8.71815 12.4106C8.67467 12.4025 8.61661 12.4991 8.59567 12.5458C8.57634 12.5861 8.5458 12.6151 8.53452 12.6618C8.52808 12.6876 8.04494 13.1659 8.02561 13.2174C7.98535 13.3189 7.85967 13.3383 7.90637 13.5251C7.93375 13.6363 7.92576 13.7038 7.7486 13.6055C7.64391 13.5492 7.23796 13.4107 7.20253 13.4461C7.17676 13.4719 7.07208 13.5894 7.28628 13.8826C7.35071 13.9711 7.25411 13.9131 7.20902 13.9002C7.06568 13.8165 7.00122 13.8133 7.11396 13.9921C6.94324 13.8825 7.24765 14.2434 7.13008 14.1806C6.9803 14.1001 7.07214 14.2642 6.92719 14.1853C6.74358 14.0871 6.69687 14.1193 6.88531 14.3866C7.01416 14.5719 6.98833 14.6025 6.82888 14.5026C6.7097 14.4286 6.5857 14.3513 6.54705 14.3593C6.45203 14.3819 6.3941 14.4447 6.33934 14.5076C6.32323 14.5269 6.30865 14.551 6.38918 14.6621C6.60177 14.9536 6.57768 15.0052 6.29422 14.8038C6.15571 14.7056 6.13955 14.7426 6.12022 14.77C6.09606 14.8038 6.12989 14.8972 6.12828 14.9552C6.12667 15.0116 6.18793 15.1309 6.22659 15.2275C6.26363 15.3193 6.08317 15.2001 6.00747 15.1807C5.99297 15.1775 5.99299 15.192 6.02359 15.2322C6.28128 15.5672 5.8835 15.2548 6.0349 15.4851C5.63064 15.2435 5.6838 15.461 5.82876 15.7686C5.8658 15.8491 5.77238 15.8072 5.84163 15.9215C5.54529 15.6767 5.78848 15.9828 5.65319 15.9007C5.4422 15.7702 5.4051 15.8137 5.3745 15.8669C5.23438 16.1181 5.06693 16.3436 4.90265 16.5707C4.88171 16.5997 4.56927 16.9782 4.50807 17.1812L3.7591 17.8736C3.74622 17.8688 3.73341 17.8655 3.72214 17.8591C3.62228 17.8059 3.65287 17.9027 3.66414 17.9623L3.63347 17.9896C3.58354 17.959 3.58517 17.9768 3.60772 18.0138L3.31458 18.2843C3.20506 18.2263 3.12942 18.2038 3.2325 18.3616L3.20025 18.3907C3.11489 18.3392 3.02629 18.2843 2.99569 18.2875C2.88778 18.2987 2.75898 18.2907 2.92648 18.571C2.93937 18.5951 2.94255 18.6082 2.94899 18.6243L2.89424 18.6742C2.79116 18.6436 2.61559 18.5372 2.67679 18.6709C2.73478 18.7997 2.40137 18.9754 2.43841 19.0945L2.29833 19.2265C2.21619 19.1846 2.20005 19.2105 2.24515 19.2974L1.53816 20.2411C1.48018 20.2347 1.50595 20.3717 1.50434 20.3862C1.49951 20.4732 1.53005 20.6568 2.1614 21.3107C2.58176 21.7439 2.97959 22.0966 3.10038 21.9758Z" fill="black"/>
</svg>
