<svg width="24" height="24" viewBox="0 0 24 24" fill="none" xmlns="http://www.w3.org/2000/svg">
<path fill-rule="evenodd" clip-rule="evenodd" d="M23.1563 11.5159C23.1491 10.994 23.0642 10.4792 22.9721 9.9665C22.9444 9.75159 22.8656 9.54691 22.8083 9.33815C22.7735 9.22558 22.6906 8.9564 22.6077 8.68931C22.5003 8.4304 22.3949 8.17564 22.3621 8.07433C22.2967 7.86863 22.2291 7.65992 22.051 7.50744C21.9333 7.39794 21.7512 7.33447 21.9016 7.10319C21.699 6.81256 21.6325 6.43487 21.262 6.25374L21.1065 5.9979C21.0932 5.89454 21.0615 5.79941 20.9888 5.73494C20.9285 5.67763 20.7319 5.42183 20.7033 5.33894C20.6593 5.21307 20.5815 5.10867 20.5017 5.0094C20.4168 4.91218 20.3512 4.8037 20.3512 4.63689C20.0893 4.67066 20.1711 4.40562 20.076 4.28999C19.9931 4.19379 19.8048 4.202 19.6707 4.16107C19.6052 4.13855 19.5571 4.09244 19.5489 4.01466C19.5172 3.7885 19.2031 3.52145 18.8726 3.34646C18.54 3.17147 18.2278 3.04356 18.2288 2.97295C18.2299 2.79693 18.1817 2.68334 18.062 2.6639C17.9505 2.64445 17.7827 2.73655 17.7438 2.58407C17.7172 2.48276 17.2945 2.45313 17.226 2.37433C17.1656 2.30679 17.0418 2.3466 17.0101 2.25041C16.8852 1.89121 16.571 1.88513 16.3192 1.77359C16.1381 1.70502 15.9417 1.67531 15.7605 1.60982C15.1997 1.39389 14.6113 1.25982 14.025 1.14112C13.9421 1.12986 13.852 1.13297 13.7619 1.18209C13.7394 1.19437 13.7179 1.19951 13.6954 1.2077L13.2636 1.14212C13.0589 0.983496 12.8245 0.946678 12.5932 1.0879L12.144 1.06541C12.1062 1.05416 12.0683 1.05211 12.0294 1.06029C8.55003 1.02141 5.0993 2.75396 3.0833 5.59478C3.04339 5.60706 2.99934 5.61629 2.9492 5.62039C2.82537 5.62244 2.61256 6.13607 2.51841 6.17291C2.44268 6.20259 2.38636 6.79611 2.20829 6.81863C2.0159 6.84421 2.12849 7.02239 2.08756 7.11756C2.04867 7.12063 2.01699 7.13178 2.00061 7.15941C1.91261 7.30677 1.82148 7.45731 1.73347 7.60263C1.65877 7.73464 1.67412 7.90041 1.73347 8.07745C1.56564 8.50316 1.42237 8.93704 1.32311 9.38424C1.27501 9.43029 1.24943 9.48454 1.24022 9.54389C1.21157 9.70967 1.12154 9.86721 1.17783 10.0473L1.04578 10.9479L1.03966 11.0707C0.943468 12.1319 1.02946 13.1993 1.2198 14.2461C1.45108 15.2869 1.81845 16.2928 2.31273 17.2364C2.30761 17.3817 2.41809 17.4677 2.50916 17.5608L2.61666 17.7378C2.6228 17.7675 2.62584 17.8003 2.62072 17.8371C2.59616 17.9476 2.99939 18.4398 3.22452 18.6271C4.32871 20.1191 5.8463 21.2807 7.53278 22.0421C7.86639 22.2099 8.22665 22.3163 8.57561 22.4483C8.65441 22.5117 8.75773 22.5137 8.83857 22.5843C8.89281 22.6335 8.9665 22.614 9.04325 22.5792C9.36356 22.6529 9.67468 22.7676 9.99908 22.8198C10.0257 22.8147 10.0461 22.8106 10.0717 22.8054L10.3327 22.8453C10.4391 22.9026 10.5507 22.9497 10.6704 22.8965C10.9088 22.9405 11.1524 22.9313 11.3939 22.9507C11.6108 22.963 11.8084 22.9743 11.837 22.9753H11.8432C12.5667 23.0378 13.3096 22.9783 14.029 22.8351C14.424 22.7593 15.4423 22.5251 16.4114 22.1106C17.3846 21.7033 18.277 21.1097 18.6249 20.8364C19.288 20.3585 19.8785 19.7876 20.4188 19.1756C21.6755 17.6764 22.5811 15.8466 22.8881 13.9022C23.0375 13.0805 22.9404 12.577 22.8278 12.3069C22.7091 12.0347 22.531 11.9877 22.3376 12.0317C21.7451 12.1739 21.6366 13.0907 21.4841 13.6188C21.4831 13.7181 21.258 14.3566 21.2027 14.6524C20.7534 16.2345 19.8426 17.6621 18.6883 18.8134C17.5002 19.9288 16.0593 20.7987 14.4772 21.1855C14.2286 21.1834 14.0003 21.2551 13.766 21.3502L12.9821 21.472C12.7181 21.4976 12.4531 21.5027 12.1891 21.5201L12.1788 21.5191C11.9353 21.5017 11.0613 21.4874 10.216 21.3288C9.79439 21.252 9.38299 21.1302 9.0545 21.0309C8.73317 20.9051 8.49067 20.8048 8.40266 20.7516C8.05268 20.5019 7.62801 20.4518 7.23197 20.288L6.69675 19.9656C6.65172 19.9298 6.60871 19.892 6.57289 19.8408C6.14615 19.2852 5.56901 18.8973 5.07166 18.4081C4.93453 18.273 4.76054 18.1768 4.58759 18.0725C4.57326 18.052 4.56102 18.0357 4.55692 18.0285C4.27141 17.6672 3.96133 17.3213 3.72289 16.9222C3.67582 16.8618 3.43635 16.4321 3.37393 16.3175C3.25522 16.166 3.03214 15.4722 2.90729 15.3207C2.6668 15.0925 2.61665 14.7824 2.76912 14.4416C2.79982 14.3721 2.65345 14.0056 2.61866 13.9217C2.58489 13.8143 2.67909 13.4735 2.65351 13.4244C2.60848 13.3395 2.53069 13.2596 2.4785 13.1747C2.43756 13.142 2.50712 12.5156 2.42628 12.2444C2.40172 12.1912 2.46519 11.831 2.4918 11.7051C2.50715 11.5956 2.50303 11.4851 2.50098 11.3756C2.47028 11.262 2.58492 10.3615 2.59311 10.3073C2.66577 9.85496 2.76603 9.40265 2.88986 8.95851C2.91135 8.88893 2.89705 8.80504 2.84895 8.71192C2.79573 8.60958 3.18872 8.17562 3.24807 7.98426C3.4026 7.87476 3.51309 7.74481 3.6277 7.62099C3.75255 7.48386 3.85898 7.33651 3.93676 7.17277C4.02272 7.01518 4.05857 6.82281 4.13532 6.65498C4.02275 6.46771 4.23356 6.50753 4.31645 6.46148C4.3666 6.43385 4.49447 6.23226 4.54768 6.14118C4.59885 6.06443 4.64695 5.99187 4.69915 5.91308C4.71654 5.89363 4.97031 5.60811 5.23024 5.31646C5.51576 5.05141 5.80947 4.78118 5.84529 4.7382C5.99368 4.57242 6.20862 4.48747 6.31811 4.2695C6.38566 4.1426 6.46543 4.04437 6.63735 4.07712C6.7448 4.09759 7.22169 4.09348 7.30867 4.04027C7.37212 3.99524 7.6556 3.82534 7.66788 3.57769C7.67095 3.49991 7.75486 3.53679 7.81216 3.53884C7.93906 3.59103 8.03324 3.57878 8.06906 3.41504C8.20414 3.49179 8.16111 3.17554 8.27368 3.21954C8.4149 3.27787 8.47428 3.13258 8.60834 3.19193C8.77413 3.26562 8.88363 3.23183 8.93582 2.99543C8.97164 2.83477 9.05557 2.79076 9.18042 2.88388C9.27252 2.9504 9.36662 3.02002 9.43825 3.01592C9.62143 3.00262 9.79441 2.95549 9.96735 2.90637C10.0195 2.89204 10.0748 2.86958 10.1035 2.78157C10.1812 2.54108 10.2989 2.51039 10.4596 2.70687C10.5374 2.80306 10.6131 2.78153 10.6837 2.76721C10.7717 2.74879 10.8536 2.67817 10.9405 2.63929C11.0275 2.6004 11.1084 2.52372 11.1933 2.45515C11.2742 2.39375 11.3786 2.5227 11.4696 2.56159C11.487 2.56875 11.5085 2.5616 11.5218 2.52886C11.6313 2.25562 11.7746 2.56773 11.8923 2.3907C12.1501 2.68133 12.3896 2.58198 12.6639 2.38857C12.7355 2.33945 12.8102 2.40391 12.8901 2.32511C12.9484 2.56765 13.0702 2.34558 13.1408 2.45303C13.2482 2.62393 13.368 2.64032 13.4979 2.64953C13.8039 2.65772 14.1017 2.71712 14.4005 2.78057C14.7034 2.82867 14.9951 2.91668 15.2857 3.01492C15.3666 3.01697 16.3684 3.4202 16.7522 3.58906C17.3999 3.97895 18.0211 4.42202 18.5573 4.95519C18.5624 4.97054 18.5686 4.98486 18.5696 4.99816C18.5758 5.09538 18.6914 5.12303 18.7702 5.15169C18.7937 5.17215 18.8142 5.19673 18.8346 5.22027C18.8275 5.2653 18.851 5.27848 18.8869 5.27848C19.0792 5.50259 19.286 5.71341 19.4671 5.94468C19.4579 6.0593 19.4712 6.1515 19.6155 6.14843L19.6717 6.22613C19.6543 6.30493 19.6329 6.38475 19.6544 6.43387C19.7311 6.60579 19.7915 6.78592 20.0463 6.83299C20.0688 6.83708 20.0832 6.84529 20.0985 6.85348L20.1834 6.99676C20.1906 7.12468 20.1363 7.28023 20.2714 7.33242C20.4188 7.37438 20.6787 8.1327 20.8066 8.21661L20.8087 8.21861C20.865 8.34653 20.9039 8.48262 20.953 8.61361C20.9243 8.69548 20.9499 8.75283 21.0277 8.79274C21.3603 9.58993 21.567 10.4413 21.6632 11.3091C21.6376 11.39 21.7195 11.565 21.7277 11.5906C21.7707 11.7328 21.8801 11.9753 22.4593 12.0132C22.8441 12.0388 23.1778 11.959 23.1563 11.5159Z" fill="white"/>
<path fill-rule="evenodd" clip-rule="evenodd" d="M15.6817 14.3402C15.6367 14.2952 15.5865 14.2542 15.5363 14.2133C15.5159 14.1969 15.4862 14.1877 15.4637 14.1723C15.4391 14.157 15.3225 14.1171 15.3102 14.0915C15.2989 14.0649 15.2795 14.0454 15.2007 14.0874C15.1454 14.117 15.037 14.201 15.1915 14.0219C15.1107 14.0393 15.1813 13.9063 14.995 14.0311L14.9674 14.0045C14.9868 13.9687 15.0001 13.939 14.9786 13.9431C14.9612 13.9461 14.9295 13.9206 14.9408 13.895C14.9582 13.8551 14.9469 13.8429 14.9336 13.8336C14.9193 13.8255 14.9285 13.7937 14.995 13.7057C14.8282 13.8459 14.9858 13.6637 14.9786 13.6453C14.9715 13.6289 14.8507 13.7282 14.8006 13.7568C14.776 13.7701 14.7709 13.7629 14.8026 13.721C14.9868 13.4733 14.5591 13.68 14.6317 13.593C14.7218 13.4856 14.7607 13.4294 14.7197 13.4499C14.6819 13.4704 14.556 13.5797 14.6236 13.4917C14.6686 13.4334 14.4987 13.5368 14.512 13.5051C14.5233 13.4785 14.4557 13.5307 14.4987 13.4744C14.6655 13.2595 14.5478 13.327 14.5181 13.3086C14.4977 13.2953 14.4557 13.3035 14.4363 13.2881C14.378 13.241 14.3268 13.1868 14.2674 13.1397C14.2592 13.1336 14.2388 13.1387 14.1876 13.1746C14.1753 13.1838 14.1681 13.1879 14.1579 13.194L14.119 13.1551C14.1814 13.0527 14.1907 13.0036 14.0587 13.0957L14.0188 13.0549C14.0218 13.0447 14.0187 13.0416 14.0085 13.0446L13.0783 12.1154C13.0936 12.0949 13.111 12.0714 13.1356 12.0407C13.1888 11.9752 13.0711 11.9966 13.1131 11.9403C13.1438 11.8984 12.9054 12.0407 13.0056 11.922C13.11 11.7971 12.9739 11.9148 12.9616 11.9086C12.9831 11.883 12.9985 11.8636 12.9975 11.8595C12.9924 11.8339 12.9954 11.8012 12.9872 11.7797C12.979 11.7603 12.9238 11.79 12.8255 11.8626L12.7037 11.7408C12.7232 11.7101 12.7263 11.6979 12.716 11.6969C12.6894 11.6938 12.713 11.6395 12.6434 11.6794L12.5615 11.5986C12.5594 11.5934 12.5554 11.5904 12.5503 11.5873L11.9812 11.0183C12.0263 10.9508 11.9792 10.9754 11.9475 10.9846L11.9291 10.9662C11.9332 10.956 11.9413 10.9437 11.9546 10.9242C11.9925 10.8721 11.8963 10.8567 11.8329 10.87L11.3365 10.3736C11.3109 10.3337 11.2762 10.301 11.2414 10.2703C11.2537 10.2406 11.227 10.2488 11.2536 10.2058C11.2721 10.1751 11.2393 10.1966 11.1964 10.2283C11.1667 10.1986 11.1411 10.167 11.1237 10.125C11.1145 10.1301 11.1084 10.1321 11.1002 10.1372L11.0766 10.1128C11.095 10.0749 11.1053 10.0431 11.0459 10.083L10.9814 10.0176C10.9681 9.99301 10.9467 9.97867 10.9436 9.9756C10.9231 9.8661 10.8597 9.79958 10.7881 9.74125C10.7093 9.67575 10.4503 9.34007 10.3756 9.25718C10.3081 9.18145 10.2457 9.09851 10.1761 9.02483C10.0082 8.84677 9.83941 8.66974 9.66646 8.49679C9.52012 8.35045 9.25402 8.56132 8.99102 8.8407C8.59498 9.26232 8.62056 9.42293 8.65024 9.50377C8.65535 9.5181 8.67177 9.63782 8.72294 9.64806L9.64904 10.7246C9.63266 10.7911 9.65415 10.8187 9.71862 10.8054L9.88545 10.9651C9.88545 10.9661 9.88545 10.9672 9.88545 10.9672C9.88545 11.0675 10.2446 11.3254 10.2272 11.4267C10.2088 11.5321 10.3408 11.485 10.4268 11.486L10.4923 11.5485C10.4913 11.5618 10.4923 11.572 10.4861 11.5904C10.4135 11.8013 10.5301 11.8319 10.6325 11.8739C10.6611 11.8851 10.7246 11.8606 10.786 11.838C10.788 11.8411 10.7901 11.8431 10.7911 11.8442C10.8464 11.883 10.9139 11.9098 10.9723 11.9466C10.9825 11.9517 11.0244 12.01 11.0531 12.0079C11.093 12.0059 11.1093 12.1368 11.1902 12.0949C11.3181 12.0273 11.314 12.0909 11.1871 12.2781C11.1605 12.317 11.2342 12.3231 11.2547 12.3221C11.2782 12.3201 11.2097 12.4552 11.2281 12.448C11.2598 12.4357 11.3151 12.3989 11.3509 12.3804C11.3652 12.3733 11.3621 12.5043 11.4368 12.4859C11.4512 12.4818 11.445 12.5626 11.4491 12.5841C11.4543 12.6025 11.4727 12.6067 11.4891 12.6128C11.5054 12.6189 11.619 12.6925 11.6252 12.6966C11.6794 12.7365 11.7356 12.7754 11.8022 12.804C11.8124 12.8081 11.8503 12.7857 11.9117 12.7376C11.9782 12.6874 11.8748 12.9013 11.9301 12.888C11.882 12.9688 11.8687 13.0169 11.8503 13.0691C11.8298 13.1275 11.8493 13.1449 11.8779 13.1541C11.9045 13.1643 11.9639 13.1429 12.0089 13.1357C12.1614 13.0017 12.0344 13.146 12.016 13.1828C12.0048 13.2053 12.0416 13.2165 12.0611 13.2195C12.0774 13.2226 12.0856 13.2318 12.1061 13.2298C12.1184 13.2288 12.2688 13.3833 12.2903 13.3843C12.3322 13.3874 12.322 13.4437 12.4182 13.3925C12.4755 13.3618 12.5062 13.3547 12.4315 13.455C12.3875 13.5133 12.2575 13.7282 12.2688 13.7395C12.276 13.7487 12.3159 13.7794 12.4899 13.631C12.5431 13.586 12.5001 13.6412 12.4858 13.6648C12.4234 13.7466 12.4121 13.7773 12.5155 13.6955C12.4356 13.7937 12.6556 13.5921 12.6065 13.6586C12.5451 13.7425 12.6383 13.672 12.5769 13.7538C12.5011 13.8572 12.5093 13.8736 12.6659 13.7426C12.7743 13.6515 12.7856 13.6586 12.713 13.7507C12.6587 13.8193 12.6014 13.8908 12.5993 13.9072C12.5953 13.9492 12.6157 13.9667 12.6372 13.983C12.6433 13.9882 12.6536 13.9902 12.7181 13.935C12.8921 13.7876 12.9125 13.7896 12.7713 13.9574C12.7027 14.0393 12.717 14.0413 12.7273 14.0454C12.7395 14.0515 12.7897 14.0208 12.8173 14.0127C12.8439 14.0045 12.9095 13.9564 12.9627 13.9226C13.0118 13.8898 12.9268 13.9953 12.9053 14.0341C12.9012 14.0413 12.9084 14.0392 12.9319 14.0188C13.1335 13.8417 12.9207 14.0813 13.0547 13.9728C12.8757 14.2041 12.9872 14.1437 13.1571 14.026C13.2011 13.9953 13.1663 14.0465 13.2318 13.9953C13.0681 14.1754 13.2533 14.0116 13.1919 14.0884C13.0967 14.2101 13.111 14.2214 13.1315 14.2265C13.2297 14.2541 13.3106 14.2972 13.3925 14.3402C13.4027 14.3453 13.5337 14.4343 13.6196 14.4313L13.8315 14.6779C13.8274 14.685 13.8233 14.6912 13.8182 14.6983C13.7773 14.7536 13.8284 14.7239 13.8581 14.7096L13.8673 14.7198C13.8438 14.7475 13.853 14.7443 13.8745 14.7279L13.9574 14.8241C13.9113 14.8866 13.8888 14.9255 13.9798 14.8519L13.9891 14.8621C13.9512 14.9102 13.9103 14.9624 13.9072 14.9757C13.8959 15.0258 13.8714 15.0882 14.0321 14.9644C14.0454 14.9532 14.0525 14.9501 14.0607 14.9449L14.076 14.9634C14.0443 15.0166 13.9656 15.1179 14.0392 15.0667C14.1099 15.0186 14.1405 15.1497 14.2029 15.1128L14.2439 15.1588C14.2111 15.2048 14.2214 15.208 14.2695 15.1732L14.6072 15.3604C14.5949 15.3891 14.6644 15.3553 14.6706 15.3533C14.7115 15.342 14.8036 15.298 15.2161 14.8927C15.4893 14.6246 15.7206 14.3791 15.6817 14.3402Z" fill="white"/>
<path fill-rule="evenodd" clip-rule="evenodd" d="M9.62893 15.7468C9.67396 15.7018 9.71485 15.6517 9.75579 15.6015C9.77216 15.5811 9.78141 15.5513 9.79676 15.5288C9.81211 15.5043 9.852 15.3876 9.87758 15.3753C9.90419 15.364 9.92366 15.3447 9.88171 15.2659C9.85203 15.2106 9.76808 15.1021 9.94716 15.2566C9.92977 15.1758 10.0628 15.2464 9.93798 15.0601L9.96459 15.0325C10.0004 15.052 10.0301 15.0653 10.026 15.0438C10.0229 15.0264 10.0485 14.9947 10.0741 15.0059C10.114 15.0233 10.1263 15.0121 10.1355 14.9988C10.1437 14.9845 10.1754 14.9936 10.2634 15.0601C10.1232 14.8933 10.3053 15.0499 10.3237 15.0438C10.3401 15.0366 10.2409 14.9159 10.2122 14.8658C10.1989 14.8412 10.2061 14.8361 10.248 14.8668C10.4957 15.051 10.289 14.6242 10.376 14.6969C10.4834 14.7869 10.5397 14.8257 10.5192 14.7848C10.4988 14.7469 10.3892 14.6211 10.4783 14.6886C10.5356 14.7336 10.4322 14.5638 10.464 14.5771C10.4906 14.5883 10.4384 14.5198 10.4947 14.5638C10.7096 14.7306 10.642 14.613 10.6605 14.5833C10.6738 14.5628 10.6655 14.5208 10.6809 14.5014C10.728 14.443 10.7822 14.3919 10.8293 14.3326C10.8354 14.3244 10.8303 14.3039 10.7945 14.2528C10.7853 14.2405 10.7812 14.2333 10.7751 14.223L10.8139 14.1842C10.9163 14.2466 10.9654 14.2557 10.8733 14.1237L10.9142 14.0839C10.9245 14.0869 10.9275 14.0839 10.9245 14.0736L11.8536 13.1434C11.8741 13.1587 11.8977 13.1761 11.9284 13.2007C11.9939 13.2539 11.9724 13.1362 12.0287 13.1782C12.0706 13.2089 11.9284 12.9705 12.0471 13.0708C12.1719 13.1752 12.0542 13.0391 12.0604 13.0268C12.086 13.0483 12.1044 13.0636 12.1095 13.0625C12.1351 13.0574 12.1678 13.0605 12.1893 13.0523C12.2087 13.0441 12.1791 12.9889 12.1064 12.8906L12.2282 12.7688C12.2589 12.7883 12.2712 12.7914 12.2722 12.7812C12.2753 12.7546 12.3295 12.7781 12.2896 12.7085L12.3704 12.6267C12.3756 12.6246 12.3787 12.6204 12.3817 12.6153L12.9507 12.0464C13.0182 12.0915 12.9937 12.0443 12.9845 12.0126L13.0029 11.9942C13.0131 11.9983 13.0254 12.0065 13.0448 12.0198C13.097 12.0577 13.1124 11.9615 13.0991 11.898L13.5954 11.4017C13.6353 11.3761 13.6681 11.3413 13.6988 11.3065C13.7285 11.3188 13.7203 11.2922 13.7632 11.3188C13.7939 11.3372 13.7725 11.3044 13.7407 11.2614C13.7704 11.2317 13.8021 11.2062 13.8441 11.1888C13.8389 11.1796 13.8369 11.1734 13.8318 11.1652L13.8564 11.1418C13.8942 11.1602 13.9259 11.1704 13.886 11.111L13.9516 11.0466C13.9761 11.0333 13.9904 11.0118 13.9935 11.0087C14.103 10.9882 14.1695 10.9248 14.2278 10.8532C14.2933 10.7744 14.629 10.5154 14.7119 10.4407C14.7876 10.3732 14.8705 10.3108 14.9442 10.2412C15.1222 10.0734 15.2993 9.90447 15.4722 9.73152C15.6185 9.58518 15.4077 9.3192 15.1284 9.0562C14.7067 8.66017 14.5461 8.68574 14.4652 8.71542C14.4509 8.72054 14.3312 8.73683 14.3209 8.788L13.2444 9.71416C13.1779 9.69676 13.1503 9.71927 13.1636 9.78374L13.0039 9.95051H13.0018C12.9016 9.95051 12.6437 10.3098 12.5424 10.2924C12.437 10.274 12.4841 10.406 12.483 10.4919L12.4206 10.5574C12.4073 10.5563 12.397 10.5574 12.3786 10.5513C12.1678 10.4786 12.1371 10.5953 12.0952 10.6977C12.0839 10.7263 12.1085 10.7897 12.131 10.8511C12.128 10.8531 12.1248 10.8562 12.1248 10.8562C12.086 10.9114 12.0594 10.979 12.0225 11.0373C12.0174 11.0476 11.9591 11.0896 11.9611 11.1183C11.9632 11.1582 11.8322 11.1745 11.8741 11.2553C11.9417 11.3832 11.8782 11.3792 11.6909 11.2523C11.652 11.2257 11.6459 11.2993 11.647 11.3198C11.649 11.3433 11.5139 11.2747 11.5211 11.2932C11.5334 11.3249 11.5712 11.3801 11.5886 11.416C11.5958 11.4303 11.4648 11.4273 11.4832 11.502C11.4863 11.5163 11.4065 11.5102 11.385 11.5143C11.3666 11.5194 11.3625 11.5377 11.3563 11.5541C11.3502 11.5705 11.2765 11.6841 11.2724 11.6903C11.2325 11.7445 11.1936 11.8008 11.165 11.8663C11.1609 11.8775 11.1834 11.9154 11.2315 11.9768C11.2816 12.0434 11.0678 11.9399 11.0811 11.9952C11.0002 11.9471 10.9531 11.9338 10.8999 11.9154C10.8416 11.8949 10.8242 11.9144 10.815 11.942C10.8048 11.9696 10.8262 12.029 10.8334 12.074C10.9675 12.2265 10.8232 12.0996 10.7863 12.0812C10.7638 12.0699 10.7525 12.1068 10.7495 12.1262C10.7464 12.1426 10.7372 12.1508 10.7392 12.1712C10.7402 12.1835 10.5857 12.334 10.5847 12.3555C10.5816 12.3974 10.5254 12.3872 10.5776 12.4834C10.6073 12.5407 10.6144 12.5713 10.5141 12.4966C10.4558 12.4526 10.2409 12.3227 10.2296 12.334C10.2204 12.3412 10.1897 12.381 10.3381 12.555C10.3831 12.6072 10.3278 12.5642 10.3043 12.5509C10.2224 12.4884 10.1918 12.4772 10.2736 12.5806C10.1754 12.5008 10.377 12.7208 10.3104 12.6717C10.2265 12.6103 10.2972 12.7033 10.2153 12.6419C10.1119 12.5662 10.0956 12.5744 10.2265 12.731C10.3176 12.8395 10.3105 12.8507 10.2184 12.7781C10.1498 12.7238 10.0782 12.6666 10.0618 12.6645C10.0198 12.6604 10.0025 12.6809 9.98608 12.7024C9.98096 12.7085 9.97891 12.7187 10.0342 12.7832C10.1815 12.9572 10.1795 12.9776 10.0116 12.8364C9.92976 12.7679 9.92771 12.7822 9.92362 12.7924C9.91748 12.8047 9.94822 12.8549 9.95641 12.8825C9.9646 12.9091 10.0126 12.9746 10.0464 13.0278C10.0792 13.0769 9.97477 12.992 9.93486 12.9705C9.9277 12.9664 9.92976 12.9735 9.95023 12.9971C10.1273 13.1976 9.88785 12.9858 9.99632 13.1199C9.76504 12.9408 9.82542 13.0523 9.9431 13.2222C9.97381 13.2662 9.92261 13.2314 9.97377 13.2969C9.79366 13.1331 9.9574 13.3184 9.88064 13.257C9.75887 13.1619 9.7476 13.1761 9.74248 13.1966C9.71485 13.2948 9.67191 13.3757 9.62893 13.4575C9.62381 13.4678 9.53479 13.5988 9.53786 13.6848L9.29121 13.8966C9.28404 13.8925 9.27788 13.8884 9.27072 13.8833C9.21546 13.8423 9.24515 13.8936 9.25948 13.9232L9.24923 13.9325C9.2216 13.9089 9.22468 13.9181 9.24105 13.9396L9.14486 14.0224C9.08244 13.9764 9.04357 13.9539 9.11726 14.045L9.10701 14.0541C9.05891 14.0163 9.0067 13.9754 8.9934 13.9723C8.94325 13.96 8.88081 13.9365 9.00464 14.0971C9.0159 14.1104 9.01901 14.1177 9.02413 14.1259L9.0057 14.1412C8.95249 14.1095 8.85116 14.0307 8.90233 14.1044C8.95043 14.175 8.81946 14.2056 8.8563 14.268V14.2691L8.8102 14.309C8.76415 14.2762 8.7611 14.2865 8.7959 14.3346L8.60864 14.6723C8.57999 14.66 8.61378 14.7296 8.61582 14.7357C8.62708 14.7756 8.67104 14.8687 9.07628 15.2801C9.3444 15.5533 9.59004 15.7857 9.62893 15.7468Z" fill="white"/>
</svg>
