<svg width="130" height="40" viewBox="0 0 130 40" fill="none" xmlns="http://www.w3.org/2000/svg">
<path d="M69.1619 29.5V20.7501H74.6994V22.3125H70.8744V24.3H74.1744V25.825H70.8744V27.9375H74.7494V29.5H69.1619ZM76.5227 29.5V20.7501H78.2352V27.9375H82.0852V29.5H76.5227ZM83.2365 29.5V20.7501H84.949V29.5H83.2365ZM90.9122 29.65C90.0206 29.65 89.2289 29.4583 88.5373 29.075C87.8539 28.6833 87.3164 28.15 86.9248 27.475C86.5331 26.7917 86.3373 26.0084 86.3373 25.125C86.3373 24.2417 86.5331 23.4625 86.9248 22.7875C87.3164 22.1042 87.8539 21.5709 88.5373 21.1876C89.2289 20.7959 90.0206 20.6001 90.9122 20.6001C91.4456 20.6001 91.9372 20.6792 92.3872 20.8376C92.8372 20.9959 93.2331 21.2167 93.5747 21.5001C93.9247 21.7751 94.2164 22.0917 94.4497 22.45L93.0497 23.325C92.9081 23.1 92.7206 22.9 92.4872 22.725C92.2622 22.55 92.0122 22.4125 91.7372 22.3125C91.4622 22.2126 91.1872 22.1626 90.9122 22.1626C90.3622 22.1626 89.8748 22.2917 89.4498 22.55C89.0248 22.8 88.6914 23.1459 88.4498 23.5875C88.2081 24.0292 88.0873 24.5417 88.0873 25.125C88.0873 25.7 88.2039 26.2125 88.4373 26.6625C88.6789 27.1125 89.0164 27.4667 89.4498 27.725C89.8831 27.975 90.3831 28.1 90.9497 28.1C91.3914 28.1 91.7831 28.0125 92.1247 27.8375C92.4747 27.6625 92.7497 27.4167 92.9497 27.1C93.1497 26.7834 93.2497 26.4167 93.2497 26L94.8747 25.75C94.8747 26.575 94.7039 27.2792 94.3622 27.8625C94.0289 28.4458 93.5622 28.8917 92.9622 29.2C92.3706 29.5 91.6872 29.65 90.9122 29.65ZM91.1997 26.15V24.8125H94.8747V25.875L93.9497 26.15H91.1997ZM96.0416 29.5V20.7501H97.7541V29.5H96.0416ZM99.6549 29.5V20.7501H102.617C103.217 20.7501 103.742 20.8417 104.192 21.0251C104.642 21.2084 104.992 21.4876 105.242 21.8626C105.492 22.2292 105.617 22.6875 105.617 23.2375C105.617 23.5792 105.53 23.8959 105.355 24.1875C105.188 24.4709 104.951 24.7167 104.642 24.925C105.051 25.1334 105.363 25.4125 105.58 25.7625C105.805 26.1042 105.917 26.5167 105.917 27C105.917 27.5333 105.796 27.9875 105.555 28.3625C105.313 28.7375 104.976 29.0208 104.542 29.2125C104.109 29.4042 103.601 29.5 103.017 29.5H99.6549ZM101.33 27.9875H102.855C103.263 27.9875 103.584 27.8875 103.817 27.6875C104.051 27.4792 104.167 27.2042 104.167 26.8625C104.167 26.5042 104.038 26.225 103.78 26.025C103.521 25.8167 103.167 25.7125 102.717 25.7125H101.33V27.9875ZM101.33 24.3125H102.655C103.03 24.3125 103.326 24.2167 103.542 24.025C103.759 23.8334 103.867 23.5625 103.867 23.2125C103.867 22.8625 103.746 22.5917 103.505 22.4C103.263 22.2084 102.934 22.1126 102.517 22.1126H101.33V24.3125ZM107.309 29.5V20.7501H109.021V27.9375H112.871V29.5H107.309ZM114.022 29.5V20.7501H119.56V22.3125H115.735V24.3H119.035V25.825H115.735V27.9375H119.61V29.5H114.022Z" fill="black"/>
<path d="M68.9719 15.25V8.25005H71.2119C71.9252 8.25005 72.5552 8.40005 73.1019 8.70005C73.6552 9.00004 74.0852 9.41337 74.3919 9.94004C74.7052 10.46 74.8619 11.0634 74.8619 11.75C74.8619 12.43 74.7052 13.0333 74.3919 13.56C74.0852 14.0867 73.6552 14.5 73.1019 14.8C72.5552 15.1 71.9252 15.25 71.2119 15.25H68.9719ZM70.3419 13.97H71.2119C71.5319 13.97 71.8286 13.9133 72.1019 13.8C72.3752 13.6867 72.6119 13.53 72.8119 13.33C73.0185 13.13 73.1785 12.8967 73.2919 12.63C73.4052 12.3567 73.4619 12.0634 73.4619 11.75C73.4619 11.4367 73.4052 11.1467 73.2919 10.88C73.1785 10.6067 73.0185 10.37 72.8119 10.17C72.6119 9.97004 72.3752 9.81337 72.1019 9.70004C71.8286 9.58671 71.5319 9.53004 71.2119 9.53004H70.3419V13.97ZM75.9738 15.25V8.25005H77.3438V15.25H75.9738ZM81.2144 15.37C80.8611 15.37 80.5311 15.3267 80.2244 15.24C79.9177 15.1533 79.6444 15.0333 79.4044 14.88C79.1644 14.72 78.9644 14.5433 78.8044 14.35C78.6511 14.1567 78.5511 13.9533 78.5044 13.74L79.8444 13.34C79.9311 13.5667 80.0844 13.7633 80.3044 13.93C80.5244 14.09 80.8011 14.1733 81.1344 14.18C81.4877 14.1867 81.7744 14.11 81.9944 13.95C82.2211 13.79 82.3344 13.5833 82.3344 13.33C82.3344 13.11 82.2444 12.9267 82.0644 12.78C81.8911 12.6267 81.6511 12.51 81.3444 12.43L80.4344 12.19C80.0944 12.1034 79.7944 11.9734 79.5344 11.8C79.2744 11.62 79.0711 11.4 78.9244 11.14C78.7778 10.88 78.7044 10.5767 78.7044 10.23C78.7044 9.57004 78.9211 9.05671 79.3544 8.69005C79.7944 8.31672 80.4144 8.13005 81.2144 8.13005C81.6611 8.13005 82.0511 8.19672 82.3844 8.33005C82.7244 8.45671 83.0077 8.64005 83.2344 8.88004C83.4611 9.12004 83.6344 9.40337 83.7544 9.73004L82.4244 10.14C82.3444 9.91337 82.1977 9.72004 81.9844 9.56004C81.7711 9.40004 81.5011 9.32004 81.1744 9.32004C80.8411 9.32004 80.5777 9.39671 80.3844 9.55004C80.1977 9.70337 80.1044 9.92004 80.1044 10.2C80.1044 10.42 80.1777 10.5934 80.3244 10.72C80.4777 10.8467 80.6844 10.9434 80.9444 11.01L81.8644 11.24C82.4644 11.3867 82.9311 11.65 83.2644 12.03C83.5977 12.41 83.7644 12.8334 83.7644 13.3C83.7644 13.7133 83.6644 14.0767 83.4644 14.39C83.2644 14.6967 82.9744 14.9367 82.5944 15.11C82.2144 15.2833 81.7544 15.37 81.2144 15.37ZM88.0286 15.37C87.3486 15.37 86.7452 15.2167 86.2186 14.91C85.6919 14.5967 85.2786 14.17 84.9786 13.63C84.6786 13.0833 84.5286 12.4567 84.5286 11.75C84.5286 11.0434 84.6786 10.42 84.9786 9.88004C85.2786 9.33337 85.6886 8.90671 86.2086 8.60005C86.7352 8.28672 87.3386 8.13005 88.0186 8.13005C88.4986 8.13005 88.9452 8.21672 89.3586 8.39005C89.7719 8.55671 90.1319 8.79338 90.4386 9.10004C90.7519 9.40004 90.9919 9.74671 91.1585 10.14L89.8886 10.61C89.7752 10.3634 89.6252 10.15 89.4386 9.97004C89.2519 9.78337 89.0386 9.64004 88.7986 9.54004C88.5586 9.43337 88.2986 9.38004 88.0186 9.38004C87.6119 9.38004 87.2486 9.48337 86.9286 9.69004C86.6152 9.89004 86.3686 10.1667 86.1886 10.52C86.0153 10.8734 85.9286 11.2834 85.9286 11.75C85.9286 12.2167 86.0186 12.63 86.1986 12.99C86.3786 13.3433 86.6286 13.6233 86.9486 13.83C87.2686 14.03 87.6352 14.13 88.0486 14.13C88.3352 14.13 88.5952 14.0767 88.8286 13.97C89.0686 13.8567 89.2786 13.7033 89.4586 13.51C89.6452 13.3167 89.7952 13.0933 89.9086 12.84L91.1785 13.3C91.0119 13.7067 90.7719 14.0667 90.4586 14.38C90.1519 14.6933 89.7919 14.9367 89.3786 15.11C88.9652 15.2833 88.5152 15.37 88.0286 15.37ZM95.3846 15.37C94.678 15.37 94.0513 15.2167 93.5046 14.91C92.9646 14.5967 92.5413 14.17 92.2346 13.63C91.928 13.0833 91.7746 12.46 91.7746 11.76C91.7746 11.0467 91.928 10.42 92.2346 9.88004C92.5413 9.33337 92.9613 8.90671 93.4946 8.60005C94.0346 8.29338 94.6546 8.14005 95.3546 8.14005C96.0613 8.14005 96.6813 8.29672 97.2146 8.61005C97.7546 8.91671 98.1779 9.34337 98.4846 9.89004C98.7913 10.43 98.9446 11.0534 98.9446 11.76C98.9446 12.46 98.7913 13.0833 98.4846 13.63C98.1846 14.17 97.7646 14.5967 97.2246 14.91C96.6913 15.2167 96.0779 15.37 95.3846 15.37ZM95.3846 14.12C95.8113 14.12 96.1846 14.02 96.5046 13.82C96.8313 13.6133 97.0846 13.3333 97.2646 12.98C97.4513 12.6267 97.5446 12.22 97.5446 11.76C97.5446 11.2934 97.4513 10.8834 97.2646 10.53C97.0779 10.1767 96.8213 9.90004 96.4946 9.70004C96.1679 9.49337 95.7879 9.39004 95.3546 9.39004C94.9346 9.39004 94.558 9.49337 94.2246 9.70004C93.898 9.90004 93.6413 10.1767 93.4546 10.53C93.268 10.8834 93.1746 11.2934 93.1746 11.76C93.1746 12.22 93.268 12.6267 93.4546 12.98C93.6413 13.3333 93.9013 13.6133 94.2346 13.82C94.568 14.02 94.9513 14.12 95.3846 14.12ZM102.796 15.39C102.216 15.39 101.712 15.2767 101.286 15.05C100.859 14.8233 100.529 14.5067 100.296 14.1C100.069 13.6867 99.9557 13.2 99.9557 12.64V8.25005H101.326V12.64C101.326 12.94 101.386 13.2033 101.506 13.43C101.632 13.65 101.806 13.82 102.026 13.94C102.252 14.06 102.516 14.12 102.816 14.12C103.116 14.12 103.376 14.06 103.596 13.94C103.822 13.82 103.996 13.65 104.116 13.43C104.242 13.2033 104.306 12.94 104.306 12.64V8.25005H105.676V12.64C105.676 13.2 105.556 13.6867 105.316 14.1C105.082 14.5067 104.749 14.8233 104.316 15.05C103.889 15.2767 103.382 15.39 102.796 15.39ZM107.097 15.25V8.25005H108.527L111.947 12.95V8.25005H113.307V15.25H111.947L108.467 10.46V15.25H107.097ZM116.311 15.25V9.50004H114.211V8.25005H119.771V9.50004H117.681V15.25H116.311Z" fill="black"/>
<path fill-rule="evenodd" clip-rule="evenodd" d="M58.4176 10.1685L49.3227 23.0416H55.6192L52.1212 32.3389L61.9157 20.1809H57.0184L58.4176 10.1685Z" fill="#2DFE54" stroke="black" stroke-width="1.24999" stroke-linejoin="round"/>
<path d="M10.6755 30.6929V9.69302H23.9654V13.443H14.7855V18.213H22.7054V21.8729H14.7855V26.9429H24.0854V30.6929H10.6755ZM35.1213 30.6929L43.0713 9.69302H47.4812L39.1413 30.6929H35.1213ZM34.6713 30.6929L26.3014 9.69302H30.7114L38.6913 30.6929H34.6713Z" fill="black"/>
<path fill-rule="evenodd" clip-rule="evenodd" d="M2.32648 1.15786C2.56464 1.0339 2.85837 0.955911 3.18289 0.955911C17.1009 0.933372 31.0219 0.706124 44.943 0.478874C59.6107 0.239438 74.2784 0 88.9427 0C101.702 0 114.465 0.18112 127.212 0.704355C127.538 0.713793 127.864 0.842495 128.101 0.992433C128.27 1.00681 128.438 1.04992 128.603 1.1278C128.896 1.26866 129.172 1.52462 129.345 1.82525C129.78 2.57081 129.915 3.50361 129.963 4.36942C130.061 5.89923 129.944 7.42555 129.827 8.9503L129.827 8.95065L129.827 8.9532C129.801 9.28179 129.776 9.6103 129.753 9.93875L129.754 9.87175L129.748 10.0092L129.743 10.0934L129.748 10.0332C129.731 10.4731 129.738 10.9181 129.746 11.3604C129.75 11.5469 129.753 11.7328 129.754 11.9177C129.754 12.4279 129.756 12.9399 129.758 13.4518L129.758 13.4666C129.759 13.9736 129.761 14.4806 129.761 14.9859C129.761 17.025 129.761 19.0658 129.754 21.1049C129.752 21.7767 129.748 22.4487 129.743 23.1205V23.1214C129.734 24.5091 129.725 25.8959 129.737 27.2789C129.737 27.7309 129.753 28.1801 129.769 28.6279L129.769 28.6321C129.775 28.7939 129.781 28.9555 129.786 29.117C129.853 31.2506 129.896 33.4117 129.7 35.5384C129.613 36.4386 129.51 37.3783 129.172 38.2097C129.112 38.3671 129.039 38.5223 128.953 38.6669C128.991 38.7241 129.013 38.7836 129.017 38.8441C129.043 39.037 128.9 39.2358 128.6 39.3808C128.339 39.5153 127.872 39.6379 127.455 39.6319C126.584 39.6108 125.707 39.6087 124.833 39.6065C124.529 39.6058 124.225 39.605 123.921 39.6035L123.887 39.6033C122.584 39.5974 121.29 39.5915 119.984 39.5915C117.364 39.5856 114.731 39.5856 112.112 39.5915C106.846 39.5975 101.581 39.6214 96.3285 39.6558C90.6745 39.6943 85.0205 39.7431 79.3666 39.7919C74.6962 39.8322 70.0259 39.8725 65.3555 39.9069C44.5267 40.0534 23.6712 40.0938 2.88237 39.5153C2.41187 39.5033 2.0348 39.4749 1.66774 39.3284C1.34407 39.1939 1.13384 39.013 1.12049 38.8142C1.10684 38.7133 1.1377 38.612 1.21129 38.5175C0.928615 38.0464 0.752946 37.4973 0.64409 36.9372C0.499225 36.1948 0.479348 35.4481 0.459357 34.6972C0.453802 34.4885 0.448237 34.2795 0.439979 34.0701C0.348208 31.5246 0.261184 28.9721 0.199476 26.4196C0.179917 25.6536 0.158111 24.8873 0.1363 24.121C0.0151922 19.8656 -0.10604 15.6059 0.156755 11.3525V11.3857L0.161502 11.2582L0.16486 11.2063C0.164796 11.2078 0.164731 11.2094 0.164666 11.211L0.167831 11.1603L0.16486 11.2063C0.184623 10.7194 0.169423 10.23 0.154274 9.74226C0.147889 9.53667 0.141513 9.33138 0.137768 9.1267C0.136632 9.02387 0.135446 8.92097 0.134258 8.81801C0.122212 7.77344 0.110098 6.72293 0.150426 5.67966C0.17416 5.07866 0.205805 4.48639 0.267513 3.89237L0.269973 3.87116C0.318219 3.45515 0.367385 3.0312 0.471624 2.62921C0.650419 1.98104 0.935225 1.19658 1.60294 1.02537L1.8735 0.986932L2.20736 1.07254C2.24951 1.09739 2.28932 1.12597 2.32648 1.15786ZM2.17523 2.65839C2.16295 2.66364 2.15045 2.66848 2.13774 2.67289L2.06021 2.85983C1.85768 3.57789 1.79914 4.33963 1.75009 5.07866L1.76907 4.85503C1.69471 6.18457 1.69471 7.52286 1.72002 8.85415C1.72286 9.09521 1.72697 9.33661 1.73106 9.57743C1.73611 9.87418 1.74114 10.17 1.74376 10.4632C1.74376 10.8598 1.73268 11.2477 1.71211 11.6338L1.7137 11.6111L1.7042 11.7858L1.70104 11.8365V11.8312C1.48629 15.7373 1.59488 19.6507 1.70346 23.5634C1.71328 23.9174 1.7231 24.2713 1.73268 24.6253C1.75039 25.2714 1.76705 25.9174 1.78371 26.5636C1.82514 28.17 1.86659 29.7774 1.92414 31.3883C1.93778 31.8433 1.95663 32.2998 1.97552 32.7571C1.99826 33.3079 2.02106 33.86 2.03489 34.4126C2.04755 35.1009 2.06812 35.7858 2.16306 36.4689C2.22951 36.7764 2.30862 37.0717 2.41938 37.36L2.6583 37.7478L2.88773 37.961C2.91441 37.9834 2.93892 38.0079 2.9613 38.0341C23.6719 38.6046 44.4219 38.5639 65.162 38.4121C69.6534 38.3797 74.1448 38.3409 78.6362 38.3022C84.6893 38.2501 90.7425 38.1979 96.7956 38.161C102.048 38.1266 107.314 38.1027 112.582 38.0967C115.202 38.0907 117.821 38.0907 120.454 38.0967L124.378 38.1147C125.299 38.1147 126.22 38.1147 127.129 38.1342C127.151 38.0971 127.176 38.0621 127.204 38.0294C127.323 37.8902 127.454 37.8215 127.601 37.7785L127.606 37.7734L127.636 37.7356L127.81 37.325C128.053 36.4764 128.141 35.5797 128.199 34.6967L128.198 34.7414L128.209 34.549L128.21 34.5197V34.5318C128.301 32.8139 128.276 31.0874 128.229 29.3661C128.221 29.0996 128.211 28.8331 128.201 28.5668L128.201 28.5632C128.189 28.2333 128.177 27.9036 128.168 27.5744C128.158 27.1443 128.164 26.7196 128.17 26.2952C128.171 26.1891 128.173 26.083 128.174 25.9768C128.174 25.5765 128.175 25.178 128.176 24.7803C128.178 24.3843 128.179 23.9892 128.179 23.5941L128.179 23.5851C128.191 20.0716 128.204 16.5599 128.191 13.0464C128.19 12.8387 128.188 12.6307 128.186 12.4226C128.181 11.7219 128.175 11.0198 128.179 10.3218C128.179 10.0727 128.198 9.8185 128.216 9.56941C128.234 9.33131 128.252 9.09299 128.27 8.85453C128.303 8.42888 128.336 8.00278 128.364 7.57668V7.61619C128.446 6.28656 128.507 4.92772 128.304 3.61012C128.257 3.37477 128.196 3.14458 128.113 2.91782L128.016 2.74431L127.973 2.69965L127.874 2.70824C127.744 2.67742 127.633 2.65305 127.539 2.63302C127.266 2.69523 126.987 2.70408 126.682 2.69265C122.234 2.50348 117.787 2.3606 113.34 2.25997L113.757 2.26802C90.9296 1.73073 68.1072 2.1058 45.2836 2.48089C31.348 2.70991 17.4119 2.93894 3.47399 2.96031C3.03088 2.96031 2.63952 2.91201 2.29667 2.72887C2.25429 2.70668 2.21376 2.68313 2.17523 2.65839Z" fill="black"/>
</svg>
