<svg width="32" height="32" viewBox="0 0 32 32" fill="none" xmlns="http://www.w3.org/2000/svg">
<rect x="0.498583" y="0.498583" width="31.0028" height="31.0028" rx="3.50142" stroke="white" stroke-width="0.997166"/>
<path d="M13.8237 16.9691C13.7599 16.9691 12.3559 16.9691 11.7177 16.9691C11.3774 16.9691 11.271 16.8414 11.271 16.5223C11.271 15.6714 11.271 14.7992 11.271 13.9483C11.271 13.608 11.3986 13.5016 11.7177 13.5016H13.8237C13.8237 13.4378 13.8237 12.2039 13.8237 11.6296C13.8237 10.7787 13.9727 9.97029 14.3981 9.22574C14.8448 8.45992 15.483 7.94937 16.2914 7.65155C16.8232 7.46009 17.355 7.375 17.9294 7.375H20.0141C20.312 7.375 20.4396 7.50264 20.4396 7.80046V10.2256C20.4396 10.5234 20.312 10.651 20.0141 10.651C19.4398 10.651 18.8654 10.651 18.291 10.6723C17.7167 10.6723 17.4189 10.9488 17.4189 11.5445C17.3976 12.1827 17.4189 12.7996 17.4189 13.459H19.8865C20.2269 13.459 20.3545 13.5867 20.3545 13.927V16.5011C20.3545 16.8414 20.2482 16.9478 19.8865 16.9478C19.1207 16.9478 17.4827 16.9478 17.4189 16.9478V23.8828C17.4189 24.2444 17.3125 24.372 16.9296 24.372C16.0361 24.372 15.1639 24.372 14.2705 24.372C13.9514 24.372 13.8237 24.2444 13.8237 23.9253C13.8237 21.6916 13.8237 17.0329 13.8237 16.9691Z" fill="white"/>
</svg>
