<svg width="25" height="24" viewBox="0 0 25 24" fill="none" xmlns="http://www.w3.org/2000/svg">
  <path fill="currentColor" fill-rule="evenodd" clip-rule="evenodd" d="M24.4877 0.652872C24.6774 1.11046 24.5993 1.50109 24.2533 1.82475L16 10.0781V22.5C16 22.9688 15.7823 23.298 15.3471 23.4877C15.202 23.5435 15.0625 23.5714 14.9286 23.5714C14.6272 23.5714 14.3761 23.4654 14.1752 23.2533L9.88949 18.9676C9.67744 18.7556 9.57141 18.5045 9.57141 18.2143V10.0781L1.31806 1.82478C0.972083 1.50112 0.893958 1.11049 1.08369 0.652902C1.27342 0.217634 1.60266 0 2.07141 0H23.5C23.9688 0 24.298 0.217634 24.4877 0.652902L24.4877 0.652872Z"/>
</svg>