<svg width="25" height="24" viewBox="0 0 25 24" fill="none" xmlns="http://www.w3.org/2000/svg">
<path d="M14.5584 2.37426C15.0594 2.19526 15.5844 2.08633 16.1074 2.04833C16.5055 2.02696 16.6101 2.29039 16.6113 2.61182C16.6813 2.51204 16.7795 2.42366 16.8974 2.37426C17.1644 2.26226 17.6844 2.19028 18.4884 2.44628C20.3994 3.05328 21.8644 4.56931 22.6314 6.29931C22.9634 7.02231 23.1634 7.80028 23.2564 8.59228C23.3354 9.01828 23.3204 10.0863 23.0874 11.0813C22.8594 12.0853 22.3924 12.9563 22.2394 13.3063C21.9014 13.9023 21.5494 14.5053 21.0804 14.9883L21.0774 14.9933C21.0614 15.0143 20.9514 15.1603 20.8304 15.3213C20.6954 15.4993 20.5404 15.6582 20.3964 15.8282C20.3804 15.9502 20.2884 16.0113 20.1904 16.0633L20.0304 16.2452C20.0224 16.2672 20.0154 16.2853 20.0064 16.3093L19.3614 16.9343C19.3564 17.0123 19.3394 17.0802 19.2734 17.0992C19.1774 17.1262 19.1294 17.2073 19.0494 17.2473C18.8044 17.4823 18.5474 17.7023 18.2904 17.9203C17.0194 19.0173 15.6684 19.9983 14.2344 20.8603C14.0444 21.0413 13.5734 21.3733 13.4784 21.3523C13.4444 21.3453 13.4144 21.3463 13.3864 21.3513L13.2164 21.4423C13.1694 21.4833 13.1234 21.5283 13.0724 21.5613C13.0144 21.5943 13.0064 21.6063 12.7864 21.6443C12.6104 21.7113 12.4384 21.7283 12.2624 21.6603C12.1854 21.6393 12.0664 21.5902 12.0354 21.5732L11.9514 21.5293L11.6174 21.3542C11.4074 21.2332 11.1904 21.1193 10.9874 20.9933C10.5714 20.7503 10.1684 20.4913 9.76536 20.2313C8.97136 19.6953 8.18537 19.1463 7.44337 18.5343L7.35637 18.4633C7.14137 18.2923 6.92739 18.1213 6.72539 17.9353C6.56239 17.8923 6.48137 17.7493 6.35637 17.6613C6.31237 17.6293 6.28039 17.5862 6.26439 17.5262C5.94839 17.2602 5.66739 16.9493 5.36839 16.6613C5.19139 16.6503 5.05437 16.5992 4.96437 16.4952C4.88503 16.3842 4.80336 16.2693 4.72278 16.1559L4.69038 16.1103C4.67338 16.0873 4.67637 16.0553 4.68837 16.0193C4.62237 15.9513 4.42638 15.9943 4.47838 15.8133C4.52938 15.6433 3.99937 15.4393 4.01137 15.3503C4.01937 15.2493 3.64336 14.9023 3.67036 14.8003C3.68236 14.7543 3.68738 14.7123 3.68938 14.6733C2.76338 13.3693 2.00837 11.8373 1.84837 10.1383C1.63637 8.4383 2.14937 6.73329 3.05437 5.32629C3.06637 5.29029 3.08636 5.25927 3.11436 5.23327C3.18736 5.10727 3.28538 4.99724 3.37138 4.88024C3.37638 4.60924 3.55738 4.45434 3.79338 4.37634C3.89238 4.27334 3.98139 4.16326 4.08839 4.06726C4.09539 4.04626 4.10439 4.02731 4.10939 4.00231C4.12739 3.90531 4.18038 3.83532 4.24138 3.77832C4.67338 3.37232 5.18337 3.04731 5.71837 2.77331C5.89437 2.69231 6.05938 2.58231 6.23738 2.50231C6.49938 2.41731 6.74439 2.19028 7.07439 2.39428C7.15939 2.44928 7.23236 2.35132 7.32136 2.36132C7.42236 2.36932 7.77439 2.12627 7.85939 2.20227C7.98039 2.30327 8.06237 2.13535 8.16637 2.08935C8.27737 2.04235 8.38338 2.09735 8.47938 2.24035C8.51838 2.29635 8.84438 2.21834 9.22038 2.20434C9.59338 2.19834 10.0144 2.25429 10.1434 2.45629C10.1874 2.52129 10.2514 2.54227 10.3194 2.53527C10.4534 2.52627 10.6274 2.42627 10.7464 2.47827C10.8844 2.54827 10.9214 2.81128 11.1464 2.69128C11.2134 2.84428 11.3124 2.92528 11.4264 2.98828C11.5404 3.04828 11.6504 3.11829 11.7344 3.22229C11.7934 3.28629 12.0554 3.4723 12.1264 3.5133C12.2104 3.5583 12.2694 3.64034 12.3134 3.73034L12.4072 3.81475C12.5044 3.63596 12.6595 3.50662 12.8204 3.39233C12.9814 3.25333 13.7224 2.73235 13.9504 2.64135L13.9727 2.63058C14.1643 2.53812 14.3562 2.44549 14.5584 2.37426Z" fill="black"/>
</svg>
