<svg width="24" height="24" viewBox="0 0 24 24" fill="none" xmlns="http://www.w3.org/2000/svg">
<path fill-rule="evenodd" clip-rule="evenodd" d="M15.6077 2.04809C15.0847 2.08609 14.5597 2.19502 14.0587 2.37402C13.8487 2.44802 13.6498 2.54511 13.4508 2.64111C13.2228 2.73211 12.4818 3.25308 12.3208 3.39208C12.1448 3.51708 11.9758 3.66008 11.8818 3.86608C11.8128 4.01008 11.8167 4.19601 11.5527 4.14001C11.4977 4.22701 11.4347 4.30502 11.3657 4.37902H12.6337C12.4737 4.19002 12.3177 3.9831 12.0337 3.9281L11.8137 3.7301C11.7697 3.6401 11.7108 3.55806 11.6268 3.51306C11.5558 3.47206 11.2938 3.28604 11.2348 3.22204C11.1508 3.11804 11.0407 3.04803 10.9267 2.98803C10.8127 2.92503 10.7137 2.84404 10.6467 2.69104C10.4217 2.81104 10.3847 2.54802 10.2467 2.47802C10.1277 2.42602 9.95375 2.52603 9.81975 2.53503C9.75175 2.54203 9.68775 2.52105 9.64375 2.45605C9.51475 2.25405 9.09375 2.1981 8.72075 2.2041C8.34475 2.2181 8.01875 2.29611 7.97975 2.24011C7.88375 2.09711 7.77773 2.04211 7.66673 2.08911C7.56273 2.13511 7.48076 2.30302 7.35976 2.20202C7.27476 2.12602 6.92273 2.36908 6.82173 2.36108C6.73273 2.35108 6.65975 2.44904 6.57475 2.39404C6.24475 2.19004 5.99975 2.41707 5.73775 2.50207C5.55975 2.58207 5.39473 2.69207 5.21873 2.77307C4.68373 3.04707 4.17374 3.37207 3.74174 3.77807C3.68074 3.83507 3.62776 3.90507 3.60976 4.00207C3.60476 4.02707 3.59576 4.04601 3.58876 4.06701C3.48176 4.16301 3.39275 4.27309 3.29375 4.37609C3.05775 4.45409 2.87675 4.609 2.87175 4.88C2.78575 4.997 2.68773 5.10703 2.61473 5.23303C2.58673 5.25903 2.56673 5.29004 2.55473 5.32604C1.64973 6.73304 1.13674 8.43806 1.34874 10.1381C1.50874 11.8371 2.26374 13.3691 3.18974 14.6731C3.18774 14.7121 3.18273 14.754 3.17073 14.8C3.14373 14.902 3.51973 15.2491 3.51173 15.3501C3.49973 15.4391 4.02974 15.6431 3.97874 15.8131C3.92674 15.9941 4.12274 15.951 4.18874 16.019C4.17673 16.055 4.17375 16.0871 4.19075 16.1101C4.28175 16.2381 4.37474 16.369 4.46474 16.495C4.55474 16.599 4.69176 16.65 4.86876 16.661C5.16776 16.949 5.44875 17.26 5.76475 17.526C5.78075 17.586 5.81273 17.629 5.85673 17.661C5.98173 17.749 6.06275 17.8921 6.22575 17.9351C6.42775 18.1211 6.64173 18.292 6.85673 18.463L6.94374 18.5341C7.68574 19.1461 8.47173 19.6951 9.26573 20.2311C9.66873 20.4911 10.0717 20.75 10.4877 20.993C10.6907 21.119 10.9078 21.233 11.1178 21.354L11.4517 21.529L11.5358 21.573C11.5668 21.59 11.6857 21.639 11.7627 21.66C11.9387 21.728 12.1108 21.711 12.2868 21.644C12.5068 21.606 12.5147 21.594 12.5727 21.561C12.6237 21.528 12.6698 21.483 12.7168 21.442L12.8867 21.3511C12.9147 21.3461 12.9447 21.345 12.9787 21.352C13.0737 21.373 13.5448 21.0411 13.7348 20.8601C15.1688 19.9981 16.5198 19.017 17.7908 17.92C18.0478 17.702 18.3048 17.4821 18.5498 17.2471C18.6298 17.2071 18.6778 17.126 18.7738 17.099C18.8398 17.08 18.8567 17.0121 18.8617 16.9341L19.5068 16.3091C19.5158 16.2851 19.5227 16.267 19.5307 16.245L19.6907 16.0631C19.7887 16.0111 19.8807 15.95 19.8967 15.828C20.0407 15.658 20.1957 15.499 20.3307 15.321C20.4517 15.16 20.5617 15.014 20.5777 14.993L20.5807 14.988C21.0497 14.505 21.4017 13.902 21.7397 13.306C21.8927 12.956 22.3598 12.085 22.5878 11.081C22.8208 10.0861 22.8358 9.01804 22.7568 8.59204C22.6638 7.80004 22.4638 7.02207 22.1318 6.29907C21.3648 4.56907 19.8998 3.05304 17.9888 2.44604C17.1848 2.19004 16.6648 2.26202 16.3977 2.37402C16.1257 2.48802 16.0827 2.66205 16.1247 2.85205C16.1907 3.13805 16.4377 3.3181 16.7147 3.4331C16.9877 3.5841 17.3037 3.66308 17.5287 3.76708C17.6147 3.78508 18.1477 4.06608 18.3887 4.18408C19.6717 4.90608 20.6167 6.2081 21.0527 7.6361C21.5137 9.0761 21.3427 10.5991 20.7317 11.9811C20.5857 12.1621 20.4998 12.3671 20.4458 12.6011C20.1738 13.0251 19.9677 13.482 19.6407 13.88L19.6347 13.8881C19.5507 13.9721 19.3837 14.1821 19.1777 14.4541C18.9487 14.7141 18.6717 15.029 18.3957 15.343C17.8127 15.948 17.2008 16.5171 17.0148 16.6121C16.6498 16.8291 16.4217 17.1841 16.1287 17.4871L15.6467 17.8721C15.5957 17.8991 15.5467 17.926 15.4897 17.947C14.8417 18.191 14.3027 18.644 13.7457 19.056C13.5907 19.169 13.4658 19.321 13.3378 19.472C13.3168 19.485 13.2997 19.495 13.2927 19.499C12.9107 19.745 12.5338 20.003 12.1488 20.229C12.1178 20.245 11.9998 20.306 11.8768 20.37C11.8958 20.336 11.9997 20.3891 12.0477 20.3611C12.0777 20.3591 12.1037 20.3661 12.1217 20.3771C12.1317 20.3841 12.0887 20.364 12.0817 20.363C11.9197 20.318 11.3368 19.905 11.1398 19.879C10.8228 19.846 10.5927 19.6571 10.4687 19.3151C10.4427 19.2461 10.0907 19.075 10.0087 19.041C9.90674 18.995 9.72475 18.697 9.66975 18.682C9.57875 18.656 9.46873 18.6581 9.37373 18.6381C9.33273 18.6351 8.88976 18.2 8.63576 18.088C8.58776 18.065 8.33373 17.8091 8.24473 17.7201C8.16573 17.6451 8.07473 17.5841 7.98573 17.5221C7.89573 17.4601 7.18075 16.918 7.14775 16.874C6.80475 16.58 6.44873 16.2981 6.11973 15.9911C6.06673 15.9431 5.98574 15.921 5.88374 15.927C5.77574 15.93 5.54675 15.4091 5.39375 15.2871C5.35475 15.1061 5.27975 14.958 5.21175 14.806C5.13975 14.637 5.01475 14.509 4.89775 14.379C4.78475 14.247 4.63673 14.141 4.50273 14.021C4.29273 14.069 4.39375 13.891 4.37575 13.802C4.36575 13.747 4.20974 13.576 4.14674 13.498C4.09474 13.429 4.05173 13.3541 3.99473 13.2881C3.98173 13.2671 3.79274 12.9581 3.59874 12.6421C3.42774 12.3171 3.29275 11.972 3.25975 11.93C3.15475 11.75 3.09675 11.5511 2.96175 11.3861C2.87275 11.2901 2.81874 11.189 2.90474 11.046C2.95574 10.958 3.08474 10.5491 3.06474 10.4611C3.05974 10.3921 3.02974 10.104 2.79774 10.014C2.72674 9.98703 2.78974 9.9281 2.81074 9.8811C2.90274 9.7921 2.92375 9.71209 2.78575 9.62609C2.89975 9.54209 2.59875 9.46608 2.68675 9.38708C2.79175 9.29308 2.68476 9.18905 2.78676 9.10205C2.91076 8.99505 2.93275 8.89603 2.75075 8.75903C2.62475 8.66503 2.63474 8.57901 2.75774 8.51501C2.84774 8.46601 2.94676 8.42008 2.97676 8.36108C3.04676 8.20908 3.07174 8.04909 3.11574 7.89209C3.12974 7.84609 3.14074 7.793 3.07374 7.729C2.89674 7.557 2.91874 7.44408 3.15474 7.40808C3.27374 7.39208 3.29374 7.32308 3.31474 7.26208C3.34174 7.18508 3.32173 7.08809 3.33073 7.00109C3.33773 6.91409 3.30676 6.81108 3.29076 6.71008C3.27576 6.61608 3.43276 6.59899 3.50676 6.54699C3.52076 6.53699 3.52474 6.51601 3.50374 6.48901C3.32274 6.26001 3.66576 6.31808 3.57976 6.13708C3.93876 6.08608 3.96675 5.85411 3.95875 5.54211C3.95775 5.46111 4.04273 5.43711 4.02873 5.33911C4.25973 5.43911 4.13876 5.21402 4.26076 5.22302C4.45076 5.24302 4.51474 5.15204 4.59874 5.07104C4.95374 4.65304 5.40175 4.33006 5.87675 4.06506C5.93075 4.01706 6.81675 3.64804 7.19075 3.57104C7.86275 3.48804 8.56473 3.52306 9.20973 3.71606C9.21873 3.72706 9.22976 3.73704 9.23476 3.74804C9.27676 3.83104 9.38176 3.79906 9.45476 3.79406L9.53276 3.82409C9.54376 3.86609 9.56774 3.86499 9.59874 3.84899C9.84174 3.94599 10.0797 4.05802 10.3027 4.19702C10.3297 4.29602 10.3647 4.37211 10.4907 4.31811L10.5628 4.36608C10.5678 4.44108 10.5668 4.5211 10.5968 4.5581C10.7058 4.6861 10.7897 4.83311 11.0377 4.79211C11.0597 4.78911 11.0747 4.79304 11.0907 4.79504L11.1987 4.89807C11.2327 5.01007 11.2087 5.16605 11.3407 5.18005C11.3797 5.18305 11.4437 5.24209 11.5247 5.32409L11.5838 5.385C11.8108 5.617 12.1837 5.62106 12.4147 5.39306C12.4367 5.37206 12.4577 5.34809 12.4747 5.32409C12.6227 5.12609 12.9037 4.88399 12.9337 4.79699L12.9347 4.79406C13.0287 4.71006 13.1278 4.63205 13.2268 4.55505C13.3068 4.56205 13.3497 4.52704 13.3617 4.44604C13.9657 3.96404 14.6917 3.64601 15.4697 3.51501C15.5447 3.53601 15.6988 3.45003 15.7218 3.44104C15.8498 3.39604 16.0697 3.29905 16.1077 2.73205C16.1317 2.35905 16.0547 2.02409 15.6077 2.04809Z" fill="black"/>
</svg>
