<svg width="33" height="32" viewBox="0 0 33 32" fill="none" xmlns="http://www.w3.org/2000/svg">
<rect x="1.4533" y="0.498583" width="31.0028" height="31.0028" rx="3.50142" stroke="white" stroke-width="0.997166"/>
<g clip-path="url(#clip0_5048_820)">
<path d="M21.3922 6.44043H12.0589C9.44555 6.44043 7.39221 8.49376 7.39221 11.1071V20.4404C7.39221 23.0538 9.44555 25.1071 12.0589 25.1071H21.3922C24.0055 25.1071 26.0589 23.0538 26.0589 20.4404V11.1071C26.0589 8.49376 24.0055 6.44043 21.3922 6.44043ZM24.1922 20.4404C24.1922 22.0271 22.9789 23.2404 21.3922 23.2404H12.0589C10.4722 23.2404 9.25888 22.0271 9.25888 20.4404V11.1071C9.25888 9.52043 10.4722 8.3071 12.0589 8.3071H21.3922C22.9789 8.3071 24.1922 9.52043 24.1922 11.1071V20.4404Z" fill="white"/>
<path d="M16.7256 11.1072C14.1123 11.1072 12.059 13.1605 12.059 15.7738C12.059 18.3872 14.1123 20.4405 16.7256 20.4405C19.339 20.4405 21.3923 18.3872 21.3923 15.7738C21.3923 13.1605 19.339 11.1072 16.7256 11.1072ZM16.7256 18.5738C15.139 18.5738 13.9256 17.3605 13.9256 15.7738C13.9256 14.1872 15.139 12.9738 16.7256 12.9738C18.3123 12.9738 19.5256 14.1872 19.5256 15.7738C19.5256 17.3605 18.3123 18.5738 16.7256 18.5738Z" fill="white"/>
<path d="M21.3921 12.0405C21.9075 12.0405 22.3254 11.6226 22.3254 11.1072C22.3254 10.5917 21.9075 10.1738 21.3921 10.1738C20.8766 10.1738 20.4587 10.5917 20.4587 11.1072C20.4587 11.6226 20.8766 12.0405 21.3921 12.0405Z" fill="white"/>
</g>
<defs>
<clipPath id="clip0_5048_820">
<rect x="7.39221" y="6.44043" width="18.6667" height="18.6667" rx="4" fill="white"/>
</clipPath>
</defs>
</svg>
