<svg width="33" height="32" viewBox="0 0 33 32" fill="none" xmlns="http://www.w3.org/2000/svg">
<rect x="1.40788" y="0.498583" width="31.0028" height="31.0028" rx="3.50142" stroke="white" stroke-width="0.997166"/>
<path d="M25.9378 24.3721V18.1392C25.9378 15.0759 25.2783 12.7358 21.7045 12.7358C19.9814 12.7358 18.8326 13.6718 18.3646 14.5653H18.3221V13.0124H14.9397V24.3721H18.471V18.7348C18.471 17.2457 18.7475 15.8204 20.577 15.8204C22.3852 15.8204 22.4065 17.501 22.4065 18.8199V24.3508H25.9378V24.3721Z" fill="white"/>
<path d="M9.19604 13.0125H12.7273V24.3722H9.19604V13.0125Z" fill="white"/>
<path d="M10.9616 7.35376C9.83417 7.35376 8.91943 8.26849 8.91943 9.39596C8.91943 10.5234 9.83417 11.4594 10.9616 11.4594C12.0891 11.4594 13.0038 10.5234 13.0038 9.39596C13.0038 8.26849 12.0891 7.35376 10.9616 7.35376Z" fill="white"/>
</svg>
