<svg width="24" height="25" viewBox="0 0 24 25" fill="none" xmlns="http://www.w3.org/2000/svg">
<g clip-path="url(#clip0_6323_24664)">
<path fill-rule="evenodd" clip-rule="evenodd" d="M21.8576 11.4722C21.7105 11.4722 21.5618 11.4808 21.4147 11.4908C21.3533 11.4951 21.2919 11.5151 21.2291 11.5222C21.1633 11.5308 20.909 11.6064 20.8476 11.5935C20.7862 11.5793 20.7233 11.5778 20.6633 11.6978C20.6204 11.7807 20.5804 11.9722 20.5404 11.6422C20.439 11.7393 20.3362 11.5379 20.2362 11.845H20.149C20.1219 11.7907 20.0933 11.7494 20.0662 11.7751C20.0433 11.7951 19.949 11.8007 19.9247 11.7636C19.889 11.7079 19.8518 11.7064 19.8147 11.7107C19.7776 11.7164 19.7405 11.6765 19.7047 11.5236C19.6633 11.8265 19.6218 11.4921 19.5804 11.4807C19.5433 11.4707 19.5076 11.6894 19.4719 11.7665C19.4547 11.8037 19.4348 11.8008 19.4176 11.7294C19.3148 11.3037 18.9548 11.9293 18.9305 11.7721C18.9019 11.5764 18.8733 11.4822 18.8419 11.5437C18.8119 11.6008 18.7848 11.8337 18.7519 11.6779C18.7319 11.5779 18.6219 11.8478 18.5933 11.8021C18.5676 11.765 18.5418 11.8836 18.5204 11.785C18.4418 11.4093 18.3619 11.5921 18.2833 11.6021C18.2276 11.6092 18.1719 11.6594 18.1162 11.6622C17.9447 11.6751 17.7719 11.6707 17.6004 11.6835C17.5761 11.685 17.5505 11.7108 17.5276 11.7965C17.5205 11.818 17.5148 11.8293 17.509 11.845H17.3818C17.3175 11.6836 17.2519 11.625 17.1862 11.845H17.0562C17.0447 11.8321 17.0333 11.8321 17.0233 11.845H13.9947C13.9847 11.8107 13.9761 11.7693 13.9661 11.7165C13.9461 11.5993 13.789 11.7349 13.7647 11.6392C13.7476 11.5664 13.5904 11.9421 13.5604 11.7264C13.5275 11.5007 13.4975 11.7507 13.4675 11.7564C13.4618 11.7107 13.4547 11.6764 13.4462 11.6736C13.3962 11.6522 13.3476 11.6179 13.2976 11.6051C13.2547 11.5936 13.2133 11.6779 13.1719 11.845H12.7733C12.7562 11.7964 12.7404 11.7808 12.7219 11.7894C12.6733 11.8137 12.6247 11.7379 12.5762 11.845H12.3119C12.299 11.8436 12.2876 11.8436 12.2747 11.845H10.4204C10.3847 11.735 10.3476 11.805 10.3104 11.845H10.2504C10.2419 11.8321 10.2333 11.8121 10.2247 11.7793C10.2019 11.6907 10.0204 11.7707 9.93751 11.845H8.32182C8.21324 11.8321 8.10472 11.8336 7.99615 11.8379C7.96901 11.7964 7.9404 11.8307 7.91183 11.7622C7.89326 11.7136 7.87469 11.768 7.85612 11.8408C7.7604 11.8408 7.6647 11.8351 7.56899 11.8108C7.56327 11.8251 7.55608 11.8336 7.54893 11.845H7.47325C7.43896 11.7893 7.4061 11.7479 7.37324 11.845H7.16328C7.09899 11.8336 7.04184 11.8408 7.03327 11.8408H7.03179C6.82179 11.7537 6.60749 11.7493 6.39606 11.7636C6.1632 11.7764 5.19469 11.7008 4.93897 11.6922C4.70326 11.6851 4.46891 11.6635 4.23462 11.6607C3.67034 11.6507 3.10753 11.6422 2.54324 11.6422C2.0661 11.6422 1.97751 12.1122 2.00465 12.6479C2.04608 13.455 2.35034 13.5893 2.53034 13.6393C2.56177 13.6478 2.78321 13.7494 2.88321 13.7094L6.14468 13.858C6.22468 13.9408 6.30614 13.9464 6.389 13.8693L6.92036 13.8621L6.92472 13.8635C7.08757 13.9621 8.09181 13.8636 8.22896 13.9807C8.37181 14.1036 8.51036 13.9251 8.65036 13.8423L8.86041 13.8393C8.87898 13.8522 8.89752 13.8621 8.91752 13.8864C9.14324 14.1664 9.38322 14.0823 9.61751 14.0208C9.6818 14.0051 9.74613 13.9178 9.80899 13.8335C9.81756 13.8364 9.8247 13.8365 9.82756 13.8365C9.98185 13.8194 10.1347 13.7793 10.289 13.7579C10.3133 13.7536 10.4775 13.7679 10.5204 13.7394C10.5818 13.6979 10.8232 13.8108 10.8861 13.6893C10.9832 13.4965 11.0818 13.5636 11.179 13.8737C11.199 13.9379 11.3304 13.8723 11.3589 13.8494C11.3961 13.8237 11.5047 14.0265 11.5218 14.0008C11.5532 13.9579 11.5833 13.8666 11.6133 13.8123C11.6247 13.7923 11.8319 13.9236 11.9247 13.8308C11.9419 13.8136 12.0618 13.9008 12.1047 13.9165C12.1418 13.9294 12.179 13.9165 12.2161 13.905C12.2533 13.8965 12.5561 13.8565 12.5747 13.8536C12.729 13.8393 12.8818 13.8222 13.0361 13.7851C13.0604 13.7793 13.0847 13.7208 13.109 13.6122C13.1333 13.4965 13.3147 13.8093 13.3818 13.7422C13.4361 13.8693 13.4918 13.9294 13.5461 13.9994C13.6075 14.078 13.669 14.075 13.7304 14.0564C13.7919 14.0393 13.8532 13.9607 13.9147 13.9078C13.9447 13.6264 13.9733 13.8937 14.0019 13.9479C14.0204 13.9808 14.1005 13.9565 14.1347 13.9408C14.1662 13.9265 14.1962 13.9279 14.2276 13.905C14.2433 13.8936 14.7404 13.8964 14.7775 13.8764C14.8518 13.8379 14.9261 13.905 14.999 13.7579C15.0419 13.6707 15.0804 13.6337 15.1219 13.8065C15.1461 13.9079 15.2847 14.2479 15.3219 14.2493C15.3476 14.2493 15.4633 14.2407 15.5047 13.9235C15.5176 13.8264 15.5361 13.9235 15.5533 13.9607C15.5847 14.1035 15.6161 14.1451 15.6504 13.9622C15.6819 14.138 15.7104 13.7208 15.739 13.8351C15.7762 13.978 15.8119 13.8179 15.8476 13.9579C15.8904 14.135 15.9319 14.1436 15.9733 13.8594C16.0019 13.6622 16.0319 13.658 16.0619 13.8208C16.0848 13.9422 16.109 14.0694 16.1333 14.088C16.1947 14.1337 16.2561 14.1294 16.3175 14.1251C16.3361 14.1237 16.3562 14.1164 16.3719 13.9978C16.4133 13.6807 16.4519 13.6621 16.4947 13.9678C16.5147 14.1164 16.5418 14.1036 16.5661 14.0979C16.5976 14.0908 16.6276 14.0108 16.6576 13.9765C16.689 13.9423 16.719 13.8293 16.749 13.7436C16.7761 13.6636 16.8076 13.8508 16.8376 13.9108C16.8433 13.9222 16.8504 13.9136 16.8561 13.8693C16.8961 13.4964 16.9405 13.9422 16.9805 13.7036C17.0662 14.1079 17.149 13.9378 17.2347 13.655C17.2576 13.5807 17.2833 13.665 17.3061 13.5493C17.3333 13.8893 17.3662 13.545 17.3933 13.6822C17.4362 13.895 17.4776 13.8921 17.5205 13.8778C17.7233 13.8078 17.9261 13.7708 18.129 13.7322C18.1547 13.7279 18.5119 13.6851 18.649 13.5979L19.3933 13.6321C19.399 13.6421 19.4033 13.6522 19.4062 13.6651C19.4305 13.7594 19.4647 13.6793 19.489 13.6365L19.5204 13.6379C19.529 13.6879 19.5376 13.675 19.5461 13.6393L19.8361 13.6522C19.8633 13.7579 19.8918 13.8194 19.919 13.6565L19.9519 13.6579C19.969 13.7436 19.9862 13.8336 20.0033 13.8522C20.0647 13.9122 20.1276 13.9965 20.1861 13.7165C20.1919 13.6922 20.1961 13.6821 20.2018 13.6693L20.2562 13.6722C20.2933 13.7565 20.329 13.9336 20.3676 13.8107C20.4033 13.6936 20.6662 13.7936 20.709 13.6951L20.7104 13.6937L20.849 13.6993C20.8704 13.7764 20.8919 13.7708 20.9133 13.6879L21.7691 13.5394C21.7948 13.5808 21.8533 13.4778 21.8619 13.4692C21.9076 13.4192 21.9876 13.285 21.9991 12.4779C22.0062 11.9436 21.9834 11.4722 21.8576 11.4722Z" fill="#FF1261"/>
</g>
<defs>
<clipPath id="clip0_6323_24664">
<rect width="24" height="24" fill="white" transform="translate(0 0.5)"/>
</clipPath>
</defs>
</svg>
