<svg width="88" height="88" viewBox="0 0 88 88" fill="none" xmlns="http://www.w3.org/2000/svg">
<g filter="url(#filter0_d_5604_34961)">
<circle opacity="0.6" cx="44" cy="40" r="37" fill="white"/>
<g opacity="0.9">
<path fill-rule="evenodd" clip-rule="evenodd" d="M80.6636 38.3863C80.6399 36.6466 80.3588 34.9341 80.0539 33.2217C79.9625 32.5053 79.7016 31.823 79.5119 31.1272C79.3968 30.7519 79.1225 29.8547 78.8481 28.9644C78.4925 28.1013 78.1437 27.2522 78.0353 26.9111C77.8185 26.2289 77.5949 25.5331 77.0056 25.0248C76.6161 24.6598 76.0132 24.4482 76.5111 23.6773C75.8405 22.7086 75.6203 21.4496 74.3943 20.8458L73.8795 19.993C73.8355 19.6485 73.7305 19.3314 73.4901 19.1165C73.2902 18.9255 72.6398 18.0728 72.5449 17.7965C72.3993 17.3769 72.142 17.0289 71.8778 16.698C71.5967 16.374 71.3798 16.0123 71.3798 15.4563C70.5128 15.5689 70.7838 14.6854 70.4688 14.3C70.1945 13.9793 69.5713 14.0067 69.1276 13.8702C68.9108 13.7986 68.7516 13.6415 68.7245 13.3822C68.6195 12.6283 67.5799 11.7382 66.4859 11.1549C65.3851 10.5716 64.352 10.1452 64.3554 9.90984C64.3588 9.32312 64.1995 8.94448 63.8032 8.87966C63.434 8.81485 62.8787 9.12193 62.75 8.61025C62.6619 8.27596 61.2632 8.1771 61.0362 7.91444C60.8364 7.68931 60.4266 7.82202 60.3216 7.50137C59.9084 6.30406 58.8684 6.28379 58.0352 5.91197C57.4357 5.68342 56.7856 5.58438 56.1861 5.36607C54.3301 4.64631 52.3826 4.19942 50.4419 3.80373C50.1675 3.76621 49.8694 3.77657 49.5714 3.94031C49.4969 3.98124 49.4257 3.99838 49.3512 4.02567L47.9219 3.80706C47.2445 3.27833 46.4688 3.1556 45.7034 3.62634L44.2166 3.55139C44.0913 3.51387 43.966 3.50703 43.8373 3.53432C32.3217 3.40469 20.9008 9.17989 14.2285 18.6493C14.0965 18.6902 13.9507 18.721 13.7847 18.7346C13.3749 18.7415 12.6705 20.4536 12.3589 20.5764C12.1083 20.6753 11.9219 22.6537 11.3326 22.7288C10.6958 22.814 11.0684 23.408 10.933 23.7252C10.8043 23.7354 10.6994 23.7726 10.6452 23.8647C10.3539 24.3559 10.0523 24.8577 9.76105 25.3421C9.5138 25.7821 9.56461 26.3347 9.76105 26.9248C9.20559 28.3439 8.73141 29.7901 8.40288 31.2808C8.24369 31.4343 8.15904 31.6151 8.12856 31.813C8.03372 32.3656 7.73576 32.8908 7.92204 33.4877L7.48503 36.4929L7.46477 36.9022C7.14639 40.4396 7.43098 44.001 8.06096 47.4872C8.82641 50.9563 10.0423 54.3095 11.6782 57.4546C11.6613 57.9389 12.0269 58.2255 12.3283 58.536L12.6841 59.126C12.7044 59.2249 12.7145 59.3342 12.6976 59.457C12.6163 59.8254 13.9508 61.4661 14.6959 62.0904C18.3505 67.0638 23.3732 70.9356 28.9549 73.4735C30.059 74.033 31.2514 74.3876 32.4063 74.8277C32.6671 75.0392 33.0091 75.0458 33.2766 75.2811C33.4561 75.4449 33.7 75.38 33.9541 75.2641C35.0142 75.5097 36.0439 75.8921 37.1175 76.066C37.2056 76.049 37.2733 76.0352 37.358 76.0182L38.2217 76.151C38.5739 76.342 38.9431 76.4991 39.3394 76.3217C40.1286 76.4684 40.9346 76.4376 41.7339 76.5024C42.4519 76.5434 43.1057 76.581 43.2006 76.5845H43.2208C45.6154 76.7925 48.0743 76.5944 50.4553 76.1168C51.7627 75.8644 55.1327 75.0836 58.3402 73.7021C61.5611 72.3445 64.5147 70.3656 65.6662 69.4548C67.861 67.8618 69.8152 65.9587 71.6035 63.9188C75.7627 58.9214 78.76 52.822 79.7761 46.3408C80.2706 43.6016 79.949 41.9235 79.5764 41.0229C79.1835 40.1156 78.5942 39.9589 77.954 40.1056C75.993 40.5798 75.6338 43.6358 75.1292 45.396C75.1258 45.7269 74.3808 47.8555 74.1979 48.8413C72.711 54.115 69.6965 58.8737 65.876 62.7112C61.9438 66.4294 57.175 69.3288 51.9388 70.6183C51.1157 70.6114 50.3604 70.8503 49.5848 71.1675L46.9904 71.5735C46.1166 71.6588 45.2395 71.6758 44.3657 71.7338L44.3318 71.7305C43.5257 71.6725 40.6331 71.6246 37.8355 71.0959C36.4401 70.84 35.0785 70.4341 33.9913 70.1032C32.9278 69.6836 32.1252 69.3495 31.8339 69.1721C30.6756 68.3398 29.2701 68.1726 27.9593 67.6268L26.1879 66.5521C26.0389 66.4327 25.8965 66.3067 25.778 66.1361C24.3656 64.2839 22.4554 62.9909 20.8094 61.3604C20.3555 60.9101 19.7797 60.5895 19.2073 60.2415C19.1598 60.1733 19.1193 60.1188 19.1058 60.095C18.1608 58.8908 17.1345 57.7377 16.3454 56.4073C16.1896 56.2061 15.397 54.7736 15.1904 54.3915C14.7975 53.8867 14.0592 51.5739 13.646 51.069C12.8501 50.3084 12.6841 49.2747 13.1887 48.1388C13.2903 47.9069 12.8059 46.6855 12.6907 46.4058C12.579 46.0476 12.8908 44.9118 12.8061 44.7481C12.6571 44.4649 12.3996 44.1988 12.2268 43.9157C12.0914 43.8065 12.3216 41.7187 12.054 40.8147C11.9727 40.6374 12.1828 39.4367 12.2709 39.0171C12.3217 38.6521 12.308 38.2837 12.3013 37.9187C12.1997 37.54 12.5791 34.5384 12.6062 34.3576C12.8467 32.8499 13.1785 31.3422 13.5883 29.8617C13.6594 29.6298 13.6121 29.3502 13.4529 29.0397C13.2768 28.6986 14.5774 27.2521 14.7739 26.6142C15.2853 26.2492 15.651 25.8161 16.0303 25.4033C16.4435 24.9462 16.7958 24.455 17.0532 23.9093C17.3377 23.3839 17.4564 22.7427 17.7104 22.1833C17.3378 21.559 18.0355 21.6918 18.3099 21.5383C18.4758 21.4462 18.899 20.7742 19.0752 20.4706C19.2445 20.2148 19.4037 19.9729 19.5765 19.7103C19.634 19.6455 20.474 18.6937 21.3342 17.7215C22.2792 16.838 23.2513 15.9373 23.3698 15.794C23.8609 15.2414 24.5723 14.9582 24.9347 14.2317C25.1583 13.8087 25.4223 13.4813 25.9913 13.5904C26.3469 13.6586 27.9253 13.645 28.2132 13.4676C28.4231 13.3175 29.3614 12.7511 29.402 11.9256C29.4122 11.6664 29.6899 11.7893 29.8796 11.7961C30.2995 11.9701 30.6113 11.9293 30.7298 11.3835C31.1769 11.6393 31.0345 10.5851 31.407 10.7318C31.8744 10.9263 32.071 10.4419 32.5147 10.6398C33.0633 10.8854 33.4258 10.7728 33.5985 9.98479C33.717 9.44924 33.9948 9.30253 34.408 9.61295C34.7129 9.83467 35.0243 10.0667 35.2614 10.0531C35.8676 10.0087 36.4401 9.85163 37.0125 9.6879C37.1853 9.64014 37.3681 9.56527 37.463 9.27191C37.7204 8.47029 38.11 8.36796 38.6417 9.02291C38.8991 9.34355 39.1497 9.27178 39.3834 9.22403C39.6747 9.16263 39.9456 8.92726 40.2335 8.79763C40.5214 8.66801 40.789 8.4124 41.0701 8.18386C41.3377 7.97919 41.6832 8.40901 41.9846 8.53863C42.0422 8.56251 42.1132 8.53869 42.1572 8.42953C42.5197 7.51875 42.9938 8.55912 43.3833 7.96899C44.2368 8.94117 45.0295 8.60662 45.9372 7.96191C46.1743 7.79818 46.4215 8.01304 46.6857 7.75038C46.8788 8.55883 47.2818 7.81861 47.5155 8.17678C47.8711 8.74644 48.2674 8.80108 48.6976 8.83178C49.7103 8.85907 50.6957 9.05709 51.6847 9.26858C52.6872 9.42891 53.6527 9.72228 54.6146 10.0498C54.8822 10.0566 58.1979 11.4007 59.468 11.9635C61.612 13.2632 63.6678 14.7401 65.4425 16.5173C65.4595 16.5685 65.4799 16.6162 65.4833 16.6605C65.5036 16.9846 65.8863 17.0768 66.1471 17.1723C66.225 17.2405 66.2927 17.3224 66.3604 17.4009C66.3367 17.551 66.4147 17.5953 66.5332 17.5987C67.17 18.3423 67.8542 19.0447 68.4537 19.8156C68.4232 20.1977 68.4671 20.505 68.9446 20.4948L69.1309 20.7538C69.0733 21.0164 69.0023 21.2825 69.0734 21.4462C69.3274 22.0193 69.5273 22.6197 70.3706 22.7766C70.4451 22.7903 70.4926 22.8211 70.5434 22.8449L70.8244 23.3225C70.8481 23.7489 70.6686 24.2675 71.1156 24.4414C71.6034 24.5813 72.4637 27.109 72.8871 27.3887L72.8939 27.3954C73.0802 27.8218 73.2088 28.2754 73.3714 28.712C73.2766 28.9849 73.3612 29.1761 73.6186 29.3092C74.7194 31.9664 75.4037 34.8045 75.7221 37.6971C75.6374 37.9666 75.9083 38.55 75.9354 38.6353C76.0776 39.1095 76.4399 39.9178 78.3569 40.044C79.6304 40.1293 80.7347 39.8633 80.6636 38.3863Z" fill="white"/>
<path fill-rule="evenodd" clip-rule="evenodd" d="M37.3563 30.2184C37.5473 30.4275 37.7512 30.6225 37.9584 30.8139C38.0458 30.8954 38.1591 30.945 38.2498 31.0194C38.3501 31.1009 38.8001 31.3277 38.8584 31.4376C38.9134 31.551 38.9944 31.6397 39.2631 31.5157C39.4509 31.4306 39.8102 31.154 39.3343 31.7884C39.6192 31.7636 39.4314 32.26 40.053 31.8631L40.1663 31.987C40.1145 32.1182 40.0854 32.2316 40.1599 32.228C40.2214 32.2245 40.3541 32.345 40.325 32.4478C40.2829 32.5967 40.3282 32.6534 40.3865 32.6959C40.4415 32.7385 40.4253 32.8589 40.2246 33.1779C40.7653 32.7101 40.2829 33.3552 40.3185 33.4332C40.3509 33.5005 40.7458 33.1708 40.9174 33.0857C41.0016 33.0432 41.021 33.0786 40.9304 33.2274C40.38 34.1206 41.8466 33.5324 41.6264 33.8407C41.3512 34.2235 41.2347 34.4326 41.3739 34.3688C41.5034 34.3121 41.9113 33.9399 41.7073 34.2589C41.5746 34.4645 42.1476 34.1455 42.112 34.266C42.0861 34.3688 42.3095 34.1986 42.1768 34.4006C41.6782 35.1732 42.0732 34.9642 42.193 35.0599C42.2771 35.1237 42.4293 35.1167 42.507 35.1876L43.2095 35.8822C43.2419 35.9141 43.3164 35.907 43.4847 35.79C43.5268 35.7617 43.5527 35.7475 43.5851 35.7262L43.7502 35.9071C43.5721 36.2863 43.5656 36.4812 44.0027 36.187L44.171 36.3713C44.1646 36.4103 44.1807 36.4245 44.2164 36.4174L48.1369 40.7095C48.0916 40.7839 48.0365 40.8689 47.9653 40.9788C47.8067 41.2127 48.2276 41.195 48.1045 41.397C48.0106 41.5494 48.8168 41.1134 48.5092 41.5352C48.1887 41.9782 48.629 41.5814 48.6775 41.6133C48.6096 41.7055 48.5675 41.7728 48.5707 41.7905C48.6031 41.8968 48.6096 42.028 48.6517 42.1202C48.6905 42.2017 48.4802 42.3541 48.8007 42.1202L48.9592 41.8792C48.9009 41.989 48.9592 42.0074 49.1395 41.8792C49.2431 41.9075 48.8297 42.048 49.066 41.9275L48.9592 41.9684L48.88 41.9997L48.7812 42.1341L48.6743 42.2158C48.4509 42.074 48.5157 42.2477 48.5319 42.3717L48.4542 42.4568C48.4218 42.4461 48.3797 42.425 48.3149 42.3789C48.1434 42.2548 48.0365 42.6518 48.0462 42.9035L45.9549 45.1931C45.793 45.3207 45.657 45.4801 45.521 45.6396C45.4207 45.6077 45.4401 45.707 45.2912 45.6255C45.1908 45.5688 45.2523 45.6891 45.3462 45.8451C45.22 45.9797 45.0872 46.1039 44.9286 46.1996C44.9383 46.2351 44.9448 46.2562 44.9577 46.2881L44.8574 46.3945C44.7246 46.3449 44.6146 46.32 44.7279 46.5362L44.4559 46.8376C44.3556 46.9049 44.2811 47.0113 44.2811 47.0113L44.2779 47.0147C43.8635 47.1565 43.5851 47.4543 43.3293 47.7769C43.0509 48.1313 41.675 49.3717 41.3286 49.719L40.367 50.6618L38.1462 53.0258C37.5311 53.7027 38.1688 54.6563 39.0624 55.5566C40.4091 56.9105 41.0178 56.7154 41.3318 56.5489C41.3836 56.5205 41.8369 56.3858 41.9016 56.1731L46.3628 51.8102C46.5991 51.8386 46.7124 51.7357 46.6962 51.484L47.3729 50.7184L47.3826 50.715C47.7517 50.6547 48.8912 49.0563 49.257 49.0705C49.6391 49.0811 49.5322 48.5742 49.5808 48.2268L49.8463 47.9257C49.8948 47.9221 49.9337 47.915 49.9984 47.9291C50.7398 48.0993 50.9146 47.6102 51.1218 47.1707C51.1769 47.0502 51.1218 46.8092 51.07 46.5717C51.083 46.5611 51.0959 46.5505 51.0959 46.5505C51.2675 46.3024 51.4035 46.0152 51.5686 45.76C51.5945 45.7175 51.8276 45.5085 51.8373 45.3951C51.8502 45.2356 52.3455 45.0937 52.2322 44.7924C52.0477 44.3175 52.284 44.2927 52.9056 44.7003C53.0351 44.7853 53.0999 44.4806 53.1031 44.4026C53.1096 44.3034 53.5725 44.5055 53.5531 44.4346C53.524 44.3177 53.4172 44.112 53.3718 43.9773C53.3524 43.9241 53.8315 43.8604 53.8024 43.5698C53.8024 43.5449 53.851 43.5272 53.9351 43.4953C53.9772 43.4812 54.0031 43.435 53.9999 43.3889L53.9351 40.0183C53.9319 39.9368 53.919 39.8093 53.9028 39.7561C53.8769 39.6817 53.8056 39.6534 53.7409 39.6179C53.6794 39.5718 53.2197 39.2208 53.1938 39.1995C52.9704 39.0082 52.7438 38.8204 52.488 38.668C52.4459 38.6432 52.3197 38.7106 52.1157 38.8701C51.8988 39.0367 52.1643 38.2321 51.97 38.2533C52.1028 37.9521 52.1254 37.7677 52.1675 37.5656C52.2128 37.3423 52.1287 37.2609 52.0218 37.2042C51.915 37.1474 51.7078 37.2007 51.5459 37.2078C51.0538 37.658 51.4488 37.1474 51.4973 37.0127C51.5265 36.9276 51.3808 36.8603 51.3128 36.8355C51.2513 36.8178 51.2125 36.7718 51.138 36.7683C51.0959 36.7647 50.4549 36.0559 50.3772 36.0382C50.2186 36.0027 50.2315 35.7793 49.9013 35.9317C49.7071 36.0239 49.597 36.0345 49.8171 35.673C49.9499 35.4603 50.3157 34.6664 50.2704 34.6132C50.238 34.5742 50.0729 34.4254 49.5096 34.9252C49.338 35.0776 49.4675 34.8792 49.5063 34.7906C49.6941 34.4964 49.72 34.3795 49.3833 34.6524C49.6261 34.298 48.9204 34.9855 49.066 34.748C49.2473 34.4432 48.943 34.6736 49.1243 34.3794C49.3509 34.0072 49.3121 33.9329 48.8006 34.3759C48.4477 34.6807 48.4024 34.6416 48.6225 34.3156C48.7876 34.071 48.9625 33.8122 48.9592 33.7449C48.956 33.5783 48.8686 33.4969 48.7812 33.4189C48.7553 33.3941 48.7164 33.3799 48.506 33.5677C47.9459 34.0639 47.8682 34.0392 48.302 33.4438C48.5124 33.1531 48.4542 33.1389 48.4153 33.1141C48.3667 33.0822 48.1984 33.1779 48.1013 33.1956C48.0074 33.2134 47.7905 33.3692 47.6124 33.4756C47.4473 33.5784 47.7063 33.2063 47.7646 33.0574C47.7743 33.0291 47.7516 33.0326 47.6739 33.1035C47.0265 33.7025 47.6804 32.859 47.2466 33.2205C47.784 32.3876 47.4052 32.5684 46.8387 32.9441C46.693 33.0433 46.7934 32.8553 46.5797 33.0254C47.088 32.391 46.4923 32.9511 46.6768 32.6711C46.9649 32.2387 46.9067 32.1819 46.8257 32.1465C46.4534 31.9834 46.1297 31.7603 45.8059 31.5405C45.7638 31.5122 45.2362 31.0796 44.9157 31.0406L44.0059 29.9242L44.0448 29.8463C44.1646 29.6478 43.993 29.74 43.8926 29.779L43.8538 29.7329C43.9218 29.6301 43.8926 29.6408 43.8214 29.694L43.4653 29.2579C43.6012 29.0346 43.6628 28.8894 43.3649 29.1339L43.3261 29.0878C43.4426 28.9106 43.5656 28.7298 43.5689 28.6731C43.5883 28.4817 43.6433 28.2407 43.1189 28.6483C43.0703 28.6802 43.0477 28.6944 43.0218 28.7121L42.9538 28.6305C43.0412 28.4285 43.2775 28.0671 43.0347 28.2301C42.7984 28.3825 42.6171 27.8366 42.4034 27.9465L42.4002 27.9502L42.2318 27.741C42.3257 27.5744 42.2901 27.5531 42.1315 27.67L40.7847 26.7167C40.8171 26.6104 40.5775 26.706 40.5516 26.7096C40.4092 26.7308 40.0919 26.855 38.7839 28.255C37.9195 29.1836 37.1944 30.0411 37.3563 30.2184Z" fill="black"/>
</g>
</g>
<defs>
<filter id="filter0_d_5604_34961" x="0" y="0" width="88" height="88" filterUnits="userSpaceOnUse" color-interpolation-filters="sRGB">
<feFlood flood-opacity="0" result="BackgroundImageFix"/>
<feColorMatrix in="SourceAlpha" type="matrix" values="0 0 0 0 0 0 0 0 0 0 0 0 0 0 0 0 0 0 127 0" result="hardAlpha"/>
<feOffset dy="4"/>
<feGaussianBlur stdDeviation="2"/>
<feComposite in2="hardAlpha" operator="out"/>
<feColorMatrix type="matrix" values="0 0 0 0 0 0 0 0 0 0 0 0 0 0 0 0 0 0 0.25 0"/>
<feBlend mode="normal" in2="BackgroundImageFix" result="effect1_dropShadow_5604_34961"/>
<feBlend mode="normal" in="SourceGraphic" in2="effect1_dropShadow_5604_34961" result="shape"/>
</filter>
</defs>
</svg>