<svg width="24" height="24" viewBox="0 0 24 24" fill="none" xmlns="http://www.w3.org/2000/svg">
<path fill-rule="evenodd" clip-rule="evenodd" d="M22.999 11.5159C22.9919 10.994 22.9076 10.4802 22.8161 9.9665C22.7887 9.75159 22.7104 9.54691 22.6535 9.33815C22.619 9.22558 22.5367 8.9564 22.4544 8.68931C22.3477 8.4304 22.2431 8.17566 22.2105 8.07333C22.1455 7.86866 22.0784 7.65992 21.9016 7.50744C21.7848 7.39794 21.6039 7.33447 21.7533 7.10319C21.5521 6.81256 21.4861 6.43487 21.1182 6.25374L20.9638 5.9979C20.9506 5.89454 20.9191 5.79941 20.847 5.73494C20.787 5.67763 20.5919 5.42183 20.5634 5.33894C20.5197 5.21307 20.4426 5.10867 20.3633 5.0094C20.279 4.91218 20.2139 4.8037 20.2139 4.63689C19.9538 4.67066 20.0351 4.40562 19.9406 4.28999C19.8583 4.19379 19.6713 4.202 19.5382 4.16107C19.4732 4.13958 19.4254 4.09244 19.4173 4.01466C19.3858 3.7885 19.0739 3.52145 18.7457 3.34646C18.4155 3.17147 18.1056 3.04356 18.1066 2.97295C18.1076 2.79693 18.0598 2.68334 17.9409 2.6639C17.8302 2.64445 17.6636 2.73657 17.6249 2.58307C17.5985 2.48278 17.1789 2.45313 17.1108 2.37433C17.0509 2.30679 16.9279 2.3466 16.8964 2.25041C16.7725 1.89121 16.4605 1.88513 16.2105 1.77359C16.0307 1.70502 15.8356 1.67531 15.6558 1.60982C15.099 1.39389 14.5147 1.25982 13.9325 1.14112C13.8502 1.12986 13.7608 1.13297 13.6714 1.18209C13.649 1.19437 13.6277 1.19951 13.6053 1.2077L13.1765 1.14212C12.9733 0.983496 12.7406 0.946678 12.511 1.0879L12.0649 1.06541C12.0273 1.05416 11.9897 1.05211 11.9511 1.06029C8.49645 1.02141 5.0702 2.75396 3.06851 5.59478C3.02889 5.60706 2.98515 5.61629 2.93536 5.62039C2.81242 5.62244 2.60111 6.13607 2.50763 6.17291C2.43244 6.20259 2.37652 6.79611 2.19972 6.81863C2.00869 6.84421 2.12048 7.02239 2.07984 7.11756C2.04123 7.12063 2.00977 7.13178 1.99351 7.15941C1.90613 7.30677 1.81565 7.45731 1.72827 7.60263C1.65409 7.73464 1.66933 7.90041 1.72827 8.07745C1.56163 8.50316 1.41937 8.93704 1.32081 9.38424C1.27306 9.43029 1.24766 9.48454 1.23852 9.54389C1.21007 9.70967 1.12068 9.86723 1.17656 10.0463L1.04546 10.9479L1.03938 11.0707C0.94387 12.1319 1.02925 13.2003 1.21824 14.2461C1.44787 15.2869 1.81264 16.2928 2.30341 17.2364C2.29833 17.3817 2.40802 17.4677 2.49845 17.5608L2.60519 17.7378C2.61128 17.7675 2.6143 17.8003 2.60922 17.8371C2.58483 17.9476 2.9852 18.4398 3.20873 18.6271C4.30509 20.1191 5.81191 21.2807 7.48641 22.0421C7.81766 22.2099 8.17536 22.3163 8.52185 22.4483C8.60009 22.5117 8.70267 22.5137 8.78294 22.5843C8.83679 22.6335 8.90996 22.614 8.98617 22.5792C9.3042 22.6529 9.61312 22.7676 9.93521 22.8198C9.96163 22.8147 9.98194 22.8106 10.0073 22.8054L10.2664 22.8453C10.3721 22.9026 10.4829 22.9497 10.6018 22.8965C10.8385 22.9405 11.0803 22.9313 11.3201 22.9507C11.5355 22.963 11.7317 22.9743 11.7601 22.9753H11.7662C12.4846 23.0378 13.2222 22.9783 13.9365 22.8351C14.3288 22.7593 15.3398 22.5251 16.302 22.1106C17.2683 21.7033 18.1543 21.1097 18.4998 20.8364C19.1582 20.3585 19.7445 19.7876 20.281 19.1756C21.5288 17.6764 22.428 15.8466 22.7328 13.9022C22.8811 13.0805 22.7846 12.577 22.6729 12.3069C22.555 12.0347 22.3782 11.9877 22.1862 12.0317C21.5979 12.1739 21.4901 13.0907 21.3387 13.6188C21.3377 13.7181 21.1142 14.3566 21.0593 14.6524C20.6133 16.2345 19.7089 17.6621 18.5628 18.8134C17.3831 19.9288 15.9524 20.7987 14.3816 21.1855C14.1347 21.1834 13.9081 21.2551 13.6754 21.3502L12.8971 21.472C12.6349 21.4976 12.3718 21.5027 12.1097 21.5201L12.0995 21.5191C11.8577 21.5017 10.9899 21.4874 10.1506 21.3288C9.73197 21.252 9.3235 21.1302 8.99733 21.0309C8.67828 20.9051 8.43751 20.8048 8.35012 20.7516C8.00262 20.5019 7.58097 20.4518 7.18774 20.288L6.65632 19.9656C6.61161 19.9298 6.5689 19.892 6.53334 19.8408C6.10963 19.2852 5.53658 18.8973 5.04276 18.4081C4.90661 18.273 4.73385 18.1768 4.56213 18.0725C4.5479 18.052 4.53574 18.0357 4.53168 18.0285C4.24819 17.6672 3.94032 17.3213 3.70357 16.9222C3.65683 16.8618 3.41906 16.4321 3.35708 16.3175C3.23921 16.166 3.01771 15.4722 2.89375 15.3207C2.65497 15.0925 2.60517 14.7824 2.75657 14.4416C2.78705 14.3721 2.64172 14.0056 2.60717 13.9217C2.57364 13.8143 2.66718 13.4735 2.64178 13.4244C2.59707 13.3395 2.51982 13.2596 2.468 13.1747C2.42736 13.142 2.49643 12.5156 2.41616 12.2444C2.39177 12.1912 2.4548 11.831 2.48121 11.7051C2.49645 11.5956 2.49236 11.4851 2.49033 11.3756C2.45985 11.262 2.57368 10.3615 2.5818 10.3073C2.65395 9.85496 2.7535 9.40265 2.87645 8.95851C2.89779 8.88893 2.88358 8.80504 2.83583 8.71192C2.78299 8.60958 3.17318 8.17562 3.23211 7.98426C3.38554 7.87476 3.49525 7.74481 3.60905 7.62099C3.73302 7.48386 3.83869 7.33651 3.91591 7.17277C4.00126 7.01518 4.03686 6.82281 4.11307 6.65498C4.0013 6.46771 4.21061 6.50753 4.29291 6.46148C4.3427 6.43385 4.46966 6.23226 4.5225 6.14118C4.57331 6.06443 4.62107 5.99187 4.67289 5.91308C4.69017 5.89363 4.94214 5.60811 5.20022 5.31646C5.48371 5.05141 5.77534 4.78118 5.8109 4.7382C5.95824 4.57242 6.17165 4.48747 6.28037 4.2695C6.34743 4.1426 6.42664 4.04437 6.59734 4.07712C6.70403 4.09759 7.17753 4.09348 7.2639 4.04027C7.3269 3.99524 7.60836 3.82534 7.62056 3.57769C7.62361 3.49991 7.70692 3.53679 7.76382 3.53884C7.88981 3.59103 7.98333 3.57878 8.01889 3.41504C8.15302 3.49179 8.11029 3.17554 8.22206 3.21954C8.36228 3.27787 8.42124 3.13258 8.55435 3.19193C8.71895 3.26562 8.82768 3.23183 8.8795 2.99543C8.91506 2.83477 8.9984 2.79076 9.12236 2.88388C9.21381 2.9504 9.30724 3.02002 9.37837 3.01592C9.56024 3.00262 9.73199 2.95549 9.90371 2.90637C9.95553 2.89204 10.0104 2.86958 10.0388 2.78157C10.1161 2.54108 10.2329 2.51039 10.3925 2.70687C10.4697 2.80306 10.5449 2.78153 10.615 2.76721C10.7024 2.74879 10.7836 2.67817 10.87 2.63929C10.9564 2.6004 11.0366 2.52372 11.121 2.45515C11.2013 2.39375 11.3049 2.5227 11.3953 2.56159C11.4126 2.56875 11.4339 2.5616 11.4471 2.52886C11.5558 2.25562 11.6981 2.56773 11.8149 2.3907C12.071 2.68235 12.3088 2.58198 12.5811 2.38857C12.6522 2.33945 12.7264 2.40391 12.8057 2.32511C12.8636 2.56765 12.9845 2.34558 13.0546 2.45303C13.1613 2.62393 13.2802 2.64032 13.4092 2.64953C13.713 2.65772 14.0087 2.71712 14.3054 2.78057C14.6061 2.82867 14.8958 2.91668 15.1843 3.01492C15.2646 3.01697 16.2593 3.4202 16.6404 3.58906C17.2835 3.97895 17.9003 4.42202 18.4327 4.95519C18.4378 4.97054 18.4439 4.98486 18.4449 4.99816C18.451 5.09538 18.5658 5.12303 18.6441 5.15169C18.6674 5.17215 18.6877 5.19673 18.7081 5.22027C18.701 5.2653 18.7244 5.27858 18.7599 5.27961C18.9509 5.5027 19.1562 5.71341 19.3361 5.94468C19.3269 6.0593 19.3401 6.1515 19.4833 6.14843L19.5392 6.22613C19.5219 6.30493 19.5006 6.38475 19.522 6.43387C19.5982 6.60579 19.6581 6.78592 19.9111 6.83299C19.9335 6.83708 19.9477 6.84631 19.963 6.85348L20.0473 6.99676C20.0544 7.12468 20.0005 7.28023 20.1346 7.33242C20.281 7.37438 20.5391 8.1327 20.6661 8.21661L20.6681 8.21861C20.724 8.34653 20.7626 8.48262 20.8114 8.61361C20.7829 8.69548 20.8083 8.75283 20.8855 8.79274C21.2158 9.58993 21.4211 10.4413 21.5166 11.3091C21.4912 11.39 21.5724 11.565 21.5806 11.5906C21.6232 11.7328 21.7319 11.9753 22.307 12.0132C22.6891 12.0388 23.0204 11.959 22.999 11.5159Z" fill="black"/>
<path fill-rule="evenodd" clip-rule="evenodd" d="M10.0068 9.06551C10.0641 9.12824 10.1253 9.18676 10.1875 9.24417C10.2137 9.26863 10.2477 9.2835 10.2749 9.30583C10.305 9.33028 10.44 9.39831 10.4575 9.43127C10.474 9.4653 10.4983 9.49192 10.5789 9.4547C10.6352 9.42918 10.743 9.34621 10.6002 9.53654C10.6857 9.52909 10.6294 9.67801 10.8159 9.55893L10.8499 9.59611C10.8343 9.63545 10.8256 9.66947 10.8479 9.66841C10.8664 9.66735 10.9062 9.70351 10.8974 9.73434C10.8848 9.779 10.8984 9.79602 10.9159 9.80878C10.9324 9.82154 10.9275 9.85768 10.8673 9.95337C11.0295 9.81302 10.8848 10.0066 10.8955 10.03C10.9052 10.0502 11.0237 9.95125 11.0752 9.92573C11.1004 9.91297 11.1063 9.92358 11.0791 9.96824C10.914 10.2362 11.3539 10.0597 11.2879 10.1522C11.2053 10.2671 11.1704 10.3298 11.2121 10.3106C11.251 10.2936 11.3733 10.182 11.3122 10.2777C11.2723 10.3393 11.4442 10.2437 11.4336 10.2798C11.4258 10.3106 11.4928 10.2596 11.453 10.3202C11.3034 10.552 11.4219 10.4893 11.4578 10.518C11.4831 10.5371 11.5287 10.535 11.552 10.5563L11.7628 10.7647C11.7725 10.7742 11.7949 10.7721 11.8454 10.737C11.858 10.7285 11.8658 10.7242 11.8755 10.7179L11.925 10.7721C11.8716 10.8859 11.8696 10.9444 12.0008 10.8561L12.0513 10.9114C12.0493 10.9231 12.0542 10.9273 12.0649 10.9252L13.241 12.2129C13.2274 12.2352 13.2109 12.2607 13.1895 12.2936C13.142 12.3638 13.2682 12.3585 13.2313 12.4191C13.2031 12.4648 13.445 12.334 13.3527 12.4606C13.2566 12.5935 13.3886 12.4744 13.4032 12.484C13.3828 12.5116 13.3702 12.5318 13.3712 12.5371C13.3809 12.569 13.3828 12.6084 13.3954 12.636C13.4071 12.6605 13.344 12.7062 13.4402 12.636L13.4877 12.5638C13.4702 12.5967 13.4877 12.6022 13.5418 12.5638C13.5729 12.5723 13.4489 12.6144 13.5198 12.5783L13.4877 12.5905L13.4639 12.5999L13.4343 12.6402L13.4022 12.6647C13.3352 12.6222 13.3547 12.6743 13.3595 12.7115L13.3362 12.737C13.3265 12.7338 13.3139 12.7275 13.2944 12.7137C13.243 12.6765 13.2109 12.7956 13.2138 12.871L12.5864 13.5579C12.5379 13.5962 12.4971 13.644 12.4563 13.6919C12.4262 13.6823 12.432 13.7121 12.3873 13.6877C12.3572 13.6706 12.3757 13.7067 12.4038 13.7535C12.3659 13.7939 12.3261 13.8312 12.2785 13.8599C12.2814 13.8705 12.2834 13.8769 12.2873 13.8864L12.2572 13.9184C12.2173 13.9035 12.1843 13.896 12.2183 13.9609L12.1367 14.0513C12.1066 14.0715 12.0843 14.1034 12.0843 14.1034L12.0833 14.1044C11.959 14.147 11.8755 14.2363 11.7987 14.3331C11.7152 14.4394 11.3024 14.8115 11.1985 14.9157L10.9101 15.1985L10.2438 15.9077C10.0593 16.1108 10.2506 16.3969 10.5187 16.667C10.9227 17.0731 11.1053 17.0146 11.1995 16.9647C11.215 16.9562 11.351 16.9157 11.3704 16.8519L12.7088 15.5431C12.7797 15.5516 12.8137 15.5207 12.8088 15.4452L13.0118 15.2155L13.0147 15.2145C13.1254 15.1964 13.4673 14.7169 13.5771 14.7211C13.6917 14.7243 13.6596 14.5722 13.6742 14.468L13.7538 14.3777C13.7684 14.3766 13.7801 14.3745 13.7995 14.3787C14.0219 14.4298 14.0743 14.2831 14.1365 14.1512C14.153 14.1151 14.1365 14.0428 14.121 13.9715C14.1248 13.9683 14.1287 13.9652 14.1287 13.9652C14.1802 13.8907 14.221 13.8046 14.2705 13.728C14.2783 13.7153 14.3482 13.6526 14.3511 13.6185C14.355 13.5707 14.5036 13.5281 14.4696 13.4377C14.4143 13.2953 14.4852 13.2878 14.6716 13.4101C14.7105 13.4356 14.7299 13.3442 14.7309 13.3208C14.7328 13.291 14.8717 13.3517 14.8659 13.3304C14.8571 13.2953 14.8251 13.2336 14.8115 13.1932C14.8057 13.1772 14.9494 13.1581 14.9407 13.0709C14.9407 13.0635 14.9552 13.0582 14.9805 13.0486C14.9931 13.0444 15.0009 13.0305 14.9999 13.0167L14.9805 12.0055C14.9795 11.981 14.9756 11.9428 14.9708 11.9268C14.963 11.9045 14.9416 11.896 14.9222 11.8854C14.9038 11.8716 14.7659 11.7662 14.7581 11.7599C14.6911 11.7024 14.6231 11.6461 14.5464 11.6004C14.5337 11.593 14.4958 11.6132 14.4347 11.661C14.3696 11.711 14.4492 11.4696 14.391 11.476C14.4308 11.3856 14.4376 11.3303 14.4502 11.2697C14.4638 11.2027 14.4385 11.1783 14.4065 11.1612C14.3744 11.1442 14.3123 11.1602 14.2637 11.1624C14.1161 11.2974 14.2346 11.1442 14.2492 11.1038C14.2579 11.0783 14.2142 11.0581 14.1938 11.0507C14.1753 11.0453 14.1637 11.0315 14.1413 11.0305C14.1287 11.0294 13.9364 10.8168 13.9131 10.8115C13.8655 10.8008 13.8694 10.7338 13.7703 10.7795C13.7121 10.8072 13.679 10.8104 13.7451 10.7019C13.7849 10.6381 13.8947 10.3999 13.8811 10.384C13.8713 10.3723 13.8218 10.3276 13.6528 10.4776C13.6013 10.5233 13.6402 10.4638 13.6519 10.4372C13.7082 10.3489 13.716 10.3138 13.6149 10.3957C13.6878 10.2894 13.4761 10.4956 13.5198 10.4244C13.5742 10.333 13.4829 10.4021 13.5372 10.3138C13.6052 10.2022 13.5936 10.1799 13.4401 10.3128C13.3343 10.4042 13.3207 10.3925 13.3867 10.2947C13.4362 10.2213 13.4887 10.1437 13.4877 10.1235C13.4867 10.0735 13.4605 10.0491 13.4343 10.0257C13.4265 10.0182 13.4149 10.014 13.3517 10.0703C13.1837 10.2192 13.1604 10.2118 13.2906 10.0331C13.3537 9.94594 13.3362 9.94167 13.3245 9.93423C13.31 9.92466 13.2595 9.95338 13.2303 9.9587C13.2022 9.96401 13.1371 10.0108 13.0837 10.0427C13.0341 10.0735 13.1118 9.96188 13.1293 9.91723C13.1322 9.90872 13.1254 9.90978 13.1021 9.93105C12.9079 10.1107 13.1041 9.8577 12.9739 9.96616C13.1352 9.71629 13.0215 9.77051 12.8516 9.88322C12.8078 9.91299 12.838 9.85658 12.7739 9.90762C12.9263 9.71729 12.7476 9.88532 12.803 9.80132C12.8894 9.6716 12.872 9.65457 12.8477 9.64394C12.736 9.59503 12.6389 9.52809 12.5417 9.46216C12.5291 9.45366 12.3708 9.32388 12.2746 9.31219L12.0017 8.97725L12.0134 8.95389C12.0493 8.89434 11.9978 8.92201 11.9677 8.9337L11.9561 8.91988C11.9765 8.88904 11.9677 8.89225 11.9464 8.9082L11.8395 8.77736C11.8803 8.71038 11.8988 8.66681 11.8094 8.74018L11.7978 8.72635C11.8327 8.67319 11.8696 8.61896 11.8706 8.60195C11.8764 8.54453 11.893 8.4722 11.7356 8.59448C11.721 8.60405 11.7142 8.60831 11.7065 8.61363L11.6861 8.58916C11.7123 8.52855 11.7832 8.42012 11.7104 8.46903C11.6395 8.51476 11.5851 8.35099 11.521 8.38395L11.52 8.38506L11.4695 8.3223C11.4977 8.27233 11.487 8.26593 11.4394 8.30101L11.0354 8.01501C11.0451 7.98311 10.9732 8.01181 10.9654 8.01287C10.9227 8.01925 10.8275 8.0565 10.4351 8.4765C10.1758 8.75508 9.95827 9.01234 10.0068 9.06551Z" fill="black"/>
</svg>
