<svg width="24" height="24" viewBox="0 0 24 24" fill="none" xmlns="http://www.w3.org/2000/svg">
<g clip-path="url(#clip0_6323_24692)">
<path fill-rule="evenodd" clip-rule="evenodd" d="M22.3503 11.0454C22.1958 11.0454 22.0397 11.0529 21.8852 11.0614C21.8207 11.0651 21.7563 11.0823 21.6903 11.0884C21.6213 11.0958 21.3542 11.1608 21.2897 11.1497C21.2252 11.1374 21.1592 11.1362 21.0962 11.2393C21.0512 11.3105 21.0092 11.4751 20.9672 11.1915C20.8607 11.275 20.7527 11.1019 20.6477 11.3658H20.5562C20.5277 11.3191 20.4977 11.2836 20.4692 11.3057C20.4452 11.3229 20.3462 11.3277 20.3207 11.2958C20.2832 11.2479 20.2442 11.2467 20.2052 11.2504C20.1662 11.2553 20.1272 11.221 20.0897 11.0896C20.0462 11.3499 20.0027 11.0626 19.9592 11.0528C19.9202 11.0442 19.8827 11.2321 19.8452 11.2984C19.8272 11.3303 19.8062 11.3278 19.7882 11.2664C19.6802 10.9006 19.3022 11.4382 19.2767 11.3032C19.2467 11.135 19.2167 11.0541 19.1837 11.1068C19.1522 11.156 19.1237 11.356 19.0892 11.2222C19.0682 11.1363 18.9527 11.3682 18.9227 11.3289C18.8957 11.297 18.8687 11.3989 18.8462 11.3142C18.7637 10.9914 18.6797 11.1485 18.5972 11.157C18.5387 11.1632 18.4802 11.2063 18.4217 11.2087C18.2417 11.2198 18.0602 11.216 17.8802 11.227C17.8547 11.2283 17.8277 11.2505 17.8037 11.3241C17.7962 11.3425 17.7902 11.3523 17.7842 11.3658H17.6507C17.5832 11.2271 17.5142 11.1767 17.4452 11.3658H17.3087C17.2967 11.3547 17.2847 11.3547 17.2742 11.3658H14.0942C14.0837 11.3363 14.0747 11.3008 14.0642 11.2554C14.0432 11.1547 13.8782 11.2712 13.8527 11.189C13.8347 11.1264 13.6697 11.4493 13.6382 11.2639C13.6037 11.0699 13.5722 11.2848 13.5407 11.2897C13.5347 11.2504 13.5272 11.2209 13.5182 11.2185C13.4657 11.2001 13.4147 11.1706 13.3622 11.1596C13.3172 11.1498 13.2737 11.2222 13.2302 11.3658H12.8117C12.7937 11.3241 12.7772 11.3106 12.7577 11.318C12.7067 11.3389 12.6557 11.2737 12.6047 11.3658H12.3272C12.3137 11.3646 12.3017 11.3646 12.2882 11.3658H10.3412C10.3037 11.2713 10.2647 11.3314 10.2257 11.3658H10.1627C10.1537 11.3547 10.1447 11.3375 10.1357 11.3093C10.1117 11.2332 9.92113 11.302 9.83413 11.3658H8.13765C8.02365 11.3547 7.9097 11.356 7.7957 11.3596C7.7672 11.324 7.73717 11.3535 7.70717 11.2946C7.68767 11.2529 7.66817 11.2996 7.64867 11.3622C7.54817 11.3622 7.44768 11.3573 7.34718 11.3364C7.34118 11.3487 7.33362 11.356 7.32612 11.3658H7.24666C7.21066 11.3179 7.17614 11.2823 7.14164 11.3658H6.92119C6.85368 11.356 6.79368 11.3622 6.78468 11.3622H6.78312C6.56262 11.2873 6.33761 11.2835 6.11561 11.2958C5.87111 11.3069 4.85417 11.2419 4.58566 11.2345C4.33816 11.2284 4.0921 11.2099 3.8461 11.2074C3.2536 11.1988 2.66265 11.1915 2.07015 11.1915C1.56915 11.1915 1.47613 11.5954 1.50463 12.0557C1.54813 12.7493 1.8676 12.8646 2.0566 12.9076C2.0896 12.915 2.32212 13.0022 2.42712 12.9678L5.85166 13.0955C5.93566 13.1667 6.02119 13.1715 6.10819 13.1053L6.66612 13.0991L6.6707 13.1003C6.8417 13.185 7.89615 13.1003 8.04015 13.201C8.19015 13.3066 8.33562 13.1532 8.48262 13.082L8.70318 13.0795C8.72268 13.0905 8.74214 13.0991 8.76314 13.1199C9.00014 13.3605 9.25213 13.2883 9.49813 13.2355C9.56563 13.222 9.63318 13.147 9.69918 13.0745C9.70818 13.077 9.71568 13.0771 9.71868 13.0771C9.88068 13.0623 10.0412 13.0279 10.2032 13.0095C10.2287 13.0058 10.4012 13.0182 10.4462 12.9936C10.5107 12.958 10.7641 13.0549 10.8301 12.9506C10.9321 12.7849 11.0357 12.8426 11.1377 13.109C11.1587 13.1642 11.2966 13.1078 11.3266 13.0882C11.3656 13.0661 11.4797 13.2403 11.4977 13.2182C11.5307 13.1814 11.5622 13.1029 11.5937 13.0562C11.6057 13.0391 11.8232 13.1519 11.9207 13.0721C11.9387 13.0574 12.0647 13.1324 12.1097 13.1459C12.1487 13.1569 12.1877 13.1458 12.2267 13.136C12.2657 13.1286 12.5837 13.0942 12.6032 13.0918C12.7652 13.0795 12.9257 13.0648 13.0877 13.0329C13.1132 13.028 13.1387 12.9777 13.1642 12.8844C13.1897 12.7849 13.3802 13.0537 13.4507 12.996C13.5077 13.1053 13.5661 13.1569 13.6231 13.217C13.6876 13.2846 13.7522 13.282 13.8167 13.266C13.8812 13.2513 13.9456 13.1838 14.0101 13.1384C14.0416 12.8965 14.0717 13.1262 14.1017 13.1728C14.1212 13.2011 14.2052 13.1802 14.2412 13.1667C14.2742 13.1544 14.3057 13.1556 14.3387 13.136C14.3552 13.1261 14.8772 13.1286 14.9162 13.1114C14.9942 13.0782 15.0722 13.1359 15.1487 13.0095C15.1937 12.9346 15.2342 12.9028 15.2777 13.0513C15.3032 13.1385 15.4487 13.4305 15.4877 13.4318C15.5147 13.4318 15.6362 13.4244 15.6797 13.1519C15.6932 13.0684 15.7127 13.1519 15.7307 13.1838C15.7637 13.3065 15.7967 13.3422 15.8327 13.1851C15.8657 13.3361 15.8957 12.9777 15.9257 13.0759C15.9647 13.1986 16.0022 13.0611 16.0397 13.1814C16.0847 13.3336 16.1282 13.341 16.1717 13.0967C16.2017 12.9273 16.2332 12.9236 16.2647 13.0636C16.2887 13.1679 16.3142 13.2772 16.3397 13.2932C16.4042 13.3324 16.4687 13.3288 16.5332 13.3251C16.5527 13.3239 16.5737 13.3176 16.5902 13.2157C16.6337 12.9432 16.6742 12.9272 16.7192 13.1899C16.7402 13.3176 16.7687 13.3066 16.7942 13.3017C16.8272 13.2956 16.8587 13.2269 16.8902 13.1974C16.9232 13.1679 16.9547 13.0709 16.9862 12.9972C17.0147 12.9285 17.0477 13.0894 17.0792 13.1409C17.0852 13.1507 17.0927 13.1433 17.0987 13.1053C17.1407 12.7849 17.1872 13.1679 17.2292 12.9629C17.3192 13.3103 17.4062 13.1641 17.4962 12.9211C17.5202 12.8573 17.5472 12.9297 17.5712 12.8303C17.5997 13.1224 17.6342 12.8266 17.6627 12.9445C17.7077 13.1274 17.7512 13.1249 17.7962 13.1126C18.0092 13.0524 18.2222 13.0206 18.4352 12.9875C18.4622 12.9838 18.8372 12.947 18.9812 12.8721L19.7627 12.9015C19.7687 12.91 19.7733 12.9187 19.7763 12.9298C19.8018 13.0108 19.8377 12.942 19.8632 12.9052L19.8962 12.9064C19.9052 12.9494 19.9142 12.9383 19.9232 12.9076L20.2277 12.9187C20.2562 13.0095 20.2862 13.0624 20.3147 12.9224L20.3492 12.9236C20.3672 12.9973 20.3852 13.0746 20.4032 13.0906C20.4677 13.1421 20.5337 13.2146 20.5952 12.974C20.6012 12.9531 20.6057 12.9444 20.6117 12.9334L20.6687 12.9359C20.7077 13.0083 20.7452 13.1605 20.7857 13.0549C20.8232 12.9542 21.0992 13.0403 21.1442 12.9555L21.1457 12.9544L21.2912 12.9591C21.3137 13.0254 21.3362 13.0206 21.3587 12.9494L22.2572 12.8217C22.2843 12.8573 22.3458 12.7689 22.3548 12.7615C22.4028 12.7185 22.4868 12.6032 22.4988 11.9096C22.5063 11.4505 22.4823 11.0454 22.3503 11.0454Z" fill="#FF1261"/>
<path fill-rule="evenodd" clip-rule="evenodd" d="M12.9288 22.3502C12.9288 22.1957 12.9215 22.0398 12.9129 21.8853C12.9092 21.8208 12.8921 21.7563 12.8859 21.6903C12.8785 21.6213 12.8134 21.3543 12.8245 21.2898C12.8368 21.2253 12.838 21.1593 12.7349 21.0963C12.6637 21.0513 12.4992 21.0092 12.7827 20.9672C12.6993 20.8607 12.8724 20.7527 12.6085 20.6477V20.5563C12.6551 20.5278 12.6907 20.4976 12.6686 20.4691C12.6515 20.4451 12.6465 20.3461 12.6785 20.3206C12.7263 20.2831 12.7275 20.2443 12.7239 20.2053C12.7189 20.1663 12.7533 20.1272 12.8846 20.0897C12.6244 20.0462 12.9117 20.0027 12.9215 19.9592C12.9301 19.9202 12.7423 19.8828 12.676 19.8453C12.6441 19.8273 12.6465 19.8062 12.7079 19.7882C13.0737 19.6802 12.536 19.3022 12.671 19.2767C12.8392 19.2467 12.9203 19.2167 12.8675 19.1837C12.8184 19.1522 12.6183 19.1237 12.7521 19.0892C12.838 19.0682 12.606 18.9528 12.6453 18.9228C12.6772 18.8958 12.5753 18.8688 12.66 18.8463C12.9829 18.7638 12.8257 18.6797 12.8171 18.5972C12.811 18.5387 12.768 18.4801 12.7656 18.4216C12.7545 18.2416 12.7582 18.0602 12.7472 17.8802C12.7459 17.8547 12.7239 17.8277 12.6502 17.8036C12.6318 17.7962 12.622 17.7902 12.6085 17.7842V17.6508C12.7472 17.5833 12.7975 17.5141 12.6085 17.4451V17.3087C12.6195 17.2967 12.6195 17.2848 12.6085 17.2743V14.0941C12.6379 14.0836 12.6735 14.0748 12.7189 14.0643C12.8196 14.0433 12.703 13.8783 12.7852 13.8528C12.8478 13.8348 12.525 13.6697 12.7104 13.6382C12.9043 13.6037 12.6895 13.5723 12.6846 13.5408C12.7239 13.5348 12.7533 13.5272 12.7558 13.5182C12.7742 13.4657 12.8036 13.4147 12.8147 13.3622C12.8245 13.3172 12.7521 13.2737 12.6085 13.2302V12.8116C12.6502 12.7936 12.6637 12.7771 12.6564 12.7576C12.6355 12.7066 12.7005 12.6557 12.6085 12.6047V12.3271C12.6097 12.3136 12.6097 12.3016 12.6085 12.2881V10.3412C12.703 10.3037 12.6428 10.2646 12.6085 10.2256V10.1626C12.6195 10.1536 12.6367 10.1447 12.6649 10.1357C12.741 10.1117 12.6723 9.92113 12.6085 9.83413V8.13765C12.6195 8.02365 12.6183 7.90961 12.6146 7.79561C12.6502 7.76711 12.6207 7.73717 12.6797 7.70717C12.7214 7.68767 12.6747 7.66808 12.6121 7.64858C12.6121 7.54808 12.6171 7.44768 12.6379 7.34718C12.6256 7.34118 12.6183 7.33363 12.6085 7.32613V7.24666C12.6563 7.21066 12.6919 7.17624 12.6085 7.14174V6.9211C12.6183 6.8536 12.6121 6.79368 12.6121 6.78468C12.687 6.56418 12.6907 6.33761 12.6785 6.11561C12.6674 5.87111 12.7324 4.85408 12.7398 4.58558C12.746 4.33807 12.7643 4.09219 12.7668 3.84619C12.7754 3.25369 12.7827 2.66256 12.7827 2.07006C12.7827 1.56906 12.3789 1.47613 11.9186 1.50463C11.225 1.54813 11.1096 1.86769 11.0666 2.05669C11.0593 2.0897 10.9722 2.32212 11.0066 2.42712L10.8789 5.85157C10.8077 5.93557 10.8028 6.0211 10.8691 6.1081L10.8752 6.66621C10.874 6.66771 10.8739 6.66911 10.8739 6.67061C10.7892 6.84161 10.874 7.89624 10.7733 8.04024C10.6677 8.19024 10.8212 8.33563 10.8924 8.48263L10.8948 8.70309C10.8838 8.72259 10.8752 8.74214 10.8543 8.76314C10.6137 9.00015 10.6861 9.25213 10.7389 9.49813C10.7524 9.56563 10.8273 9.63318 10.8997 9.69918C10.8973 9.70818 10.8972 9.71559 10.8972 9.71859C10.912 9.88059 10.9464 10.0411 10.9648 10.2031C10.9685 10.2286 10.9562 10.4013 10.9808 10.4463C11.0164 10.5108 10.9194 10.7642 11.0237 10.8302C11.1894 10.9322 11.1317 11.0357 10.8653 11.1377C10.8101 11.1587 10.8666 11.2966 10.8862 11.3266C10.9083 11.3656 10.734 11.4797 10.7561 11.4977C10.7929 11.5307 10.8715 11.5621 10.9181 11.5936C10.9353 11.6056 10.8224 11.8231 10.9022 11.9206C10.9169 11.9386 10.842 12.0646 10.8285 12.1096C10.8175 12.1486 10.8285 12.1876 10.8384 12.2266C10.8457 12.2656 10.8801 12.5837 10.8826 12.6032C10.8948 12.7653 10.9095 12.9257 10.9414 13.0877C10.9464 13.1132 10.9967 13.1386 11.09 13.1641C11.1894 13.1896 10.9206 13.3802 10.9783 13.4507C10.8691 13.5077 10.8175 13.5661 10.7574 13.6232C10.6898 13.6877 10.6923 13.7522 10.7082 13.8167C10.7229 13.8812 10.7905 13.9457 10.8359 14.0102C11.0777 14.0417 10.8481 14.0716 10.8015 14.1016C10.7733 14.1211 10.7941 14.2051 10.8076 14.2411C10.8199 14.2741 10.8187 14.3057 10.8384 14.3387C10.8482 14.3552 10.8457 14.8772 10.8629 14.9162C10.8961 14.9942 10.8384 15.0721 10.9648 15.1486C11.0397 15.1936 11.0716 15.2342 10.9231 15.2777C10.8359 15.3032 10.5437 15.4487 10.5425 15.4877C10.5425 15.5147 10.5499 15.6361 10.8224 15.6796C10.9059 15.6931 10.8224 15.7127 10.7905 15.7307C10.6677 15.7637 10.6322 15.7967 10.7893 15.8327C10.6383 15.8657 10.9967 15.8957 10.8985 15.9257C10.7758 15.9647 10.9132 16.0023 10.7929 16.0398C10.6407 16.0848 10.6333 16.1281 10.8776 16.1716C11.047 16.2016 11.0507 16.2331 10.9108 16.2646C10.8065 16.2886 10.6972 16.3142 10.6812 16.3397C10.642 16.4042 10.6456 16.4688 10.6493 16.5333C10.6505 16.5528 10.6567 16.5737 10.7586 16.5902C11.0311 16.6337 11.047 16.6741 10.7843 16.7191C10.6567 16.7401 10.6677 16.7687 10.6726 16.7942C10.6788 16.8272 10.7475 16.8586 10.777 16.8901C10.8064 16.9231 10.9034 16.9548 10.977 16.9863C11.0458 17.0148 10.885 17.0478 10.8334 17.0793C10.8236 17.0853 10.831 17.0927 10.8691 17.0987C11.1895 17.1407 10.8064 17.1872 11.0114 17.2292C10.664 17.3192 10.8101 17.4062 11.0532 17.4962C11.117 17.5202 11.0446 17.5473 11.144 17.5713C10.8519 17.5998 11.1477 17.6342 11.0299 17.6627C10.847 17.7077 10.8494 17.7511 10.8617 17.7961C10.9218 18.0091 10.9537 18.2222 10.9868 18.4352C10.9905 18.4622 11.0274 18.8372 11.1023 18.9812L11.0728 19.7627C11.0642 19.7687 11.0557 19.7733 11.0446 19.7763C10.9636 19.8018 11.0323 19.8377 11.0691 19.8632L11.0679 19.8962C11.0249 19.9052 11.036 19.9143 11.0666 19.9233L11.0556 20.2278C10.9648 20.2563 10.912 20.2863 11.052 20.3148L11.0507 20.3492C10.977 20.3672 10.8997 20.3852 10.8838 20.4032C10.8322 20.4677 10.7598 20.5338 11.0004 20.5953C11.0213 20.6013 11.0298 20.6058 11.0409 20.6118L11.0385 20.6687C10.966 20.7077 10.8138 20.7452 10.9193 20.7857C11.02 20.8232 10.9341 21.0992 11.0188 21.1442C11.02 21.1442 11.02 21.1457 11.02 21.1457L11.0151 21.2913C10.9488 21.3138 10.9537 21.3362 11.0249 21.3587L11.1526 22.2572C11.117 22.2842 11.2054 22.3458 11.2127 22.3548C11.2557 22.4028 11.3711 22.4867 12.0647 22.4987C12.5238 22.5062 12.9288 22.4822 12.9288 22.3502Z" fill="#FF1261"/>
</g>
<defs>
<clipPath id="clip0_6323_24692">
<rect width="24" height="24" fill="white"/>
</clipPath>
</defs>
</svg>
