<svg width="22" height="22" viewBox="0 0 22 22" fill="none" xmlns="http://www.w3.org/2000/svg">
<path fill-rule="evenodd" clip-rule="evenodd" d="M18.2477 8.47673C18.2409 8.05422 18.1712 7.63741 18.0947 7.22175C18.0707 7.04703 18.0034 6.88266 17.9554 6.71365C17.9188 6.52295 17.646 5.85481 17.5797 5.69494C17.5306 5.52822 17.4746 5.35814 17.3079 5.24623C17.1948 5.16515 17.011 5.13316 17.1983 4.91391C17.0156 4.69123 17.0008 4.3624 16.6433 4.25164L16.5188 4.04714C16.5177 3.95693 16.5006 3.87474 16.4378 3.82564C16.3853 3.78225 16.2254 3.57781 16.2094 3.50587C16.1831 3.39624 16.1214 3.31287 16.0563 3.23293C15.9867 3.15528 15.941 3.06165 15.9661 2.90521C15.7046 2.97715 15.8257 2.71342 15.7504 2.6175C15.6841 2.5387 15.498 2.57867 15.3769 2.55811C15.3198 2.54669 15.281 2.50786 15.2855 2.43363C15.3118 1.96087 14.1893 1.72443 14.2155 1.60339C14.2418 1.42525 14.2144 1.31564 14.1094 1.31108C14.0123 1.30537 13.849 1.42423 13.8364 1.27121C13.8262 1.17072 13.455 1.19915 13.4059 1.12721C13.3602 1.06555 13.2483 1.12154 13.2335 1.02448C13.1707 0.6602 12.8967 0.68987 12.6934 0.603083C12.5461 0.54827 12.3839 0.534589 12.2366 0.483202C11.7832 0.311912 11.3094 0.202256 10.8355 0.10976C10.7681 0.100624 10.695 0.109816 10.6185 0.166912C10.5991 0.181757 10.5819 0.188557 10.5636 0.198834L10.2165 0.146282C10.0567 -0.0170147 9.86705 -0.0603669 9.67749 0.102929L9.31778 0.0857838C9.28695 0.0732225 9.25612 0.0721876 9.22529 0.0813231C6.43098 0.049349 3.65608 1.44018 2.03796 3.72291C1.99913 3.72747 1.95692 3.72968 1.90553 3.72625C1.78563 3.71255 1.63834 4.14543 1.54471 4.16256C1.4682 4.17969 1.49672 4.69923 1.31059 4.69352C1.11189 4.69124 1.25123 4.86023 1.2204 4.93788C1.17929 4.9356 1.14726 4.94128 1.13356 4.96297C1.05819 5.07945 0.972557 5.19363 0.904041 5.31467C0.842377 5.42087 0.870959 5.56136 0.953178 5.7178C0.81843 6.06038 0.704208 6.40875 0.624273 6.76732C0.57517 6.80272 0.551224 6.84493 0.545514 6.89403C0.528385 7.02763 0.439292 7.15091 0.507808 7.30051L0.401588 8.02453L0.397057 8.12392C0.319406 8.9758 0.387868 9.83229 0.542029 10.6739C0.727023 11.5098 1.02165 12.3181 1.41904 13.0764C1.39278 13.2054 1.49558 13.2671 1.57551 13.3379L1.66229 13.4795C1.66457 13.5058 1.66341 13.5332 1.65427 13.5675C1.61659 13.6668 1.95688 14.0539 2.15101 14.1943C3.03829 15.3922 4.25678 16.3264 5.6134 16.9374C5.87947 17.0744 6.16949 17.16 6.4504 17.2651C6.51093 17.3245 6.59656 17.3188 6.65594 17.3907C6.69819 17.4409 6.76105 17.4135 6.82615 17.3689C7.08422 17.4283 7.3343 17.5209 7.59352 17.5688C7.61636 17.562 7.63235 17.5563 7.6529 17.5495L7.86297 17.5825C7.94633 17.6407 8.03541 17.6876 8.13361 17.6225C8.32546 17.6579 8.52191 17.651 8.71489 17.6659C8.88847 17.6841 9.04835 17.6865 9.07119 17.6876H9.07572C9.65696 17.7573 10.2565 17.7105 10.8355 17.5917C11.1529 17.5289 11.974 17.345 12.7562 17.015C13.5418 16.6907 14.2635 16.2167 14.5456 15.9963C15.0811 15.6126 15.5608 15.1559 15.9981 14.6615C17.0145 13.4533 17.7464 11.9756 17.9942 10.4043C18.1849 9.06139 17.7304 8.81585 17.3262 8.89464C16.6707 9.00883 16.5542 9.70322 16.4241 10.104C16.4218 10.1794 16.2254 10.6589 16.1934 10.8862C15.49 13.29 13.4665 15.2267 11.073 15.8148C10.88 15.792 10.7076 15.8445 10.5351 15.9358C10.1412 16.0066 9.7449 16.058 9.34294 16.066L9.33493 16.0649C9.15108 16.0386 8.49104 16.0271 7.85384 15.9072C7.21436 15.7919 6.61485 15.5568 6.49153 15.4574C6.2403 15.2404 5.9034 15.2461 5.59165 15.1399L5.18629 14.8968C5.15432 14.8671 5.12347 14.8362 5.10063 14.7928C4.82086 14.3132 4.37785 14.0448 3.99187 13.6862C3.88567 13.588 3.73717 13.5309 3.58986 13.4659C3.57844 13.4499 3.57049 13.4372 3.56706 13.4327C3.34781 13.1609 3.10456 12.9051 2.91957 12.6048C2.88189 12.5603 2.70486 12.2314 2.65005 12.148C2.5507 12.0372 2.40795 11.5006 2.28462 11.3955C2.05509 11.2391 2.03111 10.9936 2.22524 10.7161C2.26406 10.659 2.13733 10.3872 2.10536 10.3244C2.07338 10.2434 2.19672 9.97719 2.17045 9.94179C2.12592 9.88012 2.04254 9.8231 1.99001 9.76029C1.95346 9.73517 2.04029 9.25891 1.95578 9.05564C1.9318 9.01453 2.00148 8.74171 2.0266 8.64693C2.04144 8.56472 2.03455 8.48133 2.03113 8.39797C2.00486 8.31347 2.08139 7.63059 2.0871 7.58948C2.13734 7.2469 2.21043 6.90437 2.29494 6.56408C2.30978 6.51041 2.28351 6.44189 2.22071 6.36195C2.15333 6.27288 2.52557 5.97256 2.55526 5.82068C2.70257 5.75216 2.79853 5.66068 2.90131 5.57618C3.01208 5.4814 3.09197 5.37184 3.14679 5.24623C3.20731 5.12632 3.2165 4.97104 3.26332 4.83515C3.11829 4.65244 3.33521 4.72202 3.40829 4.69575C3.45283 4.67976 3.54423 4.52456 3.58191 4.45376C3.61731 4.39324 3.65038 4.33842 3.68806 4.27561C3.70176 4.25963 3.89247 4.04383 4.08659 3.8223C4.30242 3.62246 4.52399 3.41804 4.54911 3.38264C4.65531 3.24903 4.82774 3.1999 4.88826 3.00348C4.92594 2.89043 4.98192 2.80705 5.13722 2.86757C5.23429 2.90526 5.63967 2.97833 5.70247 2.9395C5.75043 2.90524 5.9594 2.77735 5.93199 2.51699C5.92285 2.43591 5.9971 2.48622 6.04392 2.4965C6.15698 2.56958 6.23118 2.56952 6.23803 2.40394C6.35794 2.50329 6.28253 2.16641 6.37959 2.22579C6.49949 2.30459 6.53035 2.1562 6.6434 2.23499C6.785 2.33434 6.86606 2.3115 6.88204 2.06256C6.89346 1.89355 6.95859 1.85812 7.06479 1.96889C7.14358 2.04882 7.22239 2.13332 7.27835 2.1356C7.4188 2.13675 7.54784 2.10024 7.67688 2.06256C7.71571 2.05114 7.7568 2.03289 7.77278 1.93696C7.81504 1.67432 7.90522 1.64688 8.03882 1.87298C8.10277 1.98261 8.15991 1.9643 8.21244 1.95174C8.27753 1.93575 8.33693 1.8616 8.40202 1.82391C8.46597 1.78509 8.52419 1.69936 8.587 1.62513C8.64752 1.55776 8.72974 1.70397 8.79825 1.7485C8.81196 1.75649 8.82905 1.74964 8.83819 1.71309C8.91698 1.41048 9.03003 1.76102 9.11796 1.56575C9.31437 1.89006 9.49024 1.7702 9.70607 1.55209C9.76202 1.49614 9.81681 1.56575 9.87962 1.47668C9.91616 1.74732 10.0178 1.49151 10.0681 1.60799C10.1423 1.79184 10.2325 1.80334 10.3318 1.80677C10.792 1.82047 11.2523 1.90721 11.6953 2.04653C11.757 2.04653 12.5221 2.34224 12.827 2.45301C13.3192 2.75219 13.7908 3.09259 14.1985 3.50141C14.1996 3.51397 14.203 3.52762 14.2007 3.53904C14.1893 3.63154 14.2921 3.63728 14.3595 3.65098L14.4085 3.70353C14.3937 3.74692 14.4131 3.75482 14.4473 3.74911C14.5935 3.9204 14.75 4.08147 14.887 4.25847C14.8596 4.36238 14.8562 4.44116 14.9989 4.41375L15.0423 4.47314C15.0115 4.54622 14.9761 4.62038 14.9886 4.66035C15.0354 4.79966 15.0606 4.94588 15.3141 4.9436C15.337 4.94246 15.3495 4.94823 15.3644 4.9528L15.4283 5.06236C15.4157 5.17085 15.3346 5.31021 15.4637 5.33419C15.603 5.35246 15.7766 5.93933 15.8965 5.99186L15.8987 5.99311C15.941 6.09132 15.9707 6.19514 16.0073 6.29449C15.9662 6.36414 15.9879 6.40756 16.0655 6.4304C16.3316 7.0322 16.5006 7.6785 16.5862 8.34082C16.5566 8.40363 16.6444 8.53608 16.6536 8.55549C16.6992 8.66397 16.8169 8.84903 17.4633 8.87987C17.8915 8.90042 18.2648 8.83644 18.2477 8.47673Z" fill="black"/>
<path fill-rule="evenodd" clip-rule="evenodd" d="M14.1374 15.4262C14.1876 15.4764 14.2436 15.5221 14.2995 15.5678C14.3224 15.5861 14.3555 15.5964 14.3806 15.6135C14.408 15.6306 14.5382 15.6752 14.5519 15.7037C14.5645 15.7334 14.5862 15.7551 14.6741 15.7083C14.7358 15.6752 14.8568 15.5815 14.6843 15.7814C14.7746 15.7619 14.6958 15.9104 14.9036 15.771L14.9344 15.8007C14.9127 15.8407 14.8979 15.8739 14.9219 15.8693C14.9413 15.8659 14.9767 15.8944 14.9641 15.923C14.9447 15.9675 14.9573 15.9811 14.9721 15.9914C14.9881 16.0006 14.9778 16.036 14.9036 16.1342C15.0897 15.9777 14.9139 16.1811 14.9219 16.2016C14.9299 16.2199 15.0646 16.1091 15.1206 16.0771C15.148 16.0623 15.1537 16.0703 15.1183 16.1172C14.9127 16.3935 15.3901 16.1628 15.309 16.2599C15.2085 16.3798 15.1651 16.4425 15.2108 16.4196C15.253 16.3968 15.3935 16.2747 15.3181 16.3729C15.2679 16.438 15.4574 16.3226 15.4426 16.358C15.43 16.3877 15.5054 16.3295 15.4574 16.3923C15.2713 16.6321 15.4026 16.5567 15.4358 16.5773C15.4586 16.5921 15.5054 16.583 15.5271 16.6002C15.5922 16.6527 15.6493 16.7132 15.7155 16.7658C15.7247 16.7726 15.7475 16.7668 15.8046 16.7269C15.8183 16.7166 15.8263 16.712 15.8377 16.7051L15.8811 16.7486C15.8115 16.8628 15.8011 16.9176 15.9485 16.8148L15.993 16.8604C15.9896 16.8718 15.993 16.8753 16.0044 16.8718L17.0424 17.9088C17.0253 17.9317 17.0059 17.9579 16.9785 17.9922C16.9191 18.0653 17.0504 18.0413 17.0036 18.1041C16.9694 18.1509 17.2354 17.9921 17.1235 18.1246C17.007 18.2639 17.1589 18.1327 17.1726 18.1395C17.1487 18.1681 17.1315 18.1897 17.1326 18.1943C17.1383 18.2228 17.1349 18.2594 17.1441 18.2834C17.1532 18.3051 17.2149 18.2719 17.3245 18.1908L17.4604 18.3267C17.4387 18.361 17.4353 18.3746 17.4467 18.3758C17.4764 18.3792 17.4501 18.4398 17.5277 18.3953L17.6191 18.4855C17.6214 18.4912 17.626 18.4946 17.6317 18.498L18.2666 19.133C18.2164 19.2084 18.2689 19.1809 18.3043 19.1706L18.3248 19.1911C18.3202 19.2025 18.3112 19.2163 18.2963 19.238C18.2541 19.2962 18.3613 19.3133 18.4321 19.2985L18.986 19.8524C19.0146 19.8969 19.0534 19.9334 19.0922 19.9677C19.0785 20.0008 19.1082 19.9917 19.0785 20.0396C19.058 20.0739 19.0945 20.0499 19.1424 20.0145C19.1756 20.0476 19.2041 20.083 19.2235 20.1298C19.2338 20.1241 19.2406 20.1219 19.2498 20.1162L19.2761 20.1435C19.2555 20.1857 19.2441 20.2212 19.3103 20.1766L19.3823 20.2497C19.3971 20.2771 19.4211 20.2931 19.4245 20.2965C19.4473 20.4187 19.5181 20.4929 19.5981 20.558C19.686 20.6311 19.9749 21.0057 20.0583 21.0982C20.1336 21.1827 20.2033 21.2753 20.281 21.3575C20.4682 21.5562 20.6566 21.7537 20.8496 21.9467C21.0129 22.11 21.3099 21.8747 21.6033 21.5629C22.0453 21.0925 22.0167 20.9132 21.9836 20.823C21.9779 20.807 21.9596 20.6734 21.9025 20.662L20.8691 19.4607C20.8873 19.3865 20.8634 19.3557 20.7914 19.3705L20.6053 19.1924C20.6053 19.1912 20.6053 19.19 20.6053 19.19C20.6053 19.0781 20.2045 18.7904 20.2239 18.6773C20.2444 18.5597 20.0971 18.6122 20.0012 18.6111L19.9281 18.5414C19.9292 18.5265 19.9281 18.5151 19.935 18.4946C20.0161 18.2593 19.8859 18.2251 19.7717 18.1783C19.7397 18.1657 19.6689 18.1932 19.6004 18.2183C19.5981 18.2148 19.5958 18.2126 19.5946 18.2114C19.533 18.168 19.4576 18.1382 19.3925 18.0971C19.3811 18.0914 19.3343 18.0264 19.3023 18.0287C19.2578 18.031 19.2396 17.8849 19.1493 17.9317C19.0066 18.007 19.0112 17.9362 19.1528 17.7272C19.1824 17.6838 19.1002 17.677 19.0773 17.6781C19.0511 17.6804 19.1276 17.5296 19.107 17.5376C19.0716 17.5513 19.01 17.5925 18.97 17.613C18.954 17.621 18.9575 17.4748 18.8741 17.4954C18.8581 17.4999 18.8649 17.4098 18.8604 17.3858C18.8547 17.3652 18.8341 17.3606 18.8158 17.3537C18.7976 17.3469 18.6708 17.2648 18.664 17.2602C18.6034 17.2157 18.5407 17.1723 18.4664 17.1403C18.455 17.1358 18.4128 17.1608 18.3443 17.2145C18.27 17.2704 18.3854 17.0318 18.3237 17.0466C18.3774 16.9564 18.3922 16.9028 18.4128 16.8445C18.4356 16.7794 18.4139 16.76 18.3819 16.7497C18.3522 16.7383 18.286 16.7622 18.2357 16.7702C18.0656 16.9198 18.2072 16.7588 18.2278 16.7177C18.2404 16.6926 18.1992 16.6801 18.1775 16.6767C18.1593 16.6733 18.1501 16.663 18.1273 16.6653C18.1136 16.6664 17.9457 16.494 17.9217 16.4928C17.8749 16.4894 17.8863 16.4265 17.779 16.4836C17.7151 16.5179 17.6808 16.5258 17.7642 16.4139C17.8133 16.3488 17.9583 16.1091 17.9457 16.0965C17.9377 16.0862 17.8932 16.0519 17.6991 16.2175C17.6397 16.2678 17.6876 16.2061 17.7036 16.1799C17.7733 16.0885 17.7858 16.0542 17.6705 16.1456C17.7596 16.036 17.5141 16.2609 17.5689 16.1867C17.6374 16.0931 17.5335 16.1718 17.602 16.0805C17.6865 15.9652 17.6774 15.9469 17.5027 16.093C17.3816 16.1947 17.369 16.1868 17.4501 16.084C17.5106 16.0075 17.5746 15.9276 17.5769 15.9093C17.5814 15.8625 17.5586 15.843 17.5346 15.8247C17.5278 15.819 17.5163 15.8167 17.4444 15.8784C17.2503 16.0428 17.2274 16.0406 17.385 15.8533C17.4615 15.7619 17.4456 15.7597 17.4341 15.7551C17.4204 15.7483 17.3645 15.7825 17.3336 15.7917C17.3039 15.8008 17.2308 15.8545 17.1714 15.8922C17.1166 15.9287 17.2115 15.8111 17.2354 15.7677C17.24 15.7597 17.232 15.762 17.2057 15.7848C16.9808 15.9824 17.2183 15.7151 17.0687 15.8361C17.2686 15.5781 17.144 15.6454 16.9545 15.7767C16.9054 15.811 16.9442 15.7539 16.8711 15.811C17.0538 15.6101 16.8471 15.7928 16.9157 15.7072C17.0219 15.5713 17.0059 15.5587 16.9831 15.553C16.8734 15.5222 16.7832 15.4741 16.6919 15.4262C16.6804 15.4205 16.5343 15.3211 16.4384 15.3245L16.2019 15.0494C16.2065 15.0414 16.2111 15.0345 16.2168 15.0265C16.2625 14.9649 16.2054 14.998 16.1723 15.014L16.162 15.0025C16.1883 14.9717 16.178 14.9752 16.154 14.9935L16.0615 14.8861C16.1129 14.8165 16.138 14.773 16.0364 14.8552L16.0261 14.8438C16.0684 14.7901 16.114 14.7319 16.1175 14.7171C16.13 14.6611 16.1574 14.5914 15.9781 14.7296C15.9633 14.7422 15.9553 14.7456 15.9462 14.7514L15.9291 14.7307C15.9645 14.6713 16.0524 14.5583 15.9701 14.6154C15.8913 14.6691 15.8571 14.5229 15.7875 14.564L15.7418 14.5127C15.7783 14.4613 15.7669 14.4578 15.7132 14.4967L15.3364 14.2877C15.3501 14.2557 15.2725 14.2934 15.2656 14.2957C15.2199 14.3082 15.1172 14.3574 14.657 14.8096C14.3521 15.1088 14.094 15.3828 14.1374 15.4262Z" fill="black"/>
</svg>
