<svg width="24" height="24" viewBox="0 0 24 24" fill="none" xmlns="http://www.w3.org/2000/svg">
<path fill-rule="evenodd" clip-rule="evenodd" d="M1.72151 14.0084C1.78686 14.0687 1.86172 14.1188 1.92898 14.1766C2.00258 14.2394 2.30839 14.4494 2.36169 14.5198C2.41498 14.5909 2.4778 14.6543 2.61421 14.641C2.71001 14.6315 2.87054 14.5528 2.7043 14.8015C2.868 14.8434 2.84643 15.0737 3.14146 14.9823L3.22965 15.0705C3.2233 15.1321 3.22457 15.1873 3.26835 15.1987C3.30515 15.2101 3.40413 15.3008 3.40476 15.3491C3.40667 15.4214 3.4441 15.4601 3.48407 15.4944C3.52531 15.5286 3.53737 15.5908 3.47773 15.7234C3.71058 15.5762 3.54244 15.8281 3.57797 15.8776C3.60843 15.9201 3.78164 15.8192 3.86666 15.8078C3.90853 15.8021 3.92693 15.8236 3.89965 15.8865C3.73596 16.2583 4.49479 16.231 4.41929 16.3534C4.32602 16.5051 4.2962 16.5939 4.36662 16.5876C4.43197 16.5818 4.60582 16.4626 4.54174 16.5933C4.5005 16.6776 4.7803 16.6193 4.78157 16.677C4.78347 16.7259 4.88499 16.6776 4.84375 16.7614C4.6883 17.0774 4.88372 17.0437 4.97128 17.118C5.03155 17.17 5.11911 17.1947 5.17748 17.2487L5.71551 17.7601C5.74153 17.7835 5.78213 17.7937 5.86017 17.7632C5.87984 17.7556 5.89253 17.7543 5.90903 17.7499L6.03783 17.8793C6.00166 18.0468 6.03212 18.1509 6.23705 18.0779L6.36966 18.2105C6.37219 18.2302 6.38361 18.2416 6.40328 18.2442L7.69507 19.5359C8.0472 19.8881 8.61759 19.8881 8.96973 19.5359L10.7513 17.7543C10.783 17.7664 10.8186 17.7829 10.8617 17.8064C10.9563 17.859 11.0305 17.6148 11.1142 17.6509C11.1777 17.6782 11.1009 17.2829 11.2678 17.3876C11.4429 17.4961 11.316 17.3089 11.3427 17.2741C11.3782 17.2975 11.4061 17.3115 11.4175 17.3051C11.4803 17.2677 11.5527 17.2398 11.6104 17.1979C11.6612 17.1611 11.6504 17.0659 11.5876 16.9181L11.9917 16.514C12.0393 16.5279 12.066 16.5209 12.0786 16.4975C12.1129 16.4327 12.2112 16.4308 12.1922 16.3135L12.4606 16.0451C12.4739 16.0343 12.4866 16.0222 12.4968 16.0089L14.3799 14.1258C14.4865 14.1582 14.4801 14.0769 14.4915 14.0141L14.5525 13.9532C14.5702 13.9532 14.5912 13.957 14.6203 13.9684C14.6997 14.0014 14.8335 13.7667 14.871 13.6347L16.5104 11.9952C16.6291 11.8937 16.7382 11.7827 16.8454 11.6704C16.8987 11.6678 16.907 11.6171 16.9793 11.6323C17.0282 11.6425 17.0142 11.5898 16.9869 11.5251C17.084 11.428 17.1842 11.3348 17.2959 11.2535C17.2953 11.2377 17.2946 11.2256 17.2946 11.211L17.3721 11.1336C17.4412 11.1349 17.5008 11.1273 17.4729 11.0327L17.6874 10.8183C17.7584 10.7618 17.813 10.6996 17.8213 10.6908C18.0915 10.5302 18.3104 10.3158 18.5173 10.0925C18.7451 9.84755 19.7767 8.91106 20.0413 8.65664L20.7766 7.96189L22.5043 6.25706C22.9884 5.77296 22.7835 5.38657 22.4199 5.07821C21.8711 4.61378 21.4777 4.83775 21.2639 4.98875C21.2265 5.0154 20.9365 5.17719 20.8604 5.30345L17.4564 8.5215C17.3238 8.55068 17.2369 8.62936 17.2014 8.76196L16.6659 9.30571L16.6614 9.30888C16.4337 9.4123 15.4769 10.4947 15.2637 10.5601C15.0423 10.6279 15.0131 10.8798 14.9224 11.0759L14.7123 11.2897C14.6844 11.3005 14.6584 11.3132 14.6235 11.3183C14.2194 11.3709 14.0284 11.6685 13.8292 11.9438C13.7733 12.0206 13.7638 12.1393 13.7511 12.2566C13.7422 12.2643 13.7346 12.2706 13.7314 12.2731C13.5862 12.44 13.4554 12.6208 13.3127 12.7909C13.2899 12.8188 13.1147 12.9761 13.0894 13.0383C13.0532 13.1265 12.7366 13.301 12.7499 13.4393C12.7715 13.6601 12.63 13.7172 12.3369 13.6214C12.2766 13.6017 12.184 13.7762 12.1681 13.82C12.1465 13.8739 11.9105 13.8561 11.908 13.8904C11.9042 13.9488 11.9308 14.037 11.934 14.1011C11.9346 14.1258 11.6421 14.254 11.6066 14.405C11.5996 14.4335 11.4232 14.502 11.3693 14.535C11.3236 14.5642 11.2951 14.6105 11.264 14.6543C11.2291 14.6949 10.948 15.0312 10.9315 15.0509C10.7843 15.2165 10.6397 15.3833 10.5064 15.5629C10.4848 15.5908 10.4969 15.6536 10.5419 15.745C10.5895 15.8427 10.2095 15.83 10.1835 15.9404C10.0477 15.9156 9.95379 15.9347 9.85355 15.9467C9.74251 15.9594 9.6816 16.0235 9.63085 16.0971C9.57945 16.1701 9.56676 16.2817 9.53821 16.3769C9.68478 16.5844 9.48682 16.4454 9.42337 16.441C9.38467 16.4391 9.31932 16.5355 9.29331 16.5812C9.27047 16.6212 9.23874 16.651 9.22161 16.696C9.21273 16.7208 8.70578 17.2233 8.68104 17.2734C8.63092 17.3724 8.51354 17.406 8.53194 17.5723C8.54273 17.67 8.52559 17.7334 8.37586 17.6674C8.28703 17.6281 7.88097 17.203 7.88731 17.1351C7.88922 17.1218 7.87589 17.1192 7.84354 17.1427C7.56881 17.3369 7.80356 17.0114 7.61259 17.1205C7.78072 16.7798 7.58848 16.8014 7.3239 16.8927C7.25475 16.9162 7.28139 16.8369 7.18495 16.8858C7.37085 16.644 7.12151 16.8274 7.17988 16.7151C7.27124 16.5374 7.22746 16.4975 7.17353 16.4632C6.92418 16.3008 6.69514 16.118 6.46483 15.9366C6.43564 15.9131 6.04607 15.5768 5.85256 15.4937L5.11784 14.7152C5.11974 14.7038 5.12165 14.693 5.12609 14.6816C5.16162 14.5985 5.0766 14.6137 5.02394 14.6156L4.99348 14.5833C5.01632 14.5426 4.99983 14.542 4.9681 14.5566L4.68132 14.2527C4.72003 14.1582 4.73081 14.0922 4.59948 14.1664L4.56839 14.1328C4.60455 14.0617 4.64452 13.9875 4.63754 13.9589C4.6128 13.8587 4.60265 13.7413 4.36662 13.8568C4.34632 13.8669 4.3349 13.8682 4.32158 13.8714L4.26765 13.8143C4.28287 13.7242 4.35711 13.5757 4.24227 13.615C4.13187 13.6518 3.92693 13.3219 3.82225 13.3403L3.68266 13.195C3.70931 13.1246 3.68393 13.1068 3.61097 13.1367L2.64911 12.3626C2.64847 12.3106 2.52538 12.315 2.51142 12.3125C2.43148 12.296 2.26652 12.2998 1.74879 12.7953C1.40554 13.124 1.13335 13.4437 1.26024 13.5706C1.40998 13.7204 1.56543 13.865 1.72151 14.0084Z" fill="#29823B"/>
</svg>
