<svg width="24" height="24" viewBox="0 0 24 24" fill="none" xmlns="http://www.w3.org/2000/svg">
<g id="Icons / user">
<path id="user" fill-rule="evenodd" clip-rule="evenodd" d="M18.9427 17.4553C18.9427 18.2589 18.6982 18.8933 18.2094 19.3587C17.7206 19.8241 17.071 20.0568 16.2607 20.0568H7.48173C6.67146 20.0568 6.0219 19.8241 5.53306 19.3587C5.04422 18.8933 4.7998 18.2589 4.7998 17.4553C4.7998 17.1004 4.81152 16.7538 4.83496 16.4157C4.8584 16.0775 4.90527 15.7125 4.97559 15.3208C5.0459 14.9291 5.13463 14.5658 5.24177 14.231C5.34891 13.8961 5.49288 13.5697 5.67369 13.2516C5.85449 12.9335 6.06208 12.6623 6.29646 12.438C6.53083 12.2137 6.81711 12.0345 7.15527 11.9006C7.49344 11.7667 7.86677 11.6997 8.27525 11.6997C8.33552 11.6997 8.47615 11.7717 8.69713 11.9157C8.91811 12.0596 9.16755 12.2204 9.44545 12.3978C9.72335 12.5753 10.085 12.736 10.5303 12.88C10.9756 13.0239 11.4226 13.0959 11.8712 13.0959C12.3199 13.0959 12.7669 13.0239 13.2122 12.88C13.6575 12.736 14.0191 12.5753 14.297 12.3978C14.5749 12.2204 14.8244 12.0596 15.0453 11.9157C15.2663 11.7717 15.4069 11.6997 15.4672 11.6997C15.8757 11.6997 16.249 11.7667 16.5872 11.9006C16.9254 12.0345 17.2116 12.2137 17.446 12.438C17.6804 12.6623 17.888 12.9335 18.0688 13.2516C18.2496 13.5697 18.3936 13.8961 18.5007 14.231C18.6078 14.5658 18.6966 14.9291 18.7669 15.3208C18.8372 15.7125 18.8841 16.0775 18.9075 16.4157C18.9309 16.7538 18.9427 17.1004 18.9427 17.4553H18.9427ZM14.5934 5.76395C15.3501 6.51395 15.7284 7.42132 15.7284 8.48605C15.7284 9.55078 15.3517 10.4598 14.5984 11.2132C13.845 11.9665 12.936 12.3432 11.8713 12.3432C10.8065 12.3432 9.8975 11.9665 9.14415 11.2132C8.3908 10.4598 8.01413 9.55078 8.01413 8.48605C8.01413 7.42132 8.3908 6.51228 9.14415 5.75893C9.8975 5.00558 10.8065 4.62891 11.8713 4.62891C12.936 4.62891 13.8434 5.00725 14.5934 5.76395V5.76395Z" fill="#101213"/>
</g>
</svg>
